<svg xmlns="http://www.w3.org/2000/svg" viewBox="0 0 1024 768"><g fill="#FFFFFF00" fill-rule="evenodd"><path d="M-68-18H956v768H-68z"/><path d="M652.3 596.8a53.3 53.3 0 01-9.2 48.1c-7 8.6-23.7 16.2-33 7.3-4.3-4-6-17.6-7.9-24a59 59 0 01-3.1-21.6c1.7-7.1 16-5.4 22.7-6 10.2-1 20.3-2.5 30.5-3.8zm134.5 8.2c2.2 4.9 5.8 8.2 7.3 13.6 1 3.6 1.6 7.2 2 10.8.5 4.5.8 4.3-2.2 6.4-4.7 3.1-16.7 2.9-22.3 3.8l-22.3 3.8c1.8-6.9.9-14.3 2.7-21.4 1.8-6.8 5-13.6 9.4-19.2 3.3-4.2 8.1-9.2 14-9.2 7.8 0 9 6 11.4 11.4zM315.7 457c1.1 14.7-1 30.5-9.4 43.2-3.6 5.4-8.8 8.3-13 13-4.9 5.3-7.5 12-15.2 14.3-5 1.5-10.9.4-16 1.1-8.6 1.1-11.2 0-18.4-4.5-5.2-3.2-11.2-2.6-16.7-6.1-6.5-4.2-12.3-10.2-18.5-15 35-17 71-31.7 107.2-46zm94 8.7a44.5 44.5 0 0124.2 30.9C397 505 361.1 515.4 325 527c10-25.8 21.4-49.3 49.1-61.3 5.6-2.4 11.2-6.2 17.5-6.1 6.3 0 12.7 3.5 18.1 6.1zM746.1 504c19 10 9.4 42 2.7 56.2-8.4-6.2-17.3-12.3-25.6-18.4-9-6.6-17.1-15.1-25.3-22.7 4.3-2.2 7.2-5.8 11.2-8.4 4-2.6 8-2.8 12.5-3.8 8.6-2 15.6-7.6 24.5-3zm-148.4-72.1c1.5 2 3.3 3.8 4.8 5.8 3.5 4.8 6.5 9.8 10.5 14.3 7.1 8 17.5 18.5 29.2 19.2l.3 3.4c-3.4 0-5.5-3-8.4-3.3-2.4-.3-5.7 1.5-8.6 1.3-8.9-.8-17.6-1.2-26.6-1-17.9.5-35.4 3.3-53 5.6 3.4-12 9.6-24.2 19.6-32.2 3.5-2.7 6.8-6.5 10.6-8.7 2.4-1.4 4.9-1.5 7.3-2.5 2.8-1.2 6.3-5.2 9.2-5.6 3-.4 3 1 5.1 3.7zm143 1c9.3 7.6 16.5 17.1 24.2 26.1 7 8.2 16.4 19.9 18.9 30.4-12.4 5.8-33.5.5-41.5-10.3-9.8-13.2-5-31.7-1.6-46.1zM526.6 390a67.8 67.8 0 01-16.9 35.7c-3.8 4-7.2 9.2-11.6 12.7-5.8 4.6-10.4 2.3-17 3-7.2.7-11.9 5.4-19.5 4.1-5.5-.9-10.5-3.9-15.6-4.8-5.6-1-10.4-.4-16-3.2-6.9-3.4-12.3-10.1-17.7-15.2 2.8-2.2 8.5-2.4 12.1-3.6l14.3-4.7 29.6-9.4a407.4 407.4 0 0158.3-14.6z" fill="#123456"/><g fill="#000"><path d="M822 82.5l-.7 4.1c6 1 6.2-2.6.6-4.1zm-26.2-7.1c-3.3-1.2-8.5.5-6 4.3 3.6 5.5 5.2-1.6 6-4.3zm-260 150.5c.6-.5-5.2-11.4-5.9-13.3-3.7 2.2-4 1.6-2.4 5.2 1.3 3 5.8 6 8.4 8zm-336.7 3c-1.8-.2-5.3-1.2-6.8-.6-2 .8-1.5 2.8-1.8 5.7 6.1-.3 7 .5 8.6-5.1zm-8-6l9 1.6c.6-3.4 2.3-9-4-7-.6.2-4.2 4.3-5 5.4zm351.8 7c-3.1 3.2 11.6 9.8 13.1 7.7 3.3-4.7-11-7-13-7.7zm73-37.3l5.3-.5c-.6-2.6-2.5-12.2-6.4-11.7-3.9.5.5 10.2 1 12.2zm6.5 15.7c0-2.2.9-7 0-9-.5-1.5-2.9-5.8-6.3-3-.7.6-1 9.3-.8 9.5.9 1.2 5.7 2 7 2.5zM603.9 236c-3.6-2.8-11.6-7-15.1-.6-5 8.8 12 3 15.1.6zm-20.9.7c-4.8 1-9.7.8-14.5.5-5.5-.4-6.8-2-8.4 3.2a48.3 48.3 0 0024.3 1.5l-1.4-5.2zm30.3-24c-1.7 3.5-5.3 8-6.3 11.6-.7 2.7-1 1.4-.4 3.4.2.8 3.2 3.8 3.7 4.6 3.6-2.7 8-5.5 9.8-9.7 3-6.7-.9-7.3-6.8-9.8zm-81.7-14a111.5 111.5 0 01-40.2 6.4c-.2 1 22 7.5 24.6 7 2.7-.4 2.9-4.2 6.1-6.2 3.6-2.2 6.5-.9 10.5-1.2l-1-6zm40.2 51.2a77.1 77.1 0 01-31.3-8.6 41 41 0 01-13.6-12c-3-3.9-2.4-3.6-7-4.9-3.4-1-7.6-.5-11.2-1a186 186 0 01-34.8-8.8c-12.5-4.1-23.4-10-37.2-9.7-23.8.6-43 18.6-67.8 11-9.9-3-20-7-28-13.3-10.3-8.4-16.6-13.3-31.2-10.4-11.7 2.4-20.7 8.6-30.8 14.3-11.4 6.6-24 10.5-36.7 14-5 1.3-9.6 2-14.9 2.3-3 .2-17.9-2-19.7-.5-1.8 1.6-2.6 12.2-2.4 14 .3 3.3-1 3.7 2.4 5 2.4 1 9.8 0 12.7.3 24 2.8 48.4 3.6 71.9 7.7 22 3.9 44.2 7 66 11.5 28.5 6 57.4 8.6 85.8 14.3 13.8 2.8 27.6 6.7 41.2 9.6a1848 1848 0 0037.2 7.6c-.4-1.7-3-8 1-7.3 2.7.3 7 9.3 8.5 11.4 6.3 9.3 13 16.4 21.7 23.9l26.3 22.3c7.2 6 22.7 15 22.3 25.4-4.4.9-13.1-7-16.4-9-6.6-4.3-13-9-19.2-13.8-5.9 8.5 8 18.4 9.5 26.5-3.5 0-9.5-9.8-11.6-12.3-5.8 5.3-12.2 10-16.3 16.7 46.3-2 53.9 55.5 87.3 75a35.6 35.6 0 0025.1 4.2c8.9-2 17.3-4.8 25-9.8 17.4-11.1 30.1-32.5 37-50.9a161 161 0 008.9-30.6c1.9-11.8 0-23.9-1.4-35.6a99 99 0 00-29.7-57.2c-7.1-6.8-14.8-12.7-21.3-20-2.3-2.6-7.5-12.4-10.3-13-5.2-1.1-8 6.2-11.5.2-3.6-5.9 3.2-8.2 7.3-11 4.4-2.9 8.7-6 13-9 8.7-6.2 17.2-12.2 25.4-18.7 40.2-31.7 75.8-67 111.8-103.1-6.8-1.6-16.4-6.2-23.2-5-6.9 1.3-13 6.1-20.2 7-7 .7-13.9-.8-20.4-3-7.7-2.6-12.9-6-19.4.5-10.3 10.5-16 25-27 35a88.3 88.3 0 01-40.7 18.8c-13.3 2.8-31.7 1.5-41.4 11.9-2.2 2.3-4.1 4-4.3 7.5-.2 6.3 1.2 1.8 3.3 5.7a60.8 60.8 0 015.2 21c1.5 14.2-.4 29.6-11.6 39.3a62.8 62.8 0 01-43.3 14.6zM571 227c8.3 4.2 25-1.3 31.5-6.4 9-7 9.7-19.1 8.2-29.3l-12.5 3-5.3 1.3c.2 1.5 0 2.9-.7 4.1-4 5-5.8 2.6-10-1.8a80.6 80.6 0 01-21-32.2c-4.2 4.8-8.9 8-15.6 7.3-2.9-.3-14.1-3.8-11.2-9 1-1.5 10 .5 13 .4 6.5-.4 9.5-.2 11.8-6.2 2-5 1.3-7-4.7-8-7.6-1.2-7.9 3.4-13.3 5.5-13.8 5.4-4.4-16-6.3-22.1 6.7-2 13.9-3.4 19.9-7.2-6.7.7-13 3-19.4 4.5.6-7.9 16.2-9.5 22.1-12-6.3-.9-12.3 3.3-18.7 3a85 85 0 01-20-4.6c-6-2-10.6-7.4-16.2-2.7a41.7 41.7 0 00-10 16.1c3.7-.5 12.5-1.2 13.5 3 1.3 5.4-9.6 2.2-13 3.1-5 1.4-3.5 2.9-5.4 8-1.8 4.9-5 8.9-10.2 11 5.7 3 7.3 3 6.1 8.7-1 5.6-.3 12 .2 18.3 3.4-1.4 7.1-1.9 10.8-2.3.7 4.6-6.4 6.5-10.1 6.8 2 6 2 5.8 8.6 5.8 3.7 0 7.5-.3 11.2-.4 7.5-.4 14.8-1.7 22.2-3 2.9-.4 6.9-2 9.7-1.6 5.2.5 4.2 1.1 3.3 5.5-1.2 6 .2 10.5 1.7 17-8.9-3-1.8 6.2 2.4 8.1A81.9 81.9 0 00571 227zM87 588.2c6.3 3.2 12.2 6.1 17.9 10.1 5.7 4 11.7 10.7 19 12 8.5 1.5 10.6-3 12.7-9.6 2.4-7.4 4.6-10.7 11.4-14.8 12-7.2 26.1-12 39.3-17.1 5-2 5.4-1.6 4-6.7a105.4 105.4 0 00-11.5-25.3c-20.8 13.7-45.7 29.6-71.4 32.9-10.4 1.3-20.7 3.7-30.9 4.5a37 37 0 00-13.6 4c-5 2.4-13.3 3.2-16.9 7.2 13.5 0 26.7 1.7 40 2.8zm511.4 18c-4.1 1.7 1.5 11.6 2.7 15.7 1.8 6.2 3.5 12.4 5.4 18.5l11.1 39.3c24.2-13 50.1-20.6 77-26.9 26.7-6.2 54-10.7 81.4-15a181 181 0 0044.5-11.6c8.6-3.8 6.9-7.3 6.8-15.7-.2-7.8-1.4-15.8-2.6-23.6-2.3-14.8-4.7-30.8-10.6-44.6-5.8-13.5-13.6-26.5-21-39.2-8.9-15-16.4-31.2-28-44.6-12-14-24.9-26.6-38-39.5-7.7 14.8-18.9 32.7-33.3 42-15.8 10.3-40.8 15.6-58.8 7-18.1-8.7-28.8-26.4-40.1-41.8-11-15-20.4-31-39.7-36.3-20.4-5.7-41.9 2-61.8 6.8-22.7 5.4-44.9 13.3-67 20.7-38.2 12.8-76.2 24.6-113.5 40-46 18.8-92 37.5-136.4 59.6 9.6 13.7 17 26.2 22.5 42 4.2 12.3 6.8 25.3 7.8 38.6 5.2-5.1 9.1-11.2 14.3-16.4 6-6 12.9-10.4 19.8-15 12.6-8.4 25.4-16 39.3-22.3 31.5-14.5 64.9-24.4 98.1-34.7 7.6-2.3 16.4-5 24.3-6.3 6.6-1.1 12.5-3 19.2-4.6a741 741 0 0146.3-9.6c29.7-5 60-10.4 90-13.9 20.5-2.3 41.8-6.2 62.8-4.1 3.5.3 7 1 10.5 1 1-.1 2.2-1.6 3.3-1.5 2 .2 4 2.4 6 3 4.6 1.6 11.3.7 13.8 4.4 2 3 1.2 5.4-1.7 7.4 3.5 4.5 10.5 8.7 15.3 12.3 4.3 3.2 8.3 6.6 12.7 9.7 4.6 3.3 10.3 6.4 15.1 9.8 6.4 4.4 11.8 10.1 17.9 15 10.7 9 21.6 16.7 33 25 6 4.5 11.9 8.7 18.5 12.4 3.7 2 12 7.5 7.6 12.5-4.3 5-12.9-2.4-17.6-3-5.4-.5-12.7 2.9-18 3.6-14.3 2.1-28.6 4-42.8 6.2-16.3 2.6-32.4 6.1-48.7 8.2-8.4 1.1-16.9 2.2-25.4 3-4.3.4-10.5-.2-14.6 1.2-3.1-1-4.5 0-4 2.6a6.2 6.2 0 01-3.4 2.7zM147.7 234c9 0 17.7.5 26.6.4 3.5 0 6.4.7 7.8-1.7 1.7-2.9 1-10.4 1.2-13.7-10.4.8-20 1-30.3.1-11.1-1-22-4.1-33.1-4.8 2.4.9 5.1 5.8 3.6 8.2-1.6 2.4-4.1.2-6.6-.8-9.4-4.2-17.3-10.3-27.9-7.7 9.8 5 19 13.2 29.3 16.2 9.6 2.8 19.3 3.8 29.4 3.8zM808.5 70.3c4.4.8 12.8 5.1 16.7 3 4.8-2.7 3.8-13.5 4-17.7.5-13 1.4-30.7-8.7-41.1-1.8 12.4 2.1 25.3 1.9 37.9-.3 9.4-3.8 4.2-5-2.4-1.2-6.1-1.1-12.1-2.7-18.2-2.8 5-3.5 11.6-5.5 17-2.6 6.8-6.2 13-9.9 19.4l9.2 2zM190 239.8c0 3.6-.6 7 4 7.3 5.9.5 4-5.6 3.6-9.5-2.2.3-7.1-.3-7.6 2.2zM806 76.2c-3.7-.5-4.3-1.3-6.7 1.3-1.5 1.6-1.6 4.7-.3 5.7 5.7 4.6 6.6-4.5 7-7zm3.6 8.3c2.9.6 5.7 2.2 7.4-.7 2.4-4.3-3.4-4.6-6.5-5.9l-1 6.6zM626 484.1c-32.3-.7-64.1 4.3-95.9 10-28 4.8-55.8 9-83.3 15.1-55.2 12.5-110.6 26.4-162 50.4-12.4 5.8-24.8 11.7-36.3 18.8-6.2 3.8-12.5 7.5-18.3 11.8-3.3 2.4-6.6 4.7-9.6 7.3-2.8 2.4-4.3 5.7-6.8 8-1.2 1-6.2 5.1-7.7 5.6-3.2 1-2 1-5.2-1.2-6.7-4.6-8.1-10.8-10.1-18.2-1.5-5.3-.4-7-5.1-6.8-2.4 0-6 2.5-8.2 3.4-7.2 3-15 5.4-22 9-5.5 2.8-10 6.5-12.3 12.2-2.9 6.8-4.5 12.3-13 13-15.3 1.4-24.1-13.8-37.2-19-14-5.5-31.8-4.4-46.5-4.6-5.4 0-11.2.5-16.4 1.2-7.2 1-15.8 5-23.3 2.5-8.6-2.9-8.5-15.2-2.8-20.5 6-5.6 15-6.4 22.6-8.2 15.5-3.8 29.6-12.3 45.4-15 15.7-2.6 32.4-3.1 47.7-7.9 7.8-2.4 15.4-4.3 22.8-7.7 9.3-4.3 19.2-7 28.4-11.2-3.2-5.5-4-10.7-4.2-16.9-.1-4-.8-4 2-5.8l1.8.9c1.8 1.3 3 .7 3.8-1.8 12.7-7.7 24.4-16 38-22.6 22.6-11.2 46.7-20.3 69.3-31 43.1-20.2 91.1-32 136.5-46.8 27.4-9 55.5-16.3 83.6-23 5-1.1 9.8-2 14.9-2.8 8.4-1.3 6.4-1.4 10.7-8a75.7 75.7 0 0123-22.4c5.5-3.2 7.8-2.8 7.7-9.8-.2-5.3-1.6-5.3-6-8.8-5-4-9.5-8.6-13.7-13.4-4.8-5.4-7-11.6-11-17.2-4.7-6.8-19.7-5.6-28-6.8-13-1.9-26.4-3.2-39.3-6-26-5.8-52.1-7.8-78.5-11.8-26.5-4-53-7.8-79.4-11.4-9.5-1.3-19.2-2.5-28.6-4.1-13.3-2.3-27.2-2.5-40.6-4.7-7-1-15.4-5-22.4-4.6-7.4.3-.7.2-5.7 2.8a18.4 18.4 0 01-7.2 2.3c-4 .2-8-1.5-10.5-4.5-4.1-5.1-2.1-9-10.4-9.7-5.5-.4-12 1.7-17.5 2-5.4.3-11 1-16.5 1a89 89 0 01-33.8-6c-10.5-5-19.9-11.6-31-15.8-5.5-2-13.3-3-17-8-3.1-4.3-4.1-13 .6-16.4 7.3-5.4 21.5 2.7 29.5.7 4.2-1 .8-2.3 3.9-3.7 2-1 1.6-1 4-1.4 5.6-.8 14.8 3.2 20.6 4.1 11.3 1.9 22.6 4.7 33.9 6.4 6.5 1 13 1.3 19.5 2.3 5.7 1 10.3 3.1 14.4-1.4 1.7-1.9 1.2-3.9 4-4.9 2.5-.9 9.6.4 12 1.3 2.6 1 3.2 2.5 5.3 3.6 0 2.2 1 2.9 2.7 2 1.7-.1 3.3 0 5 .2 14.4.1 28.7-4.4 41.8-9.6 21.7-8.8 48.6-33.5 73.5-20 6.1 3.3 10.1 8.8 16 12.4a84 84 0 0018.1 7.8 59 59 0 0035.5-.6c14.4-4.5 26-9.3 41.5-8.7 14.3.4 25.8 10.3 39.8 10.7-3.4-5.5-4-11.8-4.4-18-.3-4.2 2-14.9-.4-18.2-2.8-3.6-24.1-5.1-12.2-15.9 3.9-3.5 11-2.2 15.1-6 4-4 4.1-10.1 6.3-15a53.7 53.7 0 0110.7-14.5c1.7-2 3-3.1 4-5.3 1-2.7.3-4.9 2.1-7.6 6.3-9.3 17.2-6 26.7-4.8 5.8.7 12.8 0 18.4 1.6a49.3 49.3 0 0114 7.9c8 6.2 9.9 17.6 10.5 27 .4 5.5-.7 10.6-.8 16.1 0 5.7-2.5 8.3-7 12.1 0-1-.6-1.7-1.6-2.1-1.9 2.4-1.4 3.3 1.5 2.8a7 7 0 001.6 3.9c2.4 2.7 4.5 5.6 6.9 8.4 5.1 6 11.2 11.2 15.2 18 4.2-4.8 9.5-5.6 14.5-9 4.8-3.2 1.2-4.2 3-8.9.7-1.9 2.6-2.2 3.3-3.7.6-1.4-.1-2.2.2-3.8 2-7.5 1.2-12.2 7.2-18.2 8.1-8 18-10 29.2-11.5 11.1-1.5 19-2 28.8-6.4 3.5-1.6 6.7-2.3 10-4 4.3-2.3 8.4-4.8 12.3-8 8.8-7.2 14.3-17.4 21.5-26.2 5.8-7 12.7-16 23-14.2C754 80.8 764.4 88 777 84c4.6-1.4 4.1-.6 6-5l1.6-4.6c2.2-5.5 6.5-6.2 9.2-10.7 6.2-10.6 9.7-23.9 13.3-35.5 1.6-5.5 4.8-10.2 6.8-15.4.8-2.1.4-11.8 3-12.7 8.1-2.6 14.7 18.9 16.1 23a73 73 0 015.8 34c-.6 4.6-1.1 10-2.4 14.7-1 4.1-1.3 3.8-.7 7.6.7 3.9 1.5 6.2.9 10.2-.2 1.1-.7 5.3-1.2 5.8-2.2 2.7-2.5.8-5.3 2-4.5 1.6-5.7 3.1-8.9 7.2-8 10.1-16.3 20.3-25 30a574.2 574.2 0 01-48.2 47 434 434 0 01-53.2 41.7c-4.7 3-12.2 5.5-16 9.3-4 4.2 2.1 6 6.3 9 8.3 6 16.8 12 24 19 15.5 14.7 24.3 36.4 29.7 56 2.8 10.3 3.3 22 4.4 32.7 1.3 12.4-.3 26-4.2 38-1.5 4.4-3.3 8.8-4.7 13.3-.7 2.1-4 8.6-3 11 1.4 4 11 8.7 14.4 11.5 4.6 3.8 9.3 7.7 13.2 12.1 16.3 19.1 29.7 39.2 41.8 61.1 12.2 22.4 23.8 42.5 28.6 67.6l3.7 19.7c1.4 7 0 17.2 3 23.7 1.7 4 5 5.2 3.6 10.7a58 58 0 01-10.2 17c-7.4 8.5-20.7 11.9-31.3 15-12.8 3.7-26.4 5.5-39.6 7.6-47.5 7.7-94 16.1-138 35.9 1.5 2.1 2.7 6.8-.3 8.2-4 2-6-3.8-7.3-6.4-4-7.6-5.2-17.3-7.5-25.5-5.9-20.2-10.3-40.5-15-60.8-16.2 3.4-32.5 5.2-48.6 8.3-7.4 1.5-15 1.6-22.4 2.5-8 1-8.5 3.5-7.9 11.2 1.4 16.9 8.1 33 12 49.5 1.8 8 5.1 15.5 6.9 23.4.6 2.6 0 9.5 1.7 11.4l7.1 1.4c-.5-10 .7-19.7.2-29.6-.5-10.3-2-23.8.4-33.7 2-9.1 10-18.7 18.8-22.5 7.7-3.3 22.9-8.6 31.2-3.7 1.4.9 5 3.5 4.1 5.6-1 2.8-13.3 5-15.8 5.9-9.8 3.4-20 9.4-25.5 18-5 7.8-3 19.9-2.8 28.8.1 5.1.8 9.8.1 14.9-.8 7.2-1.3 9.7 1.6 16 3.5 7.2 1.4 17.8-9 15.2-6-1.6-6.3-5-10-8.6-1.4-1.4-3-.8-4.4-2.5-1.8-2.3-1.8-7.5-2.7-10.5-3-9.4-7.2-18.6-10.4-28a436.3 436.3 0 01-10.7-38.9c-2.4-10.1-5-20.4 0-30.3 4.3-8.8 15-8.1 23.8-8.5 20.5-.7 41.7-5.1 62.6-6.2 1.5 0 4.6.4 6-.2 1.8-.9 2.5-3.4 5-5 4.6-3 13.7-4.1 19-5 12-2.2 24-4 36-6.2 13.9-2.6 27.6-5.6 41.4-8 13.2-2.2 26.6-2.6 40-4.2-21.3-13.6-40-30.3-60.4-45.2a272.8 272.8 0 01-26.8-21.6c-3.5-3.3-7-6.5-10.2-10.1-1.7-2-3.2-5.6-5.4-7-2.7-1.6-5.8-1.2-9.4-1.5z"/><path d="M548 98.6c-7-.6-15-.7-21.8-2.2 6 .5 16.3.2 21.8 2.2M162 208.3l-9-.8c3-.4 6 0 9 .8m184 65.1l6 .5-6-.5m203.5 412.8l.3-7-.3 7m33.7-60.1h-6 6M522.2 96l-5-.4 5 .4m16.6 582.2l-.1 5 .1-5M289.5 265.4l4 .4-4-.4m238.4 338.8h-5 5m11.6 91.1l-.3 4 .3-4m86.2-210.7l3 .2-3-.2M317.3 177.3h-5 5m-195.8 23.4l-4-.7 4 .7m22.7 4.1l-3.9-.9 4 .9zm-52.9-2.7l-4-.8 4 .8m520.4 282.2l2 .2-2-.2m86.5 89.7l-4 .1 4-.2m44.1-200.1l.3-3-.3 3m-237.7-77.5l2 .2-2-.2M233 258.5l1.9.1-2-.1M128.8 232c3.1.2 6 .3 9 1.2-3-.2-6.4.2-9-1.3m32 1.5a14 14 0 018 .6l-8-.6m410.1-5.9l7 .6c-2.4.5-4.8.6-7-.6M806 75.8l-5-.6 5 .6m-725.4 512c2.1-1 4-.3 6 .5l-6-.5m62.1-354.1h5-5M572 250l-4-.3 4 .2M490.5 285.8l5 .9-5-1M150 219l-4-.2 4 .2m329.6 64.7l5 .9c-1.7 0-3.5.4-5-1m-26.6-6.1l5 .9-5-1M809.2 84.8l5 1-5-1M392.7 267.4l5 .5-5-.5M808.5 70.7l5 .9-5-1M205.4 240.7l5 .3c-1.8 1-3.4.7-5-.3m329.1-95.9l.3-4-.3 4m5.3 242.9l-3-.2c1 0 2 0 3 .2M626.9 202l-.5 4 .5-4m21.4 253.7l5-.1h-5M536.2 188c1.4-.8 2.7-.7 4 .3l-4-.4m11.3-14.3c-.7 0-1.3-.2-2-.3l2 .3m6.5 202l3.9.9-4-.9m-45.4 105.9h4-4M480 487h4-4m-12.3 2l4-.1-4 .2zm-12.2 2l4-.2-4 .2m257.6 95.5l-3-.1 3 .1M508.3 289.3l4 .8-4-.8M756 97.4l-2-.1h2M161 220c-.7 0-1.3 0-2-.2l2 .3m281.3 54.4l4 .8-4-.8M292 249.4l3.9.7-4-.7M175.8 234.6l4-.1-4 .1m36.6 6.4c1.3-.6 2.7-.9 4 .2-1.4 0-2.7-.2-4-.3M673 321.7c4.8.7 7 1.8 8.3 6.5.6 2.1-1.1 6.2-.5 7.6.8 1.8 2 .8 3.3 2.5 5 6.3 7.6 18.8-2.1 23.2-3.7-4.5-2.4-9.6 0-14.2-5.2-1.2-7.9-1.4-9.5-6.6-.2-.6-.6-8.4-.8-8.5-1-1.2-5.4 0-7-.9-3.3-1.8-4.8-8-4-11.6 1.1-4.8 6.3-7.3 10.2-10-12.5.3-24 9.7-36.5 10.3-3.5.2-4.4 1.8-5.6-2.2-1-3.4.1-3 2.5-4.7 4.6-3.5 11.8-5.7 17.3-7.7 8-2.8 21.9-9.5 30.6-5.7 4.3 1.8 7.4 7.5 6 12-1.3 4.3-8.7 7.4-12.3 10M678 257c3.5 5.6 5 11.5 1.2 17.4 5.5-.5 11.6-1.5 15.2 3.5 5.2 7.2-.1 9.6-6.2 10-4.8.3-14.5 3.4-18.7.2-7-5.4 0-15.6 2.7-20.7-4.5.1-15.7 1.4-13.8-6.9 1.4-6 15.2-4.5 19.5-3.5m-57.2 36.2l-4.4 5c2.2.6 5.2-1.3 7.1-2l-2.7-3zm-6.6-7c-5.2-.6-10.7 6-11.9-1.4-.7-4.4 3.4-10 8.3-10.7 8.4-1.2 20.3 18 22.4 24.6 2 6-.1 5.2-4.6 7.5-3.9 2-9 6.5-14 5-4.6-1.2-6-8.5-6-12.4 0-5.9 3.6-7.8 5.8-12.5zm26.2.1c.8 2.3 6.4 13.5 1.4 13.4-2.8 0-8-16-8.7-17.9-1-2.5-3.2-6-2.8-8.8.6-5 .3-3.4 3.7-2.8 6.5 1 11.9 11 18 13.4-2.5-9.4-6.3-19.8-3.7-29.5 7.3 6.8 7.6 20.8 9.6 30 .7 2.9 2.1 8.7-1 10.6-3.5 2.1-14.1-7-16.5-8.4m-46.8 20.4c2.4-5.1 5-11-4-9.2l4 9.2zm-3-21.4c7.8-.6 12.2 9.5 13 15.4.6 4.7-4.3 21-10.9 16.1-2.4-1.8-3.8-6.9-5.4-9.4-2.2-3.5-5.3-6.8-7-10.5-3.5-8 2.9-11.5 10.4-11.6zm.5.2h-5.1 5m87.8-27.9l-4-1 4 1"/><path d="M689.2 274.6l-4-.4c1.5-.7 2.8-.5 4 .4M505 144.2c6.4 4.7-8 22.1-13.6 8-1.6-4-1.1-8.9 3-7.8 2 .4 2.2 3.3 4.8 3.4 2.6 0 3.9-2.2 5.7-3.6m37.7 16.4c.1-3.5 6.8-10.4 10.6-5.9 3.9 4.6-7.7 5.8-10.6 5.9"/></g></g></svg>