<svg xmlns="http://www.w3.org/2000/svg" viewBox="0 0 1024 768"><g fill="#FFFFFF00" fill-rule="evenodd"><path d="M0 0h1024v768H0z"/><path d="M537 380.5l-10.3 17.6-32 54.2c-2.4 4.1-3.6 8.2-5 12.9l-8.2 25.5-12-6.2c-4-2-10.9-4-14-7.2-2.6-2.8-4-9.3-5.4-12.9l-12.7-30.8-19.3-46.7 57.9 5.5 61-11.9zm-31.7-164l2.5 18c.6 4.1.3 8.7 2.8 11.9 6.1 7.8 16.4 13.2 18.9 23l2.7 10.3c.3 1.3 2 5 1.6 6.3-.8 2.2-8.2 5-10.1 6-7.4 3.8-15 7.6-22.9 10a25.5 25.5 0 01-22.3-3c-4.8-2.8-13-7.6-15.8-12.7-2-3.5-1.8-9.6-2.6-13.6h-20.3c-4.2 0-11.2-1.3-14.5 1-2 1.4-3.7 4.3-5.3 6.1-2.6 3-5.4 5.8-8.2 8.5a64.6 64.6 0 01-20.8 14.5c-9.6 3.5-18.6-1.4-26-7.5-3.4-2.7-11.3-9-11.7-13.6-.4-4.9 3.9-10.6 7.2-13.6 6.1-5.3 13.3-9.3 20.3-13.3a451 451 0 0133.4-17 57306.4 57306.4 0 009.1 23.9c.7 1.6 1.3 5.1 2.5 6.4 1.5 1.5 5.2.7 7.5.7h19.1c2.4 0 8 1 10.1 0 1.8-.9 3.6-4.5 4.8-6l38-46.3z" fill="#123456"/><g fill="#000"><path d="M929.3 348.7c-2.1-3-4.5-4-5.4.2-1 4.7 0 10.6-.3 15.5-1 11.7-1.4 23.5-2.7 35.3-2.4 21.5-3.8 44.4-12 64.7-3.9 9.7-8.3 19.3-13.6 28.3-5.4 9-10.6 18.8-17.2 27-12.3 15.2-23.2 32-38.2 44.7-3.7 3-7 6.6-10.9 9.4-3.3 2.3-7 4.1-10.2 6.4-1.6 1.2-3.1 2-4.8 3.1-1.5 1-2.5 2.5-4.2 3.2-1.6.7-3.7.5-5.5 1.3-2.1.8-4 2.2-6 3.1-4.2 1.8-8.8 2.1-13 3.9-4 1.7-7.7 2.8-12 4-4.8 1.3-9.7 2-14.6 3.2a40 40 0 00-6.3 2c-2.6 1.1-2.9 1-5.6.6-4.7-.7-9.5 1.5-14.2 1.3-2.4 0-4.5-.7-7-.4-2.6.3-4.4.7-7.1.5a232 232 0 00-14.4-.7c-1.8 0-3.5-.6-5.4-.5-2.8.1-3.6-.4-6.3-1-2-.5-4.2.1-6.2 0-2.3-.1-4.5-.9-6.8-1a172.4 172.4 0 01-44-9.3 71.1 71.1 0 01-12.4-6.2c-4-2.3-8.4-2.7-12-5.4-7.5-5.5-16.1-10-23.2-16-7.2-6.2-15.8-10.7-23-16.8-3.2-2.8-6.8-5.1-9.9-8-3.4-3.2-6.2-6.7-9.8-9.7-7.5-6.2-13.4-14.5-21-20.9-7.7-6.6-14.4-14-21.5-21.5a62 62 0 00-9.2-8c-4-2.9-1.5-5.6-.1-9.5a128 128 0 0115.4-28.7c6.3-9.2 12.5-18.3 19.5-26.9 5.8-7.3 12.1-14 18.4-20.8 2.6-2.8 5.1-5.8 8-8.5 2-2 2.3-2 5-1.3 2.4.6 4.8.8 7 2 4.5 2 8.3 5 13.2 6.2 5.2 1.2 9.7 3 14.8 4.6 9.4 2.8 19.6 6 28 11.3 8.8 5.6 15.1 14.5 21.4 22.6 6.6 8.5 11.1 18.3 16.4 27.7 5.4 9.6 10.5 19.5 16.4 28.9 10.8 17.2 24.9 32.2 45.1 37.2 8.9 2.2 20 5 28.6.6 3.7-1.9 7-4.7 10.7-6.6 4.4-2.4 8.8-4.4 12.5-7.7 7.2-6.4 15.1-12.2 22.1-19 6.5-6.3 12-13.4 18.1-20.2 3-3.3 5.5-7.1 8-10.8 1.3-1.9 2.1-4 3.4-5.8 1.1-1.7 2.7-2.8 4-4.3 2.4-3.2 4.3-7.1 6.6-10.5 2.8-4.2 5.1-8.7 7-13.5 3.8-10 5.2-19.5 6-30 3.2 2.5 11.5 2.7 13.5-1.2 3.1-6.2-3.6-7.2-7.2-10-2.4-1.8-4-4.5-5.7-7-1.2-1.6-4.6-4.3-5-6.3-.7-3 2.7-6.1 4.2-8.4 2.2-3.2 4.2-6.5 6.3-9.7a289.2 289.2 0 0126.9-35.6 93 93 0 0114.6-13.9c4.8-3.4 9.5-10 15.5-11.2-3.4 5.2-12.6 16-6.2 22.5 5.3 5.3 15.8-6.6 22.3-5.7-3.7 5.3-10 14-5.3 20.7 4.1 5.8 11.7-3.7 16.7-3.7l-10.2 20.2M488 428.1c-3.2-.2-6.8 1.8-6.4 5.3.4 3.5 4.4 3.7 4.8 6.8.4 2.8-3 8.3-4 11.1-.6 1.7-1.7 8.4-3.7 9.2-2.7 1-6.8-4.4-9.5-2-2 2 .4 6.4 1.6 8 2 2.7 6.1 3 7.2 5.9 1 2.7 0 8 0 11-3.5-2-5.8-2.8-7.3-6.5-1.5-3.6-2-2.9-5.5-4.8-2.8-1.7-4.4-4.8-6.4-7.3-2-2.7-5-5.5-5.7-9 5 0 9.9.2 13-4.5 2.6-4.2-.2-7.3-4.7-6.7-2.6.3-9.4 4.5-11.7 3.1-1.3-.8-1.5-3.4-2-4.7l-3.2-9.5c-1-3-1.8-6-2.6-9.1-.4-1.7-2.4-6.2-1.4-7.7 1.9-3 6.8-.2 7-5.7.3-5.8-5.4-5.8-9.3-5.6-5.1.4-7.7-6.6-10.2-10.3 6.7 1.1 13.3 3 20.1 4 5.5.8 11-1.7 13.3 4.6.8 2.3 3.6 9.6 7.4 5.9 2.2-2.2-.5-7.2-1.5-9.5 10.9-2 22-1.6 33-4 5.2-1.3 10-3.6 15.1-5.2 4-1.2 8.6-4 12.7-4.3-1 3.2-5 5.8-7.3 8.2L511 406c-1.7-2.8-4-8-7.5-9-5.2-1.4-5.5 5.5-4.3 8.8.8 2.2 2.2 3.5 3.8 5.3 2.6 2.9.8 3.9-1.6 6.9-2 2.5-3.9 5-5.8 7.7-3 4-3.4 2.7-7.7 2.4m-56.5 39.2c-10-1.7-20.8-2-31-2.6-9.6-.6-19.4-.7-29-.5-9.5.3-19.2-.6-28.7.5-8.8 1.1-17.7-1-26.7-1.4-3.8-.1-7.6.9-11.4.4-2-.2-3.6-.9-5.5-.8-2.8 0-5.5.8-8.2.8-10 0-21.1-2.5-31 .6-4.2 1.4-8.2.8-12.6 1.8-4.2 1-8.2 2.5-12.4 3.6-8.5 2.2-16.4 5-24.5 8.7-15.8 7-31.2 19-38.3 35.1a54 54 0 00-4.4 29.8c1.5 9.6 2.8 20 8 28.4 9.6 15.6 20 31.8 36 41.4 8 4.7 15.1 10.9 23.1 15.5 3.5 2 7.6 2.6 11 4.7l9 6c3.4 2.3 5.8 4.7 4.5 9-1.3 4.4-4.6 8.8-7.3 12.4-6.5 8.8-13 17.7-19.7 26.3-3.6 4.5-8 8-12.5 11.7-3 2.3-7.7 4.6-10 7.7-1.4 2-.3 3.3-1.1 5.3-.8 1.8-2.7 2.4-4.3 3.3-5.3 3-10.4 3.7-16.1 5.4 2.2-5.6 5-11.5 4.1-17.7-.7-5.1-3.3-7.3-8-4.6-4.9 2.8-9.5 6.2-14.5 9-5 2.7-11.2 4-16.6 5.5 2.4-5.1 5.4-10.5 4-16.4-1.2-5.4-4.1-6.5-8.5-3.5a48.3 48.3 0 01-35.7 6.7c1.7-5.9 7.8-10.8 11.7-15.2a232 232 0 0114.6-15.1c4.8-4.6 9.3-9 13.7-14 .7-.8 1.2-1.9 2.2-2.3 1.1-.5 2.7.4 3.5-.3 1.6-1.5-.6-3.5-1.6-4.8 3-.7 6.6 2.8 9.4.8 4.5-3.2.2-10.6-2.4-13.3-7.6-7.5-16.5-13.2-23.4-21.4-7.5-9-16-17-23.2-26.2-6.6-8.3-14-17-18-27a65.1 65.1 0 01-5.4-32.6c1.3-11.8 3.9-23.6 6.3-35.2 2-9.9 7.8-19.3 13.6-27.4 5.5-7.8 10.9-17 17.5-23.8 3.3-3.3 7.6-5.5 11-8.7a45 45 0 0111.5-8.6c4.7-2.4 9.3-5.1 14-7.6 4.7-2.4 9.2-4.3 14-6.4 4-1.8 8-2.5 12.2-4.1 5.3-2.1 10.8-3.9 16.5-5 9.8-2.2 19.4-4.8 29.1-6.8 4.6-1 9.5-1 14-2 4.9-1.1 9.5-1.3 14.4-2.1 4.5-.7 8.9-.7 13.4-1.3 2.6-.4 5.3 0 8-.3 3.2-.4 5.5-1 8.8-.9 4.6.3 8.2-2.2 12.5-1.6 4.1.7 8-.5 12.2-1.2 2.2-.3 3.8.3 6 .4 3 0 6-.6 8.9-.6 6 0 12.1-.4 18.2-.3 12 .3 24 .3 36 2 3 .5 5.8 1.7 8.6 2 2.4.3 3.5-.2 5.9.9 4.6 2 7.8 7.7 10.2 12 6.1 11 8 24 11.6 35.8 3.8 12.3 8.7 22.6 15.8 33.2-4.4-.8-8.6-2.4-13-3.1m-49-134c-4-8.4-6.2-17.5-9.6-26 3.6-.6 7.5.8 11.2 1a57 57 0 0036-11.6c3.1-2.7 5.5-6 7-9.8 1-2.3 1.6-4.7 2-7.2.2-.6.1-3.6.7-4 1.1-1 6.8-1.3 8.4-1.1 4.4.3 8.7.9 13.2 1.2 3.4.2 7-.3 8.3 3.3 1.1 3.2.6 7 1.7 10.3 2.3 7.2 8 14.6 15 17.6 7.2 3 18.2 3.5 25.6 2.5 9.1-1.2 15.7-7 22.5-12.5 0 17.9-.6 35.4 4.7 52.7 1.2 4 2.6 7.8 4.4 11.5.9 1.6 5 6.4 4.5 8.2-.4 1.9-8 3.9-9.9 4.5l-13.2 4.4a107 107 0 01-24.7 5.1c-8 .6-16 .4-24 .6-8 .2-15.1-.8-23-2.6-8.9-2-18.2-3.1-27-5.5-7.6-2-12.6-10.3-17.3-16.2-6.5-8.2-11.9-17-16.4-26.4M371 288.6c-1.5 1.2-8-1.5-9.3-2.5-1.8-1.4-2.2-6.6.4-8 2.6-1.2 10.9 3 7-4.3-.8-1.7-2-1.6-1.3-3.7.5-1.1 3.4-3 4.4-3.3 4.4-1.7 5 3.1 8.7 4.7 3.8 1.6 8.2.5 12.1 2 1.5.6 2.3 1.8 3.5.2.7-.8.4-2.9.1-3.8-1.1-4.3-7.1-7-10.4-9.6 8.3-4.2 16.1-8.2 23.5-14 .5 1.5 2.1 3.9 1 5.5-.5.9-3.6 2-4.6 2.8-2.9 2.7-6.8 8.6-3.7 12.6 3.7 4.8 12.5-3.6 15-6.4 4.6 4.5 4.3 15 .8 19.8-.6-4-8.2-10.4-11.6-5.6-4.8 6.7 7.4 8 11 7.1-2 3.2-5.8 8.4-9.9 9-3.8.5-5.6-4.6-8-7-1.9-2.2-6.2-7.3-8.3-3-2 4.3 2.5 9.2 4.7 12.4-3 .4-6 1.8-9.2 1.5-1.5-.2-5.1-.4-6.4-.8-4-1.5-3-7.5-2-10.8 1-3.2 2-8.9-3.9-6.5-6.2 2.5-.3 9-3.6 11.7m48.8-55.7a69 69 0 006.3-13.8c1.6-4.7 1.5-8.6 6.2-11 8.4-4.1 18.3-8.8 24.5-16.1 2.4-2.9 3.5-7.3 7-9 4.1-2.2 9.8-3.3 14.2-4.9 5.3-1.9 10.8-2.8 16-5 3.6-1.5 8.6-4.4 12.5-4.7-.2 3.8-1 7.8-.4 11.7.4 2.6 3.7 6.1 3.4 8.3-.2 1-1.7 1.4-2.3 2.3-.7 1-.8 2.5-1 3.7-.9 4-1.4 8-2.8 11.8-5.8 16.2-21.5 27.1-32 40a107 107 0 00-7.8 10.9c-1.4 2.4-2.8 6.7-5.6 7.8-3.4 1.3-10-.8-13.6-1-3.4-.2-6.2 1-9.5.8-3.5-.2-6 1.3-7.7-2.3-1.3-2.9-1.4-6.5-2.4-9.5-2.1-6.4-9.2-13-5-20m25.5-82.4c-4.9.2-9.3-2-13.3-4.5a36.9 36.9 0 0125-.4c-3.3 3-7.4 4.8-11.7 5M426 128.2a52 52 0 0113.4-21.4c1 4.6 4.4 3.7 7.7 5.3 2.7 1.3 3 4 6.3 4.7 2.4.6 6.5 1 8.4-1 3.1-3.3-.5-5.3-3-6.7 1.9-2.7 4-5.2 6.2-7.7 1.5-1.8 4.4-4.2 4.5-6.7.1-3.9-3-2.2-5.3-1-1 .5-2.6 1.9-3.8 2-1.2.3-2.4-.5-3.4-.2-2.6.7-7.4 9.3-11.1 5.3-1.6-1.6 1.7-6.8 2.7-8.2 3.2-4.6 9.4-3 14.4-3.4 5.5-.4 11-1.5 16.5-1.8 6-.4 8.8 4.7 13.1 8.6 4 3.6 10.3 7.6 15.5 9.3 5 1.6 7.4.4 7.6 6.7.5 13.8 15.8 6.7 24.6 8 5.2.9 6 4 1.7 7a16.6 16.6 0 01-7.3 2.7c-3.3.5-4.6 1.3-7.4 3.1a48.4 48.4 0 01-35.3 6.7c-6-1.6-12-4.5-17-8.2-4.3-3-8.2-6.9-13.2-9-6-2.5-11.7-.5-17.9-.6-7.8 0-12 1.4-18 6.5m89 44.8c.8-2.5 6-15.8 9.9-14.1 1 .4 2.8 5.7 3.5 6.7 2.3 3 5.6 5.4 8.9 7.5-5.5 4.5-13.1 5.6-19.2 9-6.6 3.8-4.4-5.5-3.1-9.1m-19.7 119.1l-9.4-.7c-2.8-.2-6-1.3-8.7-1.3-2.3 0-3.9 1.6-6.1.2-1.9-1.3-2.5-4.4-3.4-6.2 4.4.2 13.1 3.9 16.7-.2 2.5-2.8.3-7-2.5-8.8-5-3.1-9-.4-14 1.3 0-6 3.1-8.9 6.9-13 4-4.4 8.3-8.9 11.7-13.7 3 2.4 10 8.4 13.5 3.6 3.6-4.7-3.5-9-6.8-10.8l8.3-11.5c1 5.5.7 11 3 16.2 2.2 4.8 5.1 9.7 9.1 13.1-3.7 2.3-7.5 8.7-3.5 12.4 2.2 2.1 4.2 1.3 6.4-.1 3-2 3.8-3.1 7.2-1.4 1.5.7 4 1.8 3.6 3.6-.3 1.5-4.5 4-5.6 5.1-5 4.8-10.7 8.4-16.5 12.1-.9-3-1.8-12-6.3-11.5-4.4.4-3.6 8.6-3.6 11.6m74.4-118c34.2-8.9 68-18.2 102.8-24.8 8.4-1.5 17-2.7 25.4-4.3 8.3-1.6 16.8-2.1 25-3.7 16.8-3.1 33.5-5.3 50.5-6.8 16.6-1.5 32.9-2 49.4.7 6.8 1.2 14.1.7 20.8 2.5 3.3 1 7.1 1.7 10.2 3.2 3.5 1.8 6.5 4.7 9.8 6.8a47 47 0 0115 15.3c4.5 7 4.9 15.5 5 23.7.2 8.2-2 16.1-4.4 23.8-2.4 8-3.5 16.7-7.1 24.2-.9 1.8-4.3 8.7-7.2 7.8-1.9-.6-1.7-3.6-1.8-5.2-.4-5-1-17.2-9.3-11.9-3.3 2-5.7 6-8.1 8.9l-9 10.7c-5.3 6.2-10.5 15-18 18.7.5-3.7 9.7-40.7-1.8-36.5-2.1.8-4 3.7-5.3 5.4-2.6 3.1-5 6.4-7.5 9.6L791.4 260c-3.9 5.4-8.3 10.6-13 15.3-2.8 2.6-13.4 13-14.3 3.4-.2-2 .7-4.2 1-6.1.8-3.8 1.2-7.7 2-11.5 1.3-7.8 3.2-15.5 5.2-23.2 2-7.5 3.4-15 3.5-22.7 0-7.7.3-16-3.8-22.9-3.1-5-8.4-10.8-13.7-13.5-7-3.6-14.1-3.4-21.8-4.5-15.3-2.1-31.4 0-46.6 2.4-14.2 2.2-27.7 6.5-41.6 9.8-15.5 3.8-30.4 9.6-45.4 14.5a938 938 0 00-49.3 17.4c.8-2.8.7-5.7 1.3-8.5.5-2.2 1.7-3.1 2.7-5 2-4 1-10-4.4-9.9-4.5.1-9.7 3.8-13.3 6.2-3.7 2.4-11.6 6-13.8 10.2-6 11 17.4 5.7 13.3 14.6-1.1 2.5-2.6 2.3-2.3 5.6.3 3.6.2 5.3-1 8.8-2.2 6.4-3.2 13-5.4 19.3-6.2-7.4-17.4-15.9-18.7-26-1.4-10.9 4-21.2 6.6-31.4 1-4 .2-9.5 1.9-13.3 1.8-4.2 9.1-4.1 13-5 12.2-2.5 24.2-6.5 36.2-9.6m381.1 146.9c-.6-4.6-4.2-7.6-8.5-8.5-4.2-.9-2.1-1.4-2-6 .1-4-.7-9-4.4-11.3-3.4-2-7.8-1.3-11.6-1.5 2.6-7.6 5.2-19.3-6.4-17.2-9.4 1.6-16.4 8-24 13.5-7.8 5.6-14.5 11-21 18-6.6 7-12.8 14.5-18.4 22.4-5.5 7.9-10.3 16.2-14.2 25-3.6 8.4-6.9 16.5-5 25.7 1 4.8 3.3 9.2 4 14 .9 5-.2 10-1.6 14.7-2.6 9-7.3 17-12.5 24.9-4.5 6.5-8.4 13-13.8 18.9-6.8 7.2-13.4 14.5-20.5 21.5a152.5 152.5 0 01-18.8 15.6c-3.9 2.7-8.6 4-12.8 6-4 2-7.3 4-11.6 5.3-4.4 1.2-9 3.3-13.5 3.2-4.6-.1-9.6-2.3-14-3.7a44.7 44.7 0 01-22.7-12.6c-13.8-15.3-23-34.7-33.2-52.5-9.4-16.3-20.4-34.4-35.5-46-7.3-5.5-15.8-9.5-24.2-13-4-1.7-8.6-2.3-12.8-3.5-3.8-1.1-7.9-1-11.5-2.6-4.3-1.8-8.3-5-13-5.5-1.6-.2-2.9.4-4.3-.1-1.8-.6-3.5-2.6-5.4-3.4-8.7-3.9-13.7-7.7-17.7-16.5a64.1 64.1 0 01-4.7-43.8c.9-4.6 1-9.5 2-14 .5-1.9 1.5-3.7 1.9-5.6.3-1.8 0-4 .8-5.6.6-1.5 1.8-2 2.6-3.3 1.5-2.2.4-3.6.1-6-.4-4.2 1.5-8.8 2.3-13 1-5.2 2.6-10.2 3.8-15.3.7-3.3.7-6.9 3.5-9 3.1-2.3 9-2.5 12.7-3.5l30.3-8c4.8-1.3 9.5-2.8 14.1-4.7 2.7-1 3.8-.7 6.5-1 2.1-.2 3.8-1.4 5.8-2 4-1 6.4 1.1 10 2.7 3.9 1.9 9 2.7 13.4 3.3 8.8 1.3 19.6-.2 28.4-1.7a83 83 0 0028.5-9.7c1.7-1 3-2.2 5-1.8 1.5.4 2.8 2.5 4 3.4 4 2.8 8.7 3.5 13.1 1.7 3.6-1.5 6-4.2 7.7-7.7 1.2-2.7 1.7-6.8 4.7-8 3-1.3 9.4.2 12.7.8 4 .8 7.3 3.2 10.4 6 7 6 7.7 14.1 6.4 22.8-3.2 20.3-11.4 39.8-11 60.8.3 8 3.6 15.4 13.1 14.5 4.7-.5 7.5-3.8 11-6.6 4-3 7.4-6.1 10.7-9.9 7-7.8 13-16.4 19.3-24.8.7 7.6-3.2 15.2 1.7 22.2 4 5.8 9.6 1.8 13.4-2 5.7-5.7 11-12 16-18.2 4.2-5 8.4-13.2 14-16.5-.3 6.3 4 17 11.9 14.3 7.3-2.7 12.1-13 15.3-19.4l5.4-11.8c2-4.5 2.4-8.3 3.4-13 1.9-9.2 3.5-18.2 5-27.5 1.4-9.6-.2-18-3.5-27-1.4-3.8-1.7-7.4-4-10.8-2.6-3.5-5.9-7-9-10-6.7-6.1-15.4-8.3-23.4-12-4.5-2-8.2-2.2-12.9-2.8-4.4-.6-8.7-1.8-13.2-2-11.5-.7-23-3-34.5-2.2l-16.2.8c-4.3.2-10.4 1.4-14.5.2 2.1-4.5 6.6-8.2 6.5-13.6-.2-5.2-4.5-7.8-9-9.1-6-1.8-12.7-2.9-19-2.6-5.1.2-12.4 2.3-17.3-.5 3.3-4.4 6.8-9 7.6-14.6 1-7.4-5-11.3-11-14-6.3-2.8-13.8-3.6-20.5-4.6a76 76 0 00-20.4-.8c-13.7 1.7-27.5 3.4-41.2 5.3-13 1.8-27.3 5-40.1 1.8-13.6-3.5-8.8-15.3-14.5-25-6.3-10.9-22-11.1-32.9-10.3-13.2.9-28.8 6.4-40.4 13-2.4 1.3-4.9 2.3-7.2 3.7-2.3 1.4-4.1 3.5-6.8 4.3-6.4 1.9-13.9-1.9-20.4-2a60 60 0 00-40.6 16.5c-6.4 6.3-15 25.6-4 32.1-4.7 5-8.2 11-10.8 17.3a116 116 0 00-3.5 9.6c-.8 2.3-1.2 6.1-2.9 8-1.7 1.8-4 3-5.8 5a57.9 57.9 0 00-6.2 8.3c-3 4.9-5.4 10.7-6.2 16.4-.7 5.2.5 10.4 4.7 14 2.4 2 5.5 3 8.6 3.3 3.4.2 6.9-1.5 10.2-1.1 2.7.3 2.4 1.7 4.1 3.5 2 2.1 5 3.2 7.7 3.8 2.6.6 5.2.7 7.8.1 3.3-.7 6-3.1 9.5-3.4-5 4.7-10.5 9-16.2 12.8a50.7 50.7 0 01-19.3 7c-14.2 3.1-27.8 7.7-42.3 9.3-7 .8-13.7 2.3-20.7 2.9-8.5.6-17 .6-25.6.5-6.6-.1-13.3 0-19.8-1.3-7-1.3-14.3-.8-21.4-.8-7.4 0-14.7-.1-22-.8-6.9-.7-13.7-4.4-20.3-6.5a116.4 116.4 0 01-37.3-20.2c-5.4-4.3-11.3-8.1-16-13.1-4.4-4.6-8.5-10-12.4-15-8.4-10.8-10.9-24.7-17.5-36.4-3.5-6.1-11-22-18.3-10.5-4.2 6.6-4.9 15-6.5 22.6-3.4-6.2-6.7-12.5-10.3-18.6-1.6-2.9-4.5-8-8.6-6.6-4 1.3-5.8 9-6.6 12.6-1.7 6.7-1.8 13.8-4.7 20.2-2.3-4.7-4-10.6-9.2-13-6.4-2.8-12.7.2-16 6-7.9 14.4-6.5 33-3.8 48.5 5.2 30.3 19.6 60 42.7 80.7 5.5 5 12 8.8 18 13 2.4 1.7 4.6 3.2 7.5 4 3.7.7 5.4 3 8.9 4.5 13 5.8 27.8 6.3 41.3 10.8 3 1 6.3.4 9.4 1.5 3.5 1.1 5.8 1.3 9.3 1.9 7.2 1.1 15 3.1 22.3 3.2 7.4.2 14.6 1.1 22 1.5 7.8.5 15 0 22.6-1 16.6-2 34.7-2.4 50-9.5a47 47 0 0015.4-11.3c1.3-1.3 4.8-5 3.4-7.2-1.5-2.4-4.8-.1-6.7.7-15.3 6.7-32 8.5-48.5 9.9-7.7.6-15.5 1.7-23.2 2-4 0-7.5-.4-11.3-1.2-4.4-.9-8.9-.5-13.3-1-7.7-.9-15.4-2.3-23-3.2-6.5-.8-13.7.2-19.6-2.7-5.4-2.8-12-3.2-17.8-5.1-7-2.3-14-3.5-20.9-6.3-3.3-1.4-6.7-2-10.1-3.2-2.8-.9-5-3-7.8-4.3a62.1 62.1 0 01-17.3-13.2 159.7 159.7 0 01-27.7-38.3c-4-7.7-6.3-17.2-9-25.5-2.6-7.7-4.9-16.3-6.2-24.3-.5-2.8-3.9-17.2.8-17.3 6.5-.2 10.6 11.3 12.4 15.8 2.7 6.8 6.1 16.1 11.7 21.1 5.3 4.7 8.3-4.2 8.3-8.3-.1-3-1.2-4.3-2.9-6.7-2.3-3.4-3-6-3.2-10.2-.5-9.5 1.3-19 3-28.3 3.8 6.9 8 13.5 10.7 21 1.4 3.9 3.5 15.3 9.8 13.4 4-1.1 5.5-7 6-10.4 1.3-7.8.5-15.6 2.6-23.3 2.8 1.3 4 6.6 5.3 9.1 2.4 5.1 4.1 10.2 5.8 15.5 3.2 10.2 9.4 18.8 15.6 27.4 6.2 8.7 13.7 16.2 22.3 22.6a117 117 0 0028 17c5 1.9 10.3 3.1 15.4 5.1l6.8 2.6c3.1 1 6.2 1 9.3 1.9 5 1.3 9 2.5 14.3 2.6 5 .2 10.1 0 15.1.5 10.4.8 21.2 1 31.6 1 11.7 0 23.6.2 35.1-2.1 11.8-2.4 23.7-4 35.3-7 13.3-3.2 26.4-7.2 39.6-10.8a69.4 69.4 0 01-26.6 26.5c-5.2 2.7-10.6 5.8-16 8-6 2.3-12 4-17.5 7.1-6.1 3.5-8.2 6.8-11.1 13-3 6.1-5 12-4.2 19 .6 5.4 2.9 11.2 6.8 15 2 2 4.6 3.4 7.3 4.2 3 .9 4.2.3 5 3.4.5 2-.1 5 .2 7.3.5 3 1.3 6.2 2 9.2 1.9 7 3.9 14 7 20.5 2.6 5.3 6 10.3 9.5 15 1.4 1.8 4 4 4.8 6.1.6 1.5-.2 5.3-2 6.2-.9.4-5.6-1.5-6.3-1.7-2.7-.6-5.3-1.2-8-2.1-6.3-2.3-13.8-2.4-20.6-3.1-5.9-.7-11.9-1.5-17.9-1.2-2.7 0-5.5 1-8.2 1.1-2.9.1-5.5-.6-8.4-.4-2.7.2-3.7.1-6.3 1-2.8.8-4-.1-6.8-.4-3.2-.3-6.1 1.2-9.3 1.3-3 0-6-.3-9-.2-5.7.2-11.5 1.4-17 1.3-3.2 0-5.4.4-8.5 1-3.6.8-7.2-.4-10.7.6-4.8 1.4-10 1.4-15 2.5-5.6 1.1-11 2.9-16.6 3.7-12 1.8-24 5.6-35.5 9.4-49.6 16.4-90.6 60.6-99.9 112.6-2.7 15-6.5 32-4.7 47.3 1.6 14.6 7.3 29.6 15 42a182.5 182.5 0 0026.9 34c5 5 9.8 10.4 15.4 14.8 2.3 1.9 4.4 4.2 6.8 6 2.9 2 6.5 3 9.7 4.3a164.3 164.3 0 00-32.9 24.6c-8.4 8.2-19.4 20-18.2 32.7 1.7 17.7 25.8 12 37.2 9.6 0 8.4 0 18.6 11.5 17.6 4.7-.4 10.5-2.4 14.6-4.8 3.8-2.1 6.2-3 10.5-4 0 4-1 10 2.3 13.1 3.6 3.4 10.3 3.2 14.6 1.9 10-3 20.9-6.2 27.4-15 3.2-4.4 6.1-9.2 8-14.2 1-2.4 1-5.5 2.5-7.6 1.5-1.9 4.2-3.1 6-4.7 4-3.5 7.2-7.6 10.5-11.5 4-4.6 8.6-9 12.3-13.9 6.7-9 11.4-20.4 9-31.7a30.3 30.3 0 00-21.2-22.8c-4.9-1.2-8-5.1-11.8-8-4.1-3.2-8.8-6.3-13.2-9a161 161 0 01-14.2-9.7c-4.4-3.4-7.8-8.5-11.3-12.8-7.2-9.1-15.4-18.6-17.8-30.2-1-4.7-2.3-9.8-.8-14.4 1.6-5 5.1-8.9 8.3-12.8 7-8.6 17-13.7 27-18 5.4-2.3 10.8-4.1 16.3-5.9 2-.6 3.5-1.9 5.5-2.4 2.8-.7 5.9-1 8.8-1.6 5.5-1.2 10.3-2.6 16-2.7 6.4 0 12.9-.5 19.3-1.2 5.6-.6 10.5.3 16 .4 2.4 0 4.8-.4 7.2-.3 3 .2 5.7 1 8.6 1 4.9.1 9.4.6 14.1 0 2.4-.4 4.4.3 6.7.1.6 0 1.2-.8 1.7-.8 1.1 0 1.7.5 2.8.6 11.5 1.4 23-1 34.4-.5 11.2.5 22.9-.2 34-.8 11.2-.7 23.8-1.8 34.1-6.3 3.9-1.7 6.3-5.8 10-3 4.7 3.6 8.4 8 13.6 11 4.4 2.7 9.9 3.5 14.8 4.8 2.3.5 5.1 1.8 7.6 1.4 3-.5 2.7-2 4.9 1 3.2 4.3 5.2 9.4 8.6 13.7 3.7 4.5 7.7 9 11.9 13 7.7 7.5 15 15.4 22.6 23 4 4 6.4 9 10.5 12.7 3.9 3.5 7.6 7.3 11.5 10.7 9 7.8 19 14.7 28.6 22 4.6 3.4 8.6 7.4 13.7 10.3 4.8 2.8 10 5.3 14.7 8.4a129 129 0 0030.2 13.2c5.6 1.8 11.2 3.4 17 4.4 5.4 1 10.4 1.3 15.7 2 4.8.5 9.8.7 14.6 1.4 2.9.4 3.6 0 6.1-.5 2.3-.3 4 .9 6.2 1 10.6.5 21.5 1.4 32.2.5 5.6-.5 10.5-.2 15.9-2 5.3-1.7 11-1.2 16.3-3.1 10.4-3.7 21.2-5.7 31.3-10.4 4.2-2 9.7-3.4 13.4-6.2 1.5-1.2 2.5-2.6 4.1-3.5 2-1.3 5-2.6 7.2-3.5 4.1-1.8 7-5 10.6-7.6 4.6-3.4 9.3-6.7 13.3-10.8 7.6-7.6 14.8-15.1 21.4-23.7a446 446 0 0039.1-62 191 191 0 0019.7-74.7l3-39.3c.3-6 .7-12.2.4-18.3 0-2.6-1-6.1 0-8.6.9-2.5 3.4-4.3 5-6.2 6.3-7.2 16.2-20 14.8-30.1"/><path d="M461.5 421.4c-3.1-1.8 1.3-6.8-2.2-8-3.2-1.2-5 4.3-5.4 6.4-.7 4.5 1 8.7 5 10.8 2 1.2 4.4 1.8 6.3 3.3 2 1.6 3 3.8 5.3 5.2 3.8-8-2.6-14.2-9-17.7m22.8-15.4c-6 1.5-7 17.8-.5 17.5 3.8-.1 2.7-7.8 3.3-10.4.6-2.5 1.7-8-2.8-7m-3.4-286.4c7.6 5.1 20-7.9 16.1-15.7-3 1.9-7.6 7.4-11.5 7-6-.6.2-6.4-.6-9.2-1.6-5.3-6 3.6-6.4 5.2-1.2 3.9-1.5 10.2 2.4 12.7m19.3 154.4c0-3-1-6-3.2-8.2-2.2-2.1-4.8-2.6-6.4-5.3-1.1-1.7-1.1-3.4-3.3-1.7-1.5 1.2-1.9 4.3-1.9 6 0 2.5 1 4.9 2.7 6.8 2 2.1 4.6 2.5 6.6 4.2 1.3 1 1.6 3.7 3.6 2.8 1.2-.5 1.6-3.4 2-4.6"/></g></g></svg>