<svg xmlns="http://www.w3.org/2000/svg" viewBox="0 0 1024 768"><g fill="#FFFFFF00" fill-rule="evenodd"><path d="M-54-30H970v768H-54z"/><path d="M231.2 425.1c4.7-3.2 14.2-14.6 19.2-17.2 11.1-5.9 60.7-17.4 62.3-18 2.5-1 18.4-4.7 27.7-7 21.8-5.3 100-40 120.6-48.9 2.6 7 24.3 37.5 20.6 40.6a312.3 312.3 0 01-48.5 30.5c-11.5 6-23.6 11-36 15-13.9 4.6-23.4 9.5-37.3 14.2-13.7 4.6 2.6 19 9.7 22 7.8 3.3 20 5 28 8-14 22-26 48.7-28.4 75-.5 6.4-5.4 12.2-13.3 10.3-4-1-41.5-6-47.6-7.3-40.8-9.3-114-58-95.2-108 4.3 2 14.2-6.5 18.2-9.2z" fill="#123456"/><g fill="#000"><path d="M254 160c3-.3 11-6.3 6.8-9.4-4.1-3.1-7.1 7.3-6.8 9.4M95.2 183.4c.8-.2.5-4.5-.8-5.1-4-1.8-4.3 4.8-4.4 6.6 0 2.2-.4 8.5 4.5 6.8 2.7-1 1-6.7.7-8.3M329 203.7c-.1 4 7.8 11.4 10.7 7 2.5-3.9-10.5-14.7-10.7-7M51 116c2.3 5.9 13.5-2 14-6.3.8-8.8-14.1.5-14 6.3m94 25.1c5.2-.4 12.2-7.1 17.2-9.6 3.4-1.7 12.8-3.7 13.8-7.5.8-3.3-15 3.8-16.3 4.4-6.2 3-11.8 6.2-14.7 12.7m393.9-46c4.2-3.2 9.3-5.3 14.6-5.2 2.7 0 8.3 1.8 8.5-2.9.3-7.5-23.3 1.7-27 3.2l3.9 4.9M278 388.4c-3-5.1-8.6-8-12.7-12.4 1.5 7.1-2 13.5-4.3 20l17-7.6M810.8 497a349 349 0 015.4-16.9c2.2-6.2 3.3-6.7-2-11.1L801 494c3.1 1.2 6.4 2.5 9.8 3M356 87.4c-5.8-6.6-33-7-29.7 7.5 1.2 5 7.9-.3 12-1.5 4.2-1.2 16-1.3 17.7-6m-1 92.8c-.7-1.7-2.1-7.7-4.2-8.2-2-.4-10 5.9-11.6 6.9-7.5 4.8-14.9 10-22.2 15.1 2.8 0 5.4-1 8.2-1 3.3 0 5.7 1.3 8.9.5 7-1.6 15-9.3 20.9-13.3m7.5-149.6c.7-3 34.8 6 38.9 7.6 2.2 1 13.7 7 11.3-2.1-1.5-5.2-14.8-9-19-10.5a93.4 93.4 0 00-33.9-5.5c-2.2.1-19.2 1-12 7.9 2.4 2.4 11.1 1.6 14.7 2.6m7.5 412.1c6.4 3.1 12.8 5.5 19.5 8 3 1 7.5 3.9 10.8 3.2 2.6-.6 3.5-4.7 4.9-7.4 5.1-10 11.2-18 18.8-26.1-3.5-2.6-21.4 8.7-25.8 10.4-4.4 1.7-8.6 3.4-13 5.4-4 1.8-12 3.5-15.2 6.5M482.5 358c9.2-4.2 18-11.6 25.6-18.3 8.7-7.6 16.5-15.6 22.9-25.5-3.8.2-12.3 12.6-12.4-.9 0-6.8 9.3-13.6 12.3-20-7.3-4-14 20.4-22.3 14.5-8-5.7 4.7-25.4 7-31.6-4.6-3.1-31.4 32-35.3 36.4-2.4 2.8-8.2 6.5-9.5 9.8-.9 2-1 8.1-.6 10 .8 3.7 5 8.2 6.8 11.7 2.4 4.4 4.4 9 5.5 13.9m382.7 126.4c-8-11.3.2-16.3 6.7-25.7 5.2-7.5 10-15.7 13.3-24.1 8.3-21 15.7-40.4 19.8-62.6-5.6 2.6-9.1 12.3-12 17.4-3.7 7-7 14.2-11.2 20.9-7.9 12.5-15.6 25.8-25.5 36.7-4.6 5-8.4 10.4-13.6 14.9-2.4 2-7 3.7-8.7 6.2-1.7 2.4.2 4-.5 6.8-.6 2.9-3.6 6-4.8 8.8-1.7 3.7-3.3 7.4-5.1 11-2 4-2.6 6-3.2 10-.6 4.2 1.3 4.6-2.4 8.5l20 8.8 6.8 3 1.4-2.7c1.9-1.8 3.5-6.1 4.6-8.5a596 596 0 0114.4-29.4m-644.9-47.5c-19 50 47.7 92 88.7 101.3 5.7 1.3 11.2 3 16.9 4.3 6.1 1.5 11.6 1.2 17.8 1.9 4.9.5 7.2 4.2 11.8 5.3 7.7 1.7 7.3-4 7.8-10.3 2.4-26.3 15.8-51.7 30-73.7-6.5-2.3-13-4.8-19.3-7.4-5.5-2.1-14-8.3-19.8-8.6-4.4-.2-11 3.5-15.3 5.1-7 2.8-14.1 5-21.5 7-12.8 3.2-27.1 7.6-40.4 8-3.9 0-14.4 1.8-17.2-.6-5.2-4.5 2-8.2 6.5-9.9 26.3-9.6 54.1-13.7 80.5-23.5 13.5-5.1 27-10.8 40.6-15.8 11.8-4.3 24-8 35.4-13.4 15-7 30.1-15.7 43-26 2.7-2 8.1-5 10-8 1.5-2.7 1.3 0 1-3.2-.3-2.3-3-5.4-4.2-7.6-4.3-8-8.2-16.3-11.4-24.8-20.7 8.9-40.5 21-60.9 30.5a362 362 0 01-65.7 21.7c-9.4 2.3-20.1 3-28.7 7.5-3.6 2-7.3 4.2-11.2 5.3-1.1 2.2-2.2 2.6-3.4 1.3a3 3 0 00-2.7-1c-2.4.4-4.8 1.5-7 2.4a327.4 327.4 0 00-33 15.5c-5 2.6-10.2 5.2-15.1 8.3a35 35 0 00-7 5.4c-2.6 2.7-2 5-6.2 3M647 140.5c4.8.1 9.1-2.5 14.1-2.3 7.9.2 14.1 6.3 18.7 12.2 9 11.6 6.7 25.6 2.2 38.6a75.2 75.2 0 01-9 17.6c-3.2 4.9-9 9.4-11.4 14.8-3.8 8.8 3.9 5 8.6 3.2a65 65 0 0016.4-9.3 122.5 122.5 0 0044.9-70.8c2.7-13.8 2.5-30-7.1-41.2-8.8-10.3-24-13.7-37-11.8-14 2-26.7 8-38.2 15.7-3.3 2.2-6.3 4.6-9.5 7.1-4 3.3-6.5 3.4-5.5 8.5.8 3.8 2.9 7.7 4.2 11.4 2.5 6.8 1.6 8.6 8.6 6.3m15.3 117.8l-1 1.7c6.7.3 12.9-5.6 18.6-8.5a122 122 0 0020.4-14 162 162 0 0031.6-31.2c19-26.8 36.4-60.7 31.2-94.6-5.6-36.5-37.6-50.6-71.7-45.8a139 139 0 00-42.8 16c-6.9 3.5-12.7 8-19 12.5-3.4 2.3-6.4 2.6-6.6 6.6-.2 3 5 9.8 6.5 12.5 17.2-17.6 35.8-32.1 61.8-33 31-1.1 49.4 28.3 49.2 56.4a109 109 0 01-31 74c-8.6 9-16.8 16.2-27.4 22.8-5.3 3.3-9.2 6.2-15 8.4-4.3 1.5-3.8.7-4.9 4.6-.9 3.3 0 8.2 0 11.6M494 633.3c-.4 5-1.4 9.8-2.6 14.7-.4 1.7-2.7 7.2-2.3 9.2.7 3.2-.2 1.1 2.7 2.8 3 1.8 6.4 1.7 9.6 2.2 2 .3 9.3 3.8 10.6 3.2 2.1-1 2-4.3 4.4-5.6 3.2-1.8 8-.3 11 1.1 8.1 3.8 13.7 11.7 21.6 16 14 7.6 30.5 11.8 46 13.6 8.5.9 17.1 2.5 25.4.6 6.6-1.6 15.1-1.4 18.7-8.5-31.7-8.7-80-19.4-92.6-55.7-6.8 6.1-18.2 2.8-26.5 2-9-1-17.1-.8-25.4-4.9-.6 3.2-.8 6-.6 9.2M213.2 408c15 1 29-6.1 38.2-18 2.3-3 4.6-6 6-9.5l.9-2.6c1.4-2.4.8-3.6-2-3.4-1.4-2.1-5.2-2.8-4.1-6.5.8-2.9 3.8-3 6.4-3.8-1.3-2.2-2-3.3-4-5.2-4.8 4.3-13.6 12.9-17 2.9-1.7-4.9 1.2-9.5.5-14.1-.3-2-2.7-6.8-4.1-8-7.6-6.1-18.4-3.6-26.4 0-5.5 2.5-6.7 3.7-7.6 9.4l-2.7 17.3c3.3-1.7 3.9-5.4 6-8l2.4 4.3c1.2-.6 2.2-.6 3.2.1 1.6 2.5.6 6.1.1 8.7 5.3-.5 7.6 5.4 2.2 7.8-5.5 2.5-8-4.3-8.2-8.7-2 2.5-4.2 1.2-5.7 2.4-1.4 1.3-2 4-2.5 6.8-.8 4.8-3 11.7-1 16.5 3 7 12.4 10.8 19.4 11.6m432.4-228c-5 7-13.3 16-15.1 24.2 5.4-3.2 17-18.5 19.9-6.3 1.7 7-7 15.4-9.2 22.2 8.6-2.8 14.7-11.7 20-18.5a73.4 73.4 0 0015.6-31.2c1.4-9-4.8-17.3-14-18.2a44 44 0 00-14.2 1.4c-2 .5-5.2 1.1-7 2.3-2.4 1.3-2.7 4.6-4.9 1.9l-8.7 16.5c2.9-1 8.8-5.6 12-5 4.6.6 5.5 7.3 5.6 10.8M183.3 45.6c-13 .4-26.5 3.2-38.8 7.3-3 1-15.8 4.6-13.1 9.9 1.8 3.4 11.4-1.5 14.3-2.3 12.5-3.5 25.3-5.8 38.1-8 3.1-.4 13.6-.4 14.2-4.4.6-5-11-2.5-14.7-2.5m352.3 564.9c-7 .8-13.8.5-20.8-.4-5.9-.7-12-3.1-17.8-3.1 0 6.3-.4 6.3 6.2 7.7 4.7 1 9.4 1.5 14 2.1 8.3 1.2 17.4 4.4 25.8 2.7-.2-1-.8-8.4-1.7-9.2-.5-.4-5 .2-5.7.2M422.2 144.7c2 1.2 6.5 6.2 8.8 6.3-.8-5.8-7.3-15.8-14.7-12.3-1.8 1-5.6 5.3-3.9 7.2 1 1 7.4-1.2 9.8-1.2M353.8 196l.2-3c-2.7 1.6-6 2.4-8 5l7 3 .8-5m213.7 153.2a81 81 0 0134 20.7c8.1 8.8 12 24.3 14 35.8 4.9 28.6-4.6 55-10.9 82.4-3.2 13.8-8 27.1-12.4 40.6-3.9 11.8-7.2 24.2-12.5 35.4-4.6 9.5-10.4 18.8-14.4 28.7-2.1 5.3-5.6 23.5-13.8 17.8-2.2 5.8-2.7 5.3-.4 9.3 1.8 3 7.6 7 10.4 9.4 7.3 6.4 16.6 11.6 25.2 16 15.8 8.2 32.8 14.3 49 21.8 7.2 3.2 15 7.1 13.4 16.5a23 23 0 01-13 17.4 85.7 85.7 0 01-23.6 6.9c-4.4.6-5.4-1.2-9-1.9-3.9-.7-8.5.7-12.6.7a82.3 82.3 0 01-49.2-15.4c-5.3-3.8-13-14.1-20-14.1-3.5 0-2.8 2.1-5.9 3.4-3.8 1.5-10.4-1.4-14.2-2-8-1.6-16.3-3-21.6-10-5.8-7.5-3.8-16.8-1.3-25 2.8-9.5 7.6-19 9.6-28.5.5-2.3 1-6.6.4-9-.8-3.6-4.4-5.8-4.6-9.8 0-1.2 1.7-2.8 2-4 .7-2.7.6-5.6.9-8.4.5-5 1.6-9.7 2.4-14.6 1.7-11.1 5.2-21 8.6-31.8a90 90 0 0112.8-27.2c3.3-4.7 14.2-21.3 8.9-26.1-7.4 14.4-16 25.7-27.2 37.2-8.6 8.8-17 20.6-27.8 26.8-11.8 6.9-26.3 11-39.3 14.6-6.2 1.7-11.4 5.5-18 6.3-7.3.7-14.7-.2-21.8-1.8-2-.5-7.8-3.5-9.6-3.3-2.7.3-6.5 5-9.5 5.9-7 2.1-12-2-17.4-5.7-5.8-4-7.6-5-14.4-5.6-8.3-.6-16.3-3.5-24.5-5.3-14.3-3.1-26.5-9.5-39.6-16.2-14.9-7.6-27.7-18.2-39-30.6-16.5-18.4-39.5-69.1-12.5-87-16-2-30.5-9-32.4-27-1-9.5.8-20 3.2-29 1.1-4.2 2.4-8.3 3.6-12.4 1-1.4 1.5-2.9 1.5-4.5.6-2.2-.3-3.2-2.5-3.2a28.8 28.8 0 01-8.2-16.2c-.2-2.2-.5-5.6 1.1-7.5.7-.7 1.6-1.2 2.6-1.5 2.5.1 3.2-1 2.1-3.6 1.2-3.7-.6-6.5 4-8l4.2 1c1.9.8 3 .2 3.6-1.8 4.2-1.7 2.3-4.1 8-2a25 25 0 019.4 6.2c3.2-2-4-14.6-4.3-18.7a40.7 40.7 0 018.4-25c10-15.2 23.8-28.3 37.5-40a631 631 0 0183.2-61.7 47.9 47.9 0 00-41-6.9c-13.3 3.7-24.2 10.3-36.5 16-11.4 5.4-23.5 7.5-27.1-7-4-16.3 9-22.4 20.6-29.7-3-2.2-12.5-.6-16.1-.4-8.1.6-15.8 2.4-23.7 4-3.7.8-7.2.6-11 1.4-5.5 1.1-11.3 2.4-16.9 4a134.4 134.4 0 00-38 17.4c-10 6.7-17 16.2-25 25-9.1 10-18 19.8-31.5 23.5-6.3 1.7-13.8 3.3-18.3-2.4-4.2-5.3-4.4-11.6-4.3-18.1a81 81 0 0115.2-41.3c8.7-12.6 20.4-19.9 31.4-30-16 1-31.3 9.5-46 15.2l-9.2 3.8c-3.3 1.2-5.5.4-8.7 1-7.2 1.2-13.4 4.3-20.4-.6-13.3-9.1 0-27.8 9.2-33.5 12.7-8 25.7-14.7 39.7-20.4-7.6-8.2-1.1-20 5.9-25.8a103 103 0 0130.8-15.6c8.4-3.2 16.7-6.2 25.5-8 9.2-2 20-5 29.3-4.8 8.8.3 16.6-1.2 25.5-1.5 7.4-.2 14.8 0 22.2-.2a599 599 0 0159.2 2.3C269.5-13 371 .8 392.6 6.7c19.7 5.4 42.2 11.6 58.7 24.3 7 5.3 13.7 11.4 19.9 17.7a97.5 97.5 0 0119 33.3c12.3-6 24.1-12.6 37.5-15.6 12.8-2.8 26-6.6 38.8-8.8 9.8-1.6 24-2.7 32.2 4.2 9 7.5 13.6 19.2 19 29.2 25.6-24.4 54.2-42.1 90.8-41 35.7 1.2 59.3 32.1 63.6 65.6 4.8 36.9-11.6 75.4-34 104a165.7 165.7 0 01-33.7 34.7c-6.6 4.8-13.7 10-21 13.6a112.3 112.3 0 01-16.7 6.7c-5.2 1.2-4.2-.4-6 4-1.6 3.7-1.4 10-2.1 14-.8 4.6-1.2 9.2-2.3 13.7-2 7.8-4 15.4-6.3 23-4.6 14.5-10.7 29-18.2 42.3 6.4 2.7 15.3 3 22 3.8 7.4 1 14.8 2.8 22.4 5 15.3 4.2 29 7.8 43.5 14.2 15 6.7 28.5 16.6 43 24.5a416.3 416.3 0 0139.3 25c3 2.1 4.8 4 7.1 6.6 2.4 2.6 3.2 3.2 6 5.5 1.4 1 5.1 6.3 6.6 6.5 2.7.4 2.3-1.6 4.3-4.4 4.4-5.7 10.4-10.2 14.7-16.1 3.6-5 7.4-10 11.2-14.1 9.3-10.3 17-21.7 23.7-34 3.4-6.4 7-12.4 10.8-18.5 3.7-6 10.3-14 17.7-13.6-.6-3-2.5-3.5.8-5.4 2-1.2 6.2.7 7.8 2 4.3 3.2 4.5 9.5 4.2 14.2a151 151 0 01-6.8 35.7 351 351 0 01-15.4 39.3c-4.7 10.5-10.5 24.5-22 29.3 7.7 11 4 20.1-1.2 31.9a56.9 56.9 0 01-16.4 23.2c-8.6 6.4-18 1-27-3.3-5.4-2.6-22-8.6-18.7-16.5-4.1-.6-6.7-3.6-10.5-4.5-4-1-3.3.6-7.6 1.3-3.2.4-8-2.5-11.1-3.5l-15.3-5.3c-14.4-5-28.5-9.8-43-13.8-27-7.3-54.3-11.5-81.2-18.1-5.3-1.3-10.7-2.6-16.3-3.7-1.2-.2-7.2-.5-8-1.8-1.2-2.1 2.7-14.3 3-16.8 2.3-16.2 1.6-34-1.5-50.1-1.3-6.7-7.1-15.4-7-21.9 0-4.4 3.8-9.1 6.1-13.1 5.6-9.8 11.5-20.4 15.7-30.6a239 239 0 0013.1-50c1.5-8.7 3.2-18.1 3.6-27 .3-6.7-.2-13.7.8-20.6-3.8.4-9 2.3-12.4.2-4.2-2.6-5.3-10-4.8-14.5-14.5 2.6-14-11.2-13.1-22-26.2 0 7.3-38.8 11.5-47.2 2-3.8 1.9.5 1-5.4-.3-2.6-2.1-5.5-3.1-8A295 295 0 00604 89.5c-6 4.2-11.4 9.1-16.4 14.4 3.2-8.3 13-18.7 8.8-28.2-3.9-8.8-16.8-8.2-24.5-6.6a421.1 421.1 0 00-60.4 18.1c6 3.6 15.5.8 21.6-1.8 7.5-3.4 15.6-6.9 23.7-8.6 7.1-1.6 16.4-1 14.4 8.5-1.7 7.7-9.2 15.2-14.2 21-11 12.7-24.8 22.6-38.4 32.5-14.5 10.6-28.6 22-43.3 32.4-26.7 18.6-55.4 34.7-83 52.1-14.2 9-30.5 16.3-46 23-17 7.3-33.4 15.2-51.2 21-9.8 3.3-19.6 6-29.2 9.6-6 2.3-16.6 6.9-20.7 0-8-13.8 21.3-32 29.4-40.6 5.6 5.5-21.9 25.6-19.7 33.5 1.7 6.1 8.2-1.8 11.4-3.5 5-2.8 11-4.1 16.2-7.2 10.5-6.4 23-13.8 25.3-27-1.6-1.7-1.6-3.3.1-4.8.8-1 1.4-2 1.8-3 .8-2 1-4.7 1.5-6.8 1.1-6.5-1.8-12.6 1-19-16.2 12.3-31.8 26.1-47.1 39.4-13.8 12-28.2 27.5-33.3 45.3-.6 2.2-1.7 4.8-1.6 7.2.3 4.7.7 3.7 4.5 5.2 3.8 1.6 9.4 1.4 13.4 1.6 2.4 0 12.8-2.4 10.7 2.7-1.2 3-8.4 2.9-11 3.1-6.5.7-10 0-6.9 7 1.4 3.2 4.2 5.3 6.4 7.8 6 6.7 9.3 17.1 14.1 25.1 5.5 9 11.5 17.7 17.9 26.2 2.6 3.4 6.1 10 9.7 12.5 3.4 2.3-.6 2.1 5.1 1.2 2.5-.4 4.7-2 7-2.6 14.1-3.5 28.6-7.3 43.2-11.6 18.6-5.4 38.2-10 56-17.8 16-7 31.7-15.3 47.8-22.4 4.7-2 9.4-3.5 13.1-7.3 4.4-4.6 8-10.6 12.1-15.5 7-8.4 13.3-17 20.8-24.9 5.5-6 15.3-17 23.2-19.3 14.8-4.5 6.9 18.2 5 23.9 3.4.8 5.3-3.7 9.4-2.4 4.9 1.5 5.4 8 6 12.1.2 1.1-1.3 3.2-.9 4.1.2.4 3.4 2.3 4 3.1 2.3 3.2 1.8 7.1 1 10.6-4.4 17.8-20 30.8-31.6 44 5.2-1 9-4 13.9-5.4 4.5-1.4 9-1.3 13.7-1.7 4.8-.4 9.4-2.2 14.3-2.3 5.2-.1 10.1 1.4 15.3 2"/><path d="M23.7 189c-2.8 1.9-3.6 3.7-3.7 8 0 1.7 0 8.2 2.5 8 2.3-.2 1.2-13.8 1.2-16M9.1 199.7a49 49 0 0118.1-36.2c3-2.1 6.2-2 9.4-3.4 2-.8 5-4.5 7.2-4 8 1.6-1.3 12.2-2.6 15-4.2 8.7-4 16.4-3.8 25.7 0 7.2 1.5 19.2-2 25.6-3.9 6.9-12.2 2.4-16.8-1.6-5.9-5.2-10.3-13.3-9.5-21.1M150 240.1c0 7.7 6.2 2.5 6-3-.3-8-6.3-3-6 3m33-42.2c-6.8 6-12 9.5-13.3 18.9-1 7.1 0 14.2 0 21.3 0 12-9.6 24.7-20 10.9-7.7-10-5-25.8 1.3-36 3.2-5.2 7.9-10.5 13.2-13.8 4-2.4 15.4-7.3 18.8-1.3M88.2 383c-.8 1.9-2.7 9.5 1 7.7 3.4-1.5 1.3-6.5-1-7.7m-20-23.5c-.6-2.8-.3-20.8 4.6-19.4 3.9 1 4.5 10.2 6.1 13.4 5.9 11.9 19.4 19.3 24 31.6 5.3 13.7-10.5 14.1-18.8 8.6-9.9-6.6-15.6-22.7-15.9-34.2M56.1 286c2.2-2.9 2.4-4.4 1.2-7-1.6 1.7-1.3 4.1-1.2 7m1.6 13c-11.2 1.2-11.8-19.4-9.9-26.5a52.5 52.5 0 018.2-16.2c.7-1 7.2-9.3 8.4-9.3 4.9 0 3.6 5.4 3 7.5a56.6 56.6 0 00-1.8 19c.4 7.6 4 25.7-8 25.4M565 120.6c-16 13.4-31.1 28-48.5 39.6-8.5 5.8-17.4 10.9-25.9 16.7-4.3 3-8.7 5.6-13.5 7.8-4.2 2-7 2.2-3.5-2.4 2.3-3 7.6-5.2 10.8-7.4 5-3.3 9.6-7 14.8-10 9-5.2 18.2-9.5 26.6-15.9 7.4-5.7 15.1-11.2 22.3-17.3 3-2.6 13.2-14.5 16.9-11m.3 48.3c7.2 6.1-10.8 23-14.9 26.8-4.3 4-9 7.6-13.8 11.2-1.6 1.2-10.6 9.6-13 9-4.5-1.4 1.5-6.8 3-8.3 5-4.6 10.1-9 15-13.8 4.4-4.2 9.2-8.2 13.4-12.6 3.5-3.5 6.4-9.6 10.3-12.3M33 416.8c-1.9-4.4-5.2.4-3.5 2.6 1.6 2 3.3-1.8 3.5-2.6m-11-8.6c1-6.4 3.3-10 9.3-4.5 4.1 3.7 12.4 14.4 11.6 20.2-1 7.6-9.4 5.5-13.7 1.5-4.5-4.1-6.5-11.6-7.2-17.2M35.1 534c-7.3-.6-13.6-6.2-16.7-12.8-2.6-5.6-5.1-14.6 4.1-11.6 6 1.9 29.2 25.3 12.6 24.4m89.1-36.3c-5.7 1.3-11.3-2.4-14.8-6.6-2.2-2.6-7.2-11.9-4.7-15.6 3.6-5.3 9 5.3 10.8 7.4 2.9 3.3 12.3 9.6 8.7 14.8m5.1-143.7c-4.5-2-8.6-4.6-10.4-9.5-1.1-3.1-2-12.5 3-12.5 5.8 0 19.2 21 7.4 22M98 256c6-.1 7.4 3.2 8.3 7.9.5 3.2 3.3 14 .4 16.3-4 3.2-10.5-4.1-11.8-7-2.6-5.9 1-11.7 3.2-17.2m102.4 326.1c2.9 1.4 9.5 4.3 7 8.8-2.7 4.8-10.3.2-13.1-2-1.2-.8-8.7-6.5-8.4-8.4.7-4 11 1.3 14.5 1.6M9.3 285.5c2 5 4.2 22-6.2 12.8-3.2-2.8-3.7-6.3-2.6-10.2 1.6-5.6 4-4.4 8.8-2.6M562.5 222c-2.3-4.7 3.4-7.8 6.5-10.8 2-2 10.3-12.8 13-12.2 5.7 1.3-16.7 20.9-19.5 23M98 564c5.5-.8 6.7 5.3 10.2 7.9 1.5 1.1 6.7 2.1 5.7 4.5-2.8 6.3-16.2-8-15.9-12.3m46-142.9c3.7-1.6 14.6 6.8 11.4 10.5-4.6 5.4-11.1-7.5-11.4-10.5M223 543c-2.8.3-14.3-3.4-10-8.2 3-3.4 10.9 5.1 10 8.2M85 519.7c-2.7 1.1-12.5-1.1-9.4-5.4 3-4 9.4 2 9.4 5.4m80 18.3c3.2-.3 5.5 1.6 6 4.9-4 .5-5.2-.4-6-4.9M577 68.5h4-4M556 347h-6 6m346.8 14c.6 2.2-.3 2.6-2.8 1.1l2.8-1.1M846 535.5h3-3m-190-161c-1.7 1.3-3.3 1.5-5 0h5M618.6 204l-.2 5 .2-5M705 49.7h-5c1.7-.6 3.3-.4 5 0M216 29.4l-5 .2 5-.2m41 .3l-4-.4 4 .4m22 1.6c-1.3.5-2.7.7-4 0h4M160 34l-5 1 5-1m459.6 407l-.2 3 .2-3M909 356.4h-5c1.7-1.2 3.3-1 5 0m-342-7.1l-4-.6 4 .6M201 582l-5-1 5 1zm336.5-287v-3 3M221 29.7l-3-.4 3 .4M385 5l-3-1 3 1m119 674.4l2 .2-2-.2M45 142.5h3-3M189 46h-7 7m350 564h-4 4M681 80.2l6-.7c-2 1.7-4 .6-6 .7M528 610.6l-3-.2 3 .2M493.4 628l.2 5-.2-5M646 141.6l4-.4c-1.2 1-2.6.4-4 .4m-437 266l4 .8-4-.8m208-263.1c1.7-1.4 3.3-1.3 5 0h-5M354.4 195l.2-2-.2 2M204.3 385c2.2.8 6.6 3 9.1 2.7 2-.2 3.8-2.7 5.8-2.7 5.3 0 4.3 6.2 1.7 9.4-7 9-22.4-.7-16.6-9.4m21.7-32c7.2 1.9 3.6 17.8-2.5 19-7.2 1.2-8.4-11.8-7-16.4 3.7 2.1 1.4 10 6 7.8 3-1.4 2.6-7.7 3.5-10.4"/></g></g></svg>