<svg xmlns="http://www.w3.org/2000/svg" viewBox="0 0 1024 768"><g fill="#FFFFFF00" fill-rule="evenodd"><path d="M-74-32H950v768H-74z"/><path d="M724 125c4.3 14.5 6.2 28.6 10 43.2 4 16 8.4 32.7 14 48.3 10.4 29.1 27.5 48.8 43.6 75.5 12.6 20.9 47.3 91.4 53.8 102.5 4 7 6.6 17.2 9.4 24.7 1.6 4.3 3.2 15.1 2.5 19.5-12.1-1.4-25-2.8-36.9 0-3.8.9-17 8.8-20.8 8-4-1.1-1.6-7.3-3.2-11.1-4.4-10.8-9.3-21.8-12.5-32.9-3.3-11.3-25.3-81.8-37.8-104.7-6.4-11.8-11.2-23.7-18.3-35-7.5-11.8-13.6-23.1-25.8-30.6 1.3-10.2 7-21.4 10.5-31.1 3.3-9.6 4.8-17.9 6-28 1.2-9.7 4.8-19.2 3.4-29-.7-5.1-4-8.6-5.3-13.1-.7-2.6-2.6-.3.1-3.6 1.3-1.5 5.6-1.5 7.2-2.6zm-10.3 7.5c2.1 11.5-4.8 27.3-7.3 38.6-2.6 11.8-5.7 23.4-8.5 35.1-1.4 5.8-4.1 11-5.8 16.6-2 6.3-2.9 13-4.9 19.3-4 12.7-9.4 24.8-7.8 38.3 1.3 11.8 3 24.4 6.8 35.6 4.6 13.2 8.8 25.7 9.9 39.8 1 13.4-2.3 27.3-5.8 40.1-1.3 4.6-10.7 37.6-13.5 37-2.2-14.8-13.8-29.5-21.2-42.4a184.3 184.3 0 00-33.6-39.7c3.5-1.4 6.8-8.6 8.5-12 2.3-4.7 5-9.4 7.7-14 4.9-8.2 18.6-41 22.8-49.1 5-9.7 38.1-107.8 37.4-118-.3-4.5-.6-6.2 1.8-9.6 3.2-4.6 10-11.2 13.5-15.6zM637 128c0 4.5.4 5.3-2.3 8.4-2.3 2.5-5.3 4.4-7.5 7.2-5 6.2-9.3 13-12.8 20a157.4 157.4 0 00-13.7 45.6c-2.5 16.9-1 34.2-2.2 51.2-.4 6.3-1.5 13.8-5.7 18.9-3.7 4.5-10.5 7.9-15.7 10.5-11.8 5.9-21.7 13.8-30.7 23.6-2.2 2.4-2.8 7.9-5.3 9.9s-10.2 8-13.1 9.3c-6.9 3-33.5.2-40.8-1.1-7.2-1.3-17.5-7.3-23.8-10.4-9-4.5-20.5-14-34.3-28.6 39-15 84.1-29 119-52.9.2 2.9 5.1 10.7 5.7 8.4 3.2-15 5.4-30.2 8.6-45.2.9-4 1.7-8 3.3-11.7.7-2-8.3-3.4-12-2-13.5 5.5-27.6 8-41.9 11.2-26.3 5.8-56.2 8-79 24a173.1 173.1 0 00-27.3 23.9 72.7 72.7 0 00-18 38.3c-15.8-7.1-36.5-4-52.8-2.6 6-14.9 25.2-29.5 37-39.7 9.9-8.4 19.5-17 30.3-24.2 24.2-15.9 48.6-31 76.4-40 13.8-4.4 27.6-8.9 42-11.2 7.8-1.2 15.7-1.6 23.6-2.4 7.7-.8 10.6-2.4 16.3-7.8 10.6-10.1 25.2-12.4 38.8-16 13.5-3.6 26.4-6.6 37.9-14.6zM400 79l17.9 9c-7.3 3-13 5-17 6-6 1.6-14.2 24.8-22 24.8-7.7 0-7.7-20.3-3.9-28.5 2.6-5.5 10.9-9.3 25-11.4z" fill="#123456"/><g fill="#000"><path d="M334.5 370.2c1.1.3 1.5-.4 1.2-2.2-1.1-.5-1.5.2-1.2 2.2m391-280.9c-1.8.2-.8 2 .3 2.6l-.3-2.6m-104 259.3c1-.8.6-1.5-1.2-2-1 .8-.7 1.5 1.1 2m-403.3-4.4c-5.8-1-10.2-9.7-15-7.9-6 2.3-11.4 12.8-15.5 17.5 3.1 2.5 6.6 4.8 10 7 3.4 2.4 2.5 3.2 6 .4 2.5-2 4.5-5.7 6.6-8.2 2.5-3 5.7-5.6 8-8.8m133.3 332.2c1 0 1.7-23 2.5-26.2 1.8-7 5-14.2 8.6-20.5 1.5-2.8 4.3-6.3 5.4-9 1.8-4.3-1-7.2-1.9-12.2a55.2 55.2 0 014.2-29.5c-6.7-1.5-13.2-4-20.1-5 0 9.2-1 17-4.8 25.5-1 2.1-2.9 3.9-2 6.5.2.8 2.6 1.4 3.2 2.2 3.2 4.4 3.7 7.9 3.8 13.3.6 18.5-1.4 36.6 1 54.9m-47.9-319c3.8 3.2 15.7-19 19.8-19 8.8.3-3.6 22.3-4.4 25 3.5-1.3 6.8-9.2 8.7-12.3 1.6-2.6 7.4-15.5 10.8-16.3 6.6-1.5 3.6 10.4 2.7 13.2l-5.9 18.9c3.9-2.1 6.7-14.6 8.4-18.7 2.4-5.7 4.3-11.9 8-16.8 2.5-3.4 6.7-8.1 11.3-8.4 5.5-.3 7.6 5.7 12.6 6.8.7-12.6-.6-25.3.9-37.9-9.9.2-19.8.7-29.5 2.4-5.5 1-9.2.9-11.9 6-2 4-3.7 8.1-5.7 12.2-7.6 15.5-15.7 30.9-25.8 45m-124.8-47c-7.2 7.3-13.7 15-20.5 22.7-6.8 7.8-16.2 12.8-22.6 20.8-6 7.4-10.3 15.8-16 23.4-6.1 8.4-11.3 17.8-16.5 26.8 5.4 1 6.7 1 10.3-3 2.9-3.3 5.3-7.4 8.2-10.7a125 125 0 0122-20.4c8.4-6 19.1-11.3 29.1-14.3 4-1.2 5.4-1 7.5-4.5 1.6-2.5 2.2-5.7 3.7-8.4 3.4-5.6 8.8-8.8 14.1-12.4-6-7-13.2-12.8-19.3-20m481-215.3c-2 1.5-2.2 7-3.1 9.4-1.7 4.2-4 8.2-6.1 12.2-3.6 7.1-6.7 15-6.5 23.2.1 8.4 6.6 13.2 14.4 14.7 8.6 1.7 15.1-1.7 22.7-5.3a77.7 77.7 0 0019.6-15c4.7-4.5 7.7-11.8 13-14.4 5-2.4 11.3-4.5 12.8-11.6 1-5-1-4.3-5.2-3.3-4.6 1.1-7.9 4-12 5.6 2.3-5.4 2.8-9.8 0-15-1.7-3-4.9-8-8.6-8.2-2.5 0-5.5 2.7-7.8 3.6-2.8 1-6 1.5-8.9 2.3a58.2 58.2 0 01-24.3 1.8m17 337.6c2.8.5 12.1-32.4 13.4-37 3.5-12.9 6.8-26.8 5.8-40.2-1-14.2-5.4-26.6-9.9-39.8a177.4 177.4 0 01-6.8-35.6c-1.5-13.5 4-25.6 7.9-38.3 1.8-5.9 2.8-11.8 4.4-17.7 1.7-6.2 4.7-11.9 6.2-18.2 2.8-11.8 5.9-23.3 8.5-35.1 2.5-11.3 9.2-24.7 7.1-36.1-3.5 4.2-7.7 8-11.2 12.2-3.6 4.2-2.4 4.6-2 10.5.8 9.8-1.3 21.2-3.6 30.7-4.7 19.8-13.1 37.8-19.2 57-3.2 10-4.5 21.1-9 30.5-4 8.3-9.4 15.8-13.7 23.9-4.6 8.8-10 17.2-15.2 25.8-2.4 4.1-4.9 8.1-7 12.3-1.8 3.6-3.8 12.2-7.3 13.6a167 167 0 0130.4 39c7.5 13 19 27.5 21.2 42.5m25.8-200.5c11.7 7.2 17.6 17.7 24.8 29a587.6 587.6 0 0120.3 34.7c12.7 23.4 22 46.7 29 72.4 3.2 11.6 7.8 22.9 11.1 34.2 3 10.5 4 21.2 8.4 31.3 1.2 2.8 2.1 9 5.4 9.9 3.7 1.2 13.9-4 17.7-5 12.4-3 25.3-3.7 38-2.3.8-4.4-4.3-13-5.8-17.3-2.6-7-5-14.5-8.4-21.2a441 441 0 00-19.8-33.5c-7.4-11.4-13.4-23.7-20.9-35-3.5-5-8.4-12-10.7-17.8-1.1-2.8-1.4-4-2.8-6.3L785 299a439.6 439.6 0 01-37.6-81.3 674.3 674.3 0 01-14.5-47.3c-4.2-15-5-30.6-9.5-45.5-2.7 1.8-7.2 1.5-7.2 5 0 .8 3.8 5.8 4.3 6.8.8 2 1.3 4 1.7 6.1 1.9 10.3-1.9 20.2-3.2 30.3-1.3 9.7-2.4 17.7-5.7 26.8-3.6 9.9-9.5 22-10.8 32.3m-269.9 60.5c11.5 10 22.1 21.1 35.7 27.8 6.3 3.2 11.4 7.7 18.6 9 7.3 1.2 14.7.5 22 0 7.4-.6 14.2-.6 21-3.7 3-1.3 7.4-2.6 10-4.6 2.4-2 4-5.2 6.2-7.6 9-9.9 19-17.7 30.7-23.7 13.2-6.6 20.4-14.1 21.4-29.3 1.1-17-.3-34.3 2.2-51.1A157 157 0 01614 164c3.5-7 7.9-13.8 12.8-20 2.3-2.8 5.2-4.7 7.5-7.2 2.7-3 2.3-3.9 2.3-8.4-11.5 8-24.4 11-37.8 14.6-13.7 3.6-28.3 6-38.9 16-5.7 5.3-8.6 7-16.3 7.8-7.9.8-15.8 1.1-23.6 2.4-14.4 2.3-28.2 6.8-42 11.2-27.8 9-52.2 24-76.4 40-10.8 7-20.4 15.7-30.2 24.1-11.9 10.2-27.9 23.8-33.8 38.6 16.3-1.4 32.8-6.1 48.6 1 1.2-13.3 10.2-26.1 19-35.6 7.7-8.4 17.2-16.8 26.7-23.6 22.7-16.2 53-20.4 79.5-26.2 14.3-3.1 27.6-5.6 41.2-11 3.4-1.3 13.5-7.4 15.4-3.8 1.2 2.3-2 5.7-2.7 7.5-1.4 3.3-2.1 6.7-2.9 10.1-3.5 15.5-5.6 31.3-9 46.8-.5 2.3-1.2 12.6-5.3 11.2-2.7-1-.2-16.7-.4-19.6-34.9 24-76.1 38-115.2 52.9m39.2 266.5c-7.7.4-15.6 4.5-23.1 6.4-10.2 2.6-20.8 5.2-30.2 9.8-5 2.4-5 3.8-3.6 9.4 1 4.4 2.3 8.6 3.2 13 2.2 11.1 4.7 22 7.5 33 28.9-24.1 65.7-37.7 101.7-47 5.1-1.3 10.3-1.7 15.5-2.6 4.5-.8 9.7-.3 14-1.2 2.7-.5 5.2-2.4 8-3 6.1-1.4 13.4-1.6 19.2-3.7 7.9-3 16.6-6.8 24.4-10.7 8.5-4.3 15.3-7.5 17-16.8 1.4-7.3 4.8-14.2 5.9-21.4 1.4-9.4-.3-17.8-1-27.2a342.5 342.5 0 00-10-65.1 796 796 0 01-12.8-62c-.7-4-2-7.7-3-11.6-1.6-6.6-4.7-5-10.7-4.5-11.1.7-23-3.8-32.3-9.8-4.3-2.8-9.9-9.3-14.9-10.7-4.5-1.3-9 4.8-13.3 6.8a95.9 95.9 0 01-33.8 6.9c-24.2 1.6-42.6-14.1-59.1-30.2a323.5 323.5 0 01-36 34.7c-10.7 8.7-19.7 20-28.5 30.4-8.3 9.7-15 24.8-26.3 31.6-6.6 4-11.5 1.5-17.8-2.5-5-3.2-10.6-5-15.7-7.9-23.4-13.5-45.6-28.7-68.4-43-5-3.2-13-10.6-18.8-11.1-4.4-.4-4 .7-6.6 4.3l-7.3 10.5c-9.5 13.8-19.7 28-27.4 42.9 16.8-4 32.7-4.7 49.2-2.3 15.2 2.2 34.6 4.8 48 13 5.8 3.5 11.5 7.5 17.2 11.5 7.2 5 12.8 12 20.7 15.8 7 3.2 14.3 4.7 21.5 7.1 8 2.7 19.4 7.8 28 5.6 7.2-1.9 13.3-8.3 18.7-12.8 7.1-5.7 15.8-9.7 23-15 12.7-9.6 26-17.7 39.8-26.2 16.3-10.2 32-22 49-30.9 3.4-1.7 6.7-3 9.8-5 3-2 5-5.7 8.6-3 3.1 2.2 1.7 6.4.8 9.4-.9 2.7-1.7 3.6-1.1 6 .5 2.3 4 5.7 5.1 7.9 5.6 10.3 9.6 21.4 15 31.9 5.2 10.1 11 20 15.9 30.3 9.5 20.4 22.9 38.5 31.4 59.6-4 1.6-4.4-1.7-7.4-2-3.4-.3-2.2.3-5.4 2.7-4.4 3.1-9.2 5.2-13.9 7.6-10.5 5.5-21.3 12-32.6 15.8-19.5 6.6-37.5 18.2-57 25.3M807.2 464c-.6 4.8-1.5 9.6-2.2 14.5-.5 3.4-2.4 8.3-2 11.7 5-2.4 10.5-10.3 14.3-1.6 2.3 5.1-.5 15.4-1.2 21 5.6-1.2 4.4-15.1 13.4-10.6 7 3.5 2.1 21 7.6 22.8 3.8-6 3.1-19.5 4.4-26.5.5-3.3-.3-7.8 3.6-8 3.4-.2 6 4.7 7.6 6.9 1.5-8 5.6-15.2 3.8-22.7-1-4.6-2.2-9.2-3.4-13.8-.7-2.7-1.4-11-3.8-12.8-4.3-3.5-20.3 2.7-25.1 4-4.4 1.3-10 2.5-14 4.7-4.3 2.2-3 5.4-3 10.4M666 185.8a34 34 0 0017.2-8.8c8.2-6.8 9.4-12 11-22.5-10.5 5.1-18.3 9.4-30.2 9.6-13.6.2-20.3-7.7-26.6-18.7-1.7 2.5-4 5.2-5.3 8-1.5 3.6-1.3 2.9-.9 6.5.7 5.5 3.5 12.6 6.3 17.5 6 10.5 18 12 28.5 8.4M396.9 608.4h12.3l-2-13.6c-.7-4 .3-9.5-3.6-10.2-3.2-.6-6.4 3-9.6 2.7-3.8-.4-6-3-10.2-2-6.2 1.5-5 8.3-5 14-.1 2.2-1 5.5-.3 7.7 1.2 3.8.2 2.2 4 2.6 4.4.4 9.9-1 14.4-1.2M703.3 63c4.5.7 16.2 10.3 19.5 8 4.5-3.1-8.4-11.7-11-13-13-6.7-37.2-1.5-45.9 10.6 5.7.6 12.7-4.6 18.6-5.5 6.2-1 12.5-.1 18.8-.1M700 312.4c3.7 14.9 10.3 30.8 10.3 46.2 0 16-3.6 30.6-10 45.3-3.3 7.4-6.2 14.8-10 22-1.7 3.3-3.2 7.3-5.6 10.2-2.9 3.6-3.8 3.3-7.3.5-1.5 4-3.1 8-8.4 5.4-3.8-2-3.7-6.7-5-10.3-3.3-9.4-10.4-17.6-15.4-26.2-5.2-8.9-9.5-18.4-15.2-27-2.8-4-6-7.8-9-11.8-2.2-3-5.6-10-8.7-11.8-.4 4 3.8 9.8 5.4 13.7 2 5 3.8 10.3 5.3 15.6 2.9 10.3 4.6 21 6.8 31.5 4 18.6 8.6 37.2 11.2 56.1 2.5 17.7 3.1 35.9 1.3 53.6-.8 7.6-5.3 14-8.3 21-4.1 9.4-9 15.3-17.3 22a138.7 138.7 0 01-49.6 24.8c-3.3 1-6.5.5-9.7 1.2-3.5.8-6.4 2.6-10.2 3.2-10 1.6-20.2 3.4-29.9 6.2l-22.6 7c-5.8 1.7-12.8 3.4-18.4 6-13.6 6.4-26.4 14-39 22-3.7 2.3-6.5 3.7-9.2 7.2-3 3.7-2.5 6.4-4.1 10.7-1.5 4-4.2 6.2-7.7 3-3.4-3.2-2-9.7-2.3-13.6-.4-5.8-3.9-28-7.9-29.8-2.8-1.3-11.3 1.5-14.8 2-4.5.4-8.6.4-13-.2 1.4 6.2-4 14.6-6.3 20-4 9.3-7 18.4-8.6 28.3-1 6.8-.7 13.5-1.7 20.4-1.1 7 .5 18-9 19.1-15.3 1.7-19.1-28.7-20.9-38.9-2.7-16-.5-31.7 1-47.8.2-1.3.9-7 .3-8.1-.5-.8-4.8-2.3-5.3-2.7-4.9-3.4-2.9-5.2-1.5-10.3 2.8-9.8 2-22 8.6-30.5 5-6.5 16.3-2.5 22.8-.8 4.9 1.3 9.7 3 14.4 4.8 3.3 1.2 6.9 4.9 9.8 5.4 5.7 1.2 9.8-6 14.1-8.6 7.7-4.7 15.7-9 24-12 15.1-5.8 30.8-9.1 46.4-14 9.5-2.9 19-6 28-10.4 6.7-3.1 13.4-7.5 20.7-9.7 9.1-2.7 18.4-6.4 27.3-10.1 9.4-4 19.8-6.5 29.5-9.7a534.2 534.2 0 01-56-106c-.7-2-2.5-10.8-4.3-12-3.5-2.3-17.2 8-21 10.5-13.9 9-27.2 19-41.6 27.3-12.6 7.1-24.4 15.4-36.3 23.1-6.6 4.2-12.7 9.6-19.4 13.9-6.7 4.2-14.6 12.1-22.5 14-3 .7-8-.2-11-.4-4.2-.4-8.9-.7-13-1.9-8-2.3-16.5-4.9-24.3-7.7-14.1-5.2-25-17.8-37.7-25.6-15.4-9.4-32.7-11.8-49.8-17a164.4 164.4 0 00-59.3-4.8c0-18 8.7-31.6 18.2-46.4-6.8-4.5-9.7-7.3-17.4-3.1-5.7 3-11 5.8-16.2 9.3-5.7 3.7-11.8 6.6-17.5 10.7-6.2 4.5-11.6 9.2-17.3 14.2-4.3 3.8-9.2 7.2-13.7 10.6-4.5 3.3-9 2.8-14.7.6-1.7-.7-7-3-7.8-4.2-1.8-2.3-.5-3.9 1-7 3.4-6.9 7.8-14 12.3-20.3 4-5.7 9.2-10.5 13.4-16 4-5.3 6.8-11.4 11.4-16.2 5.1-5.4 11.3-9.6 16.1-15.3 2.4-2.9 5.2-5.9 5.4-9.2.1-2.6-2.7-5.1-2.8-7 0-4.3 7.4-8.7 10.5-11.9 4.5-4.6 9-8.7 16-6.7 5.2 1.5 13 8 16.8 11.8 4.8 4.7 8.8 10.2 13.8 15 2.8 2.6 5.8 5 8.7 7.5 1.7 1.5 4.4 5.8 6.3 6.7 1.7.8 3.4 0 5.7 0-1 0 4.4.9 4 .8 2.6.7 5.2 1.4 7.7 2.3 10.3 3.3 19.9 9 29.2 14.6 23.7 14.2 46 29.4 69.2 44.6 6.9 4.5 8.8 4.2 14-2.2 5-6 9-12.7 13.7-19a279.7 279.7 0 0125.2-29.4c9.3-9.3 20-17.2 29.9-26 2.7-2.3 14-10.5 13.4-13.5-.4-1.8-4.1-4.7-5.3-6.4a60.3 60.3 0 01-4.8-8.5c-7.5-17.2 12-18.3 23.5-23.6 14-6.5 27.8-13.6 42-19.4 7.2-2.9 14.4-5.5 21.6-8.2 6.6-2.5 12.7-6.5 19.3-9.2 4.8-2 15.3-2.8 18.5-7 1.9-2.5 1-10.5 1.4-13.4a98 98 0 012.6-14.5c-2.4-.4-6.8 2.2-9 3.2-4.2 2-7.9 3.9-12.5 5.1-10 2.6-20.4 3-30.2 5.8-14.9 4.3-30.8 6.8-45.3 13a122.8 122.8 0 00-43 33.2c-6.2 7-11 13.7-15.2 22-1 2.2-2.3 9.4-4 10.9-2 1.9-7.6-.1-10-.5 0 6.3.1 12.7-.1 19-.3 6.8 1 17-1.4 23.2-2.2 5.8-6.2 4.6-10.5 1.7-5.7-3.8-8.7-6-13.8 0-8.9 10.3-12.3 26.3-18.4 38.4-2 4-7 12.3-9.6 4.1-2-5.9 1.3-13.5-.3-19.3-2 3.6-8.3 14.5-13.2 14.5-6.8 0-4.6-10.6-4.3-14.9-4 4.3-15.8 18.2-18.6 7-2.2-8.5 4-17 8.2-23.8 5-7.8 10-15.8 15.2-23.5 5.1-7.6 8.6-16.2 13.7-23.8-4 .6-11.6-.7-9.1-6.8 1.2-3.2 5.3-1.9 7.2-3.9 2-2 3.2-7.9 4.3-10.6a132.7 132.7 0 0123-35.2 241.8 241.8 0 0158.9-47.3 295.4 295.4 0 0179.7-32c13.5-3.6 27.1-5.2 40.7-7.8 5.6-1 11.3-1.6 15.8-5.2 6.6-5.3 11-9.3 19-12.7a83 83 0 0119.7-5.1c7.6-1.3 16.3.4 23.6-1.8a99 99 0 0018.5-8.7c2.8-1.5 7.7-2.4 9.2-3.7 2.9-2.6 4.8-9 6.6-12.4-4.5 1.2-6.3-2-7.5-6-2-6.5-2-4.3-8.3-7-3.8-1.6-5-6-8-7.5-3.2-1.6-8.2 2-12 .8-3-1-6-4.3-5.8-7.7 0-1.5 1.6-2.8 1.6-4 0-2.8-2.2-4.3-1.9-7.3.5-4.8 3-4 .9-9-2-5.2-1.2-6.2-.6-11.4.1-1.5-.6-3.8.4-5 .6-.8 2.8-1 3-1.3.8-1.4.8-2.5 1-5 .1-1.4-.3-4.3 1.1-5.3 1.3-1 3.2.8 4.3.2 1-.4 1.8-2.8 3.4-3 6-1.1 4.2 5 7.2-2.6 1.8-4.4 3.1-6.2 6.3-8.7 1.3.7 2.2.4 2.5-.7l1.4-2.5c2.5-.6 2.8 1.3 4.8-.6 3.2-3-.1-9.7 6.3-8 4.7 1.4 5.8 7.4 10.7 8.8.7-2 .6-7.6 3.5-8.2 2.9-.6 5 4.7 6.1 6.4.7-1.5 1.9-6 3-7 3.2-3.1 2.3-.1 5.1.3l1.4 1.6 4.4-2.3c3.2-.6 2-.3 4.8.8 2.2.9.9 1.9 3.5 2.5 2 .4 3.6-1.6 5.8-1l1.9.8c.8 2 2.2 2.3 4 1 2.2 1 5.1 4.5 7.5 4.4 4.4-.2 3.3-6.3 8.2-6 1.8.1 6.4 5 7.7 6.4 1.8 2 1.3 3.7 3.5 6 3.3 3.3 1.4 1.5 4.5 3 4.6 2.2 6.3 1.4 8.2 6.7a48.4 48.4 0 012.6 15.3c0 3-2.2 9.8 2 8.3 3-1 2.6-8.4 5.8-6.1 2.4 1.7-2.4 11.1-2.5 13.4-.1 6.3.9 6.8-3 11.6-2 2.2-6.2 6.3-7.1 9.3-1.2 3.4 1.8 9.4 2.5 12.4 1.5 6.7.2 8.1-4.2 13.4l-1.4.8c-2.3 0-3 1.2-2 3.6-.9 2.6-.8 5.1-2.1 7.7-.7 1.5-4 4.4-4.1 5.8-.3 2.6 1 3 3.1 5.6 8.6 10.7 12.6 24.4 16.9 37.2 7.5 22.5 16.7 44.5 25.7 66.5 3.5 8.6 7 16.8 10.7 25.5 4.5 10.8 10.8 20.7 16.2 31.1 3.7 7.3 7.5 15.2 12.1 21.5 5.9 7.8 9.1 18 14.3 26.4 5.4 9.1 11.8 18 17 27.4 5.1 9 11.3 17.1 16.1 26.3 6 11.5 13 25.3 14.6 38.3.6 4.6 2.4 12.2-.5 16.1-3 4-11 5.8-15.2 2.7a143 143 0 018.6 30.7c.8 4.5 1.9 8.4.9 13-.9 4 .6 1.6-2.7 4-2.8 2-1.5-3.6-3.6 2.1-.5 1.2.4 4.6.4 6l-.8 17c-.2 4.2.5 7.9-4.7 7.4-4.3-.4-6.4-4.8-8.2-8-.7 5-1.1 10-1.7 15.1-.5 4.5.5 9-5.2 8.4-9.4-.8-13.2-17.8-15.5-25-4.3 5.7-6.4 17-8.3 23.8-1.8 6.6-3.9 20.6-13 12-6.2-5.8-3.8-17-2.7-24.4.4-2.4 5.5-23.7 3.1-24.9-3.4 3.7-7.4 9.7-13.1 6.5-5.1-3-3.5-9.4-3-14.1 1.1-13.4 5.7-26.1 9-39-1.9-.5-6.6-.9-8.1-2.3-2-1.9-.8-2.8-1.7-5.1-1.2-3.2-3.4-6.4-5.1-9.5-5.6-9.8-7.3-19.7-10.2-30.4-2.8-10.4-8-19.5-10.9-30a793 793 0 00-10-34.6c-8-25.3-19.4-49.4-32.6-72.4-1.7-3-16-35.5-18-34.6-1.6.7-2.5 9.1-3 11.4-1.4 5.3-1.6 10.8-2 16.3-5.2 12.6.4 34.5 3.5 47.2z"/><path d="M220.8 269.5c5.3 1.3 7.2-11 7.8-14.9a42.6 42.6 0 0111-24.6c1.3-1.3 4.3-3 5-4.4 1.8-4-.3-13.8-.3-18.2 0-2.9-1.8-16 1.5-17 4.3-1.2 5.5 10.9 6 13.6.5 3 .4 6 .7 9.1.3 2.9 1.9 4.7 2.5 6.6 1.7 5.4-2.4 10-5.3 15-3.2 5.4-6.7 10.7-9 16.7-2.4 6.5-2.3 13.3-4.2 19.8-3.1 10.7-16.3 16.5-27 13.4-5.6-1.7-4.4-5.5-6.2-9.9-.6-1.7-2.5-2.6-3.1-4.8-.6-2.4 0-5.4.4-7.8 2.2-11.5 5.9-23.5 9.4-34.7a121.6 121.6 0 01-61.3 17c-11-.1-18.9-2.5-26.8 6.8-6.1 7.3-6.1 20-8.6 29-2.8 9.8-5.2 22.3-11.4 30.5-7.4 9.8-17.6 8.2-18.4-5-.6-11.2 5-21.8 4-33.2-.5-5.7-2.7-10.8-2.6-16.6.1-5 1.1-9.6 2-14.5a45 45 0 00-27.1 13.3c-7.3 7-10.3 15.8-16.3 23.8C38 286 33.2 296 22.4 295.7c-13.8-.3-14.7-17.3-9.5-26.3 2.7-4.7 6.3-8.3 9.7-12.4 3.7-4.5 4.1-8.1 5-14 .5-4.3.7-10.1 4.6-13 3.6-2.7 8-1.4 11.4-4.9 3.1-3.3 5.6-8.3 8.4-12 3.6-4.5 7.2-9.2 10.4-14 6.7-10.5 15.6-17.8 25-26-3.4-2.1-12.3.2-16.6-.4-6.9-1.1-15.8-4.4-21.2-9.2a50.4 50.4 0 01-17-37.4c-.5-14.2 1.7-31.3 12.2-41.9A76 76 0 0164 70.7c4.5-2.3 13.8-7.3 19-5.2C95.2 70.2 67.8 89 64.2 92.2c-11.5 9.6-18.2 18.8-18 34.3.3 15 14.7 22.1 26.8 27a53.5 53.5 0 0020.8 4.5c8-.2 13.3-4.8 20.6-7.4 14.2-5.3 28.8-8.8 43.4-12.4 14.4-3.4 30.1-2.7 44.9-5 13.9-2 26.9-4.7 40-9.8 13.6-5.2 24-20.8 38.9-22.4 9.2-1 4.7 5.5.7 8.8-4.7 4-9.9 7.5-14.6 11.5a96 96 0 01-40.2 20 339.5 339.5 0 01-35 7.2c-15 2.2-30 1.5-44.8 5.4-8.7 2.3-17.1 5.2-25.4 9-3.3 1.4-10.3 3.9-10.9 6.6-.8 3.5 2 3.5-1.4 6.7-5.7 5.4-13.1 9.3-18.9 15A144.6 144.6 0 0073.3 211c-5.1 7.3-9.2 14.4-16.9 19.5-2.5 1.7-6.8 4.6-9.7 5.4-2.7.7-3.9-.4-6.1 1-6 4-2.5 16.3-4 22.3-2 7.8-7.3 13.6-10.6 20.8 4.6-1 7.8-8.5 10.1-12 2.6-4 6-6.7 9.3-10.1 7-7.3 8.8-17.2 17.2-24 15-12.3 38.5-11.3 51.1-27.8 2-2.7 4-10.4 6.4-12.1 4.5-3.1 4.1 6.1 3.7 8.9a45.5 45.5 0 01-15 26.2c-3.3 2.7-8.1 4-11 7.4l-2.2.9c.4 1.5.6 3 .7 4.7 0 2.8-.6 5.5-.8 8.3-.2 7 1.3 13 2.7 19.8 1 4.8-1.7 15 .5 18.8a179 179 0 0117.4-43.7c2-3 5.8-5.5 7.3-8.7l2.1-2.4a20.7 20.7 0 01-3.3-3.9c-4.8-10.2 5.8-3.9 10-3 7 1.4 15.5-1.5 22.6-1.7a161.6 161.6 0 0042.5-6.3c7.2-2 13.8-6 20.8-7.7-7-4.7-9.2-11-11.6-18.7-1.6-5-7.2-17.4-3.7-22.6 3.9-5.6 5.3 3 6.5 6 2.1 5.2 5.3 14 9.2 18 2.1 2 5 1.8 6.8 4.6 1.4 2 1.6 4.9 1.8 7.2.7 7-2.1 12.7-4.6 19-5.8 15-8 31-15.6 45 4.6.5 9.3-.1 13.9-.6"/><path d="M317.4 152c3.7-.8 15.3-2 12-8.8-3.5-6.8-12.5 4.2-12 8.9m109.8-53.8c-2.2-.7-5.6-2.3-8-2-2.7.1-4.7 2-7.5 2.4-5.7.5-10-2-13.8 4.1 8 0 23.7 2.7 29.3-4.5M278 239.9c7.5 1 11.2-32.2 11.6-36.6-3.3-.3-12.4 6.3-13.2 9.4-.9 3.3 2.1 8.7 2.5 12.2.5 5.1 0 9.9-1 15m42-189.7c-9 1-19.2 3.8-27.5-1.2-6.7-4-9.2-12.7-15-17.7 0 14.5 13.2 26 26.5 30.7 6.8 2.3 17.2-1.2 23.2 2.6 1.8 1.1 5.5 6.2 5.6 8.3.5 7.1-4.6.7-7.5 1-4 .3-9.6 10.8-12.9 14-2.5 2.4-5.3 4.4-8.2 6.5-1 .7-5.7 3-6 4.3-.2 1 2.5 4.8 3 5.8a54.2 54.2 0 0014.5 16.5c3 2.4 6 3.7 9 5.7 1 .6 5 6 3.8 5.8 1.7-5 6.4-11 9.6-15.4 3.2-4.6 7.4-9.4 12.9-11.2 2.3-.8 6.3-1.5 8.8-1.7 1.7-.1 3.4 0 5.1.4 2.5 1 3.5.2 3-2.7 2.5-5.4 1-12.2 4.3-17.7a17.5 17.5 0 0117.6-8.6c3.2.3 6.8 1.7 10 1.1 3.2-.5 6.9-3.1 10-4.3 12.2-4.3 27.3-9.6 36.9-18.6 1.5-1.4 5.6-5.2 5.9-7.2l-2.6-5.8c-.2-2.8-1.6-3.5-4.1-2.3-3 0-8.6 3.4-11.6 4.4-3.7 1.2-7.5 2.3-11.2 3.7-6.5 2.4-12.7 4.9-19.5 6.3-7 1.5-10.3 2.4-14-4.2-3.6-6.5-3.1-10.3-11.5-9.3-7.5.8-13.7 3.6-20.6 6.6-4.6 2-10.6 5.6-15.2 6.4-3.5.6-7.2-.8-10.5-1.5-4.2-.8-7.5-.7-11.8-.7M406.8 88h3.8l-8.8-5.2c-4 6.7-14.4 3.8-20.6 7.7-5 3.3-9.9 17.1-5 22.1 6.8 7 10.2-8.5 12.1-12 4-7.3 10-12.8 18.5-12.6m-119.3 14.8c-3-5.7-1-11.2 3.5-14.3 6.5-4.4 13.1-9.2 19.5-14.1a57.6 57.6 0 01-27.6-12c-10.2-7.7-13.2-14.8-12.9-27.7.2-6.5-.7-25 9.8-19.6 8.6 4.4 9.8 16.8 19.2 21 9.2 4.1 20-.2 29.7 3 2.8 1 10.2 7.5 12.4 7.4 3 0 10.5-6.6 13.3-8.1 7-4 16.2-7.8 24-9 5-.6 6.6-1.1 10.2 2.5 4 4 5.3 9.1 6.7 14.4A657.8 657.8 0 01441.5 29c5-1.6 8.4-3.7 12.7-6.3 6-3.7 9.4-2 10.5 5.7 2 13.7-6.4 22.4-13.6 32.6-4 5.6-6.7 9.6-13.2 12.5-6.8 3-15 2-22.3 4.2 2 2.3 3 7.7 4.6 9.3 1.3 1.3 7.8 1 10 2.2 6.5 3.5 5.7 9.2 1.7 14.8-4.6 6.4-11.3 7.6-18.7 8.2-3.3.2-6.2.2-9.5 0-2.2-.1-9.6-2.4-11.2-1.8-2 .8-2.4 5-3.2 7-1.4 3-3 6.1-6.2 7.5a9 9 0 01-8.5-.8c-3.5-2.2-2.5-4.8-4.7-7.7-.2-3-1.5-3.6-3.8-1.8l-5.5 2a44.2 44.2 0 00-10.6 5c-6.3 4.4-10.1 11.8-17.2 14.9 4.6 7.8 1.8 18.5-6 22.6-1.7 1-3.9 2-5.7 2.7-1.4.4-5 0-6 .8-1.3 1.1-2 11.7-3 14.1-3.3 8.1-10.2 12.2-14.3 19.5-4 7.2-3.1 18.4-4.3 26.4-1.4 10-2.3 20.6-6.6 29.9-2.9 6.2-11.5 13.6-19.1 12.4-11.2-1.8-6.3-16.1-2.9-22.3 5.3-9.5 5.3-16.7 4-27.2-4.5.7-15.4 5-14.9-3.4.4-5.7 12.8-11 17.1-13.9 9.8-6.5 19.9-14 28.2-22.4a50 50 0 0010-14.6c1.3-3.4 1-6.8 1.3-10.4.3-3.3 3.2-7.8 3-10.7-.2-4.3-11.5-11.2-14.7-15.7-4.6-6.5-8.5-14.2-11.4-21.6M514 117.2c3.5-.5 16.9-4.2 19.1-.7 4.2 6.3-8 7.4-11.1 8-13.7 2.5-27 5.9-40.2 9.6a455.6 455.6 0 00-77.7 29c-3.8 2-15 9.7-19 5.8-4.9-5 7.2-10.7 10-12.2a318.8 318.8 0 01119-39.5M185.3 450c19.5-3 40.8 1.3 59.8 7.3 6 1.9 12.4 4 18 7.2 3 1.7 10.1 4.6 11.8 7.7 2.9 5.3-.3 7.5-4.9 6.6-4.3-.8-9.6-3.3-14.2-4.4a427.8 427.8 0 00-62.2-11.2c-5-.5-8.7 0-13.5 1-3.7.6-13.2 4.5-16 2.2-9.7-8.3 16.5-16 21.2-16.5M489.7 490c1.4 7.4-2.4 8.1-8.7 11.6-6.5 3.5-12.9 6.4-19.7 9.3-7.3 3-15 6.2-22.7 8.5-6.4 1.9-16.4 6.2-23.1 5.5-2.7-.2-4.5.1-4.5-3.2 0-3.7 3.4-3.4 6.2-4.3 8.7-2.4 17-6.1 25.6-9 16-5.6 32-10.2 47-18.4M4.3 127c-5-8.3-4.9-19.3-3.5-28.7C1.3 95 9 71.8 13.5 76.7 16.2 79.5 6.9 97.9 6 102a40 40 0 00-1 15.2c.2 1.4 3.3 10.3-.7 9.8"/><path d="M267.3 174c-3.6-5 1.3-16.3 2.8-21.6.9-3.3 3.7-15.7 8.1-13 4.3 2.5-.5 14.1-1.3 17.3-1.3 4.8-3.2 17.2-9.6 17.3M675 441.8l2-4.8c1.7 1.3 4.1 2 2.4 4-1 1.1-2.9 1.1-4.4.8m-62-313.5c-3 .4-5 .5-8 .4l8-.4M710.5 362v-6 6m-484-150v-6 6M320 36.8h-6c2-.9 4-.5 6 0M81 173.5h3-3M645.5 527v-4 4m50.9-262l.2-4-.2 4M605.6 63l-.2 4 .2-4m256.9 439v-4 4M464.6 41l-.2-4 .2 4M46.4 127l.2-4-.2 4M407 112.5h3-3M743.6 45l-.2-4 .2 4m125 439l-.2-4 .2 4M371 473.5h3-3M696.6 292l-.2-4 .2 4M217 449.5h-4 4m-32-.2l-4 .4 4-.4M695.5 283v-3 3m45.1-195l-.2-3 .2 3m-306.1 9v-3 3M295.3 372.2l1.7.1c-1.2 1-2.7 0-1.7 0M356 472.5h2-2m511.6 3.5l-.2-3 .2 3m-780-197l-.2 3 .2-3M546 150.2c-1.2 1-2.6.4-4 .4l4-.4M861.5 515v-3 3m-226.1 37l.2-3-.2 3M70 172.4l2 .2-2-.2m444-55.1l-4 .4 4-.4M417.6 648l-.2 3 .2-3M389 608.7l8-.4-8 .4M632.4 515l.2-5-.2 5M686 63.7l5-.4-5 .4M210 403.3l5 .4-5-.4M328.5 365c-.7-1.5-.6-2.8.2-4a6 6 0 01-.2 4m78 226v-4 4M359 457.3l4 .4-4-.4M334 370c-.1-1.7.1-2.3 1-1.9.1 1.5-.1 2.1-1 1.8M842.5 492v-3 3M699 63.5h4-4m-33 122.2l4-.4-4 .4zm-63 167.8h-2 2M626.4 544l.2-3-.2 3M472 559.5h-2 2M327.8 129c1.4 1 1.6 2 .6 3-1.6-.1-1.8-1.1-.6-3M403 87.5h4-4m-53 18.2l4-.4-4 .4zm180.8 183.7c-9.8 1-22.2.1-31-4.6-6.2-3.3-9-14.2-.1-15.7 5-.8 11 3.6 15.4 5.3 5.3 2 10.7 3 16.2 4.4 3.7 1 9 3.4 5.6 8.6-.6 1-6 3.8-6 2M669 337.6c-1 6.3-1.1 13.2-4.1 19-4.4 8.3-5.2-.6-4.5-5.1 1-6.8 1.5-13.6 1-20.4-.4-5.6-4.1-12-1.4-17.1 7.5 4.8 7.6 15.7 9 23.6m.3-195.6c-4.1-1-10.9-3.7-5-7.6 2.3-1.5 7-.8 9.6-2.2 1.7-1 2.6-2.8 4.2-3.5 5.3-2.3 5.8 1.6 3.8 6.6-2 5.2-7.2 7-12.6 6.7m-2.3-33.1c6.7-5.1 5.8 1.2 2.2 5.7l-4 4.5 1.2 1.5c-.2 2 1.7 3.5-.6 4.9-4 2.2-6.8-3-6.8-6 0-4.7 4.8-7.8 8-10.6"/><path d="M666 109.3c-6.3 6.2-6-6.3-2.7-9 6.5-5.2 2.3 6.8 2.8 9m12.1 4.7c-.5-2.2-.5-12.7 3.9-12 4.8.8-.5 12.3-3.9 12m-8.2 28.5h2-2M365.3 64c-5.4-9.2 7-25 13.2-12.2.8 1.7 2.7 6.4.4 7.8-2.4 1.5-2-.7-4-1-2.3-.4-1.6-1.6-4.3-.3-2 .8-3.9 4.1-5.3 5.7"/></g></g></svg>