<svg xmlns="http://www.w3.org/2000/svg" viewBox="0 0 1024 768"><g fill="#FFFFFF00" fill-rule="evenodd"><path d="M-57-46H967v768H-57z"/><path d="M826 639.2c5.2 2.6 10 2.6 15 4.7 5 2 6.3 10.4 10.6 11.5-19.9 2-39.4 6.5-59.5 4.3 1.8-7.1-1.4-14.4 2.8-21 11.2-10.6 18.5-6 31.1.5zm-83.7-487c.2 5 .6 7 4.1 10.1 2.8 2.6 4.3-1.2 4.6 3.7.2 2.9-2.8 4.3-4 6.6-5.6 11.4-1.7 26.2 1.1 37.5 5.7 23.1 19.5 48.2 9.8 71.7-1 2.3-1.8 7.4-3.7 9.3-2.5-1.4-4.3-.8-5.5 1.7l-2 2.3c-4.5 4-9.1 5.6-15 3.4-11.7-4.3-13.6-18-13.7-28.7a157 157 0 015.2-35.7c1.3-5.5 3.3-12-.5-17.2-3.5-5-7.8-2.2-11.3-4.4-3.6-2.3 1.7-19.6-2-24.2-6.3-8-8.5 11.6-8.6 15.6-.1 4.4.1 9.5 2.2 13.4 1.6 3.2 6.9 5.9 7.8 9 .8 3-2.9 10.6-3.5 13.8-.8 4.8-1.1 9.8-1.4 14.7-.9 16.6 1.8 34.1 13.2 47 5 5.7 13.5 12.1 21.5 11.1 7-1 14-4.7 20.6-7.3a328 328 0 0018.1 49.3c6.1 14 12 28.2 18.3 41.9 13.6 29 35.6 53.6 52.9 80.3 16.6 25.9 25.9 55.5 28.1 86 .6 7.2-1.5 17 .1 23.8 1.6 6.3 3 9 2 16-1.2 7.6-3.4 14.7-2.5 22.5.9 6.9 4.2 17.2.6 23.6-4.3-4.6-8.7-6.8-11.3-13-2.6-6.2-1.6-11.3-7.6-14-5.2-2.4-8.9-1.9-13.4-5.7A50.4 50.4 0 01833 564c3-9.4 12.3-27 25.2-20.7-2-3.9-3.2-8.2-6.8-10.7-3.2-2.3-8-3-11.6-5.5-4-2.9-8.4-5.9-12.9-8-1.7-.8-3.3-1.2-5.1-1.7-2.1-.7-6.2-.2-6.5-.2a35.3 35.3 0 01-20.7-10.4c-3.6-4.2-6.7-8-9.3-12.8-3.5-6.2-4.8-5.8-11.5-7.3-9.7-2.1-15.8-3.6-23.6-10.8-8.6-8-14.9-17.9-21.2-27.7-3.6-5.7-6.9-6-12.9-8.3-3.5-1.3-8.3-7.3-11.5-7.7-.9-.2-5.3 1.8-6.8 2-2.6.5-5 .4-7.6.1-6.1-.6-11.5-2.2-15.6-7-12.7-14.7-16.5-49.4.8-62 3.3-2.3 7.9-3.4 9.8-7.4 2.3-4.5 1.3-13 1-17.9-.1-5.4-.4-11.4-1.2-16.8-.4-2.4-.7-3.5-1.7-6-2-4.9-2.6-4.2-6.7-5.4-5.9-1.6-8.5-1-12.2-6.6-2.8-4.4-4.2-10-4.5-15.3-.2-5 2-9.5.2-14-2.7-6.5-7.8-11.4-10-18.6-1.8-6-6.6-19.4-2-25 2.2-2.4 6-2.8 8-6.1 3.7-5.8 5.2-9 10.7-13.5 4-3.4 7.8-8.4 12.7-10.5 4.7-2 9.2 1.2 13 .3 4.3-1 3.2-10.7 4.3-15 1.6-6 5-12.2 9-16.8 1.4-1.6 3.1-1.9 4.2-4 1.5-2.7.9-6.7 2-9.7 1.3-3.6 4.6-9.9 8.2-11.9 10.7-5.8 13.9 9.2 22 7.2zm-25 430.3c1.6 4 .7 10.6 2.5 14 1.3 2.8 6.9 4.6 9.6 7.9 5.8 7 8 18.4 5.9 27.2-7.1-1.8-11.9-2.9-19-2a385 385 0 011-47zm-87.6 12a24 24 0 016.5 18.9c-.2 2.6-1 6.1-1.8 8.6-.8 2.7-4.9 7.8-3.3 9.2-4.5-.3-9.8.3-13-2.7-3-2.6-5-9.3-6.2-12.9l6.8-13.6c1.5 2.4 5.9 8.5 9.5 6.5 2.7-1.4.5-11 1.5-14zm169.4-42c5.5 5.2 7.4 14.4 7.1 21.6.1 9.9-3.3 29.7-16.2 30.4-10.3.5-21.4-14.3-22.5-23.5-1.3-10 2-34 15.2-36 4.8-.8 12.9 4.3 16.4 7.5zm-92.5 12.8c.3 6.5.4 12.8-.1 19.2-.5 5.4 1 11.8-.2 17-7.7-8.6-17.8-17.9-17.5-30.5.3-11.9 10.2-10.9 17.8-5.7zm-77-143l6.3 7c.2 9.9 0 19.7 3 29.2 3.2 10 8.5 19.6 13.7 28.7 10.2 17.5 12.6 34.1 13.9 54.2-19.2-8.5-29.6-37.9-36-56.2-3.3-9.7-6.8-19.5-10-29.2-3-9.7-8.6-22.3-5-32.4 7 5 10 7.7 14-1.3zM749 491.5c9.3 7.5 10 18.9 13.4 29.3-2 1.5-4 2.9-5.8 4.7-1.1 1-3.7 5.5-4.5 6-3.3 1.8-6.2-.6-9.4-3.5a39 39 0 01-10.1-26.7c.3-10 7.4-16.9 16.4-9.8zm130.9-43.7c12.1 7 9 26.3 7.5 37.1-1 6.8 1.1 13.8 1 20.3-.2 7.3-4 5.8-6.4 10.3-2.1-5.5-6-12.1-6.9-18l-1.4-3.6c1.2-.4 1.8-1.3 2-2.4.4-2.8.4-5.7.6-8.5.6-11.8 1.5-23.6 3.6-35.2zm-185.3 13c-1.4 5.2-2.4 14.8-10 11.8-5.9-2.3-7.3-11.8-7.3-17 0-4.4.7-12.4 6.7-12.7 7.5-.3 10.1 13 10.6 18zM637 318c-5 8-8.5 20-6.1 29.5 2.4 10 10.2 12.5 17.1 5.1 5.7 9-6 25-16.4 16.4-2.3-1.8-3.8-5.4-6.6-6.5-2.3-1-4.3.3-6.6-.2-7.2-1.6-10-8.7-12.8-14.6.8-4.8 1.6-9.6 2.7-14.4l1.7-7.6c1-4.3.6-3.8 3.8-6 8.2-5.6 14-5.9 23.2-1.7zm4.3 4.4l6 13.4c-3.3-.8-6.9 9-9 11-1-8.2 1.4-16.4 3-24.4zm-3.4-45.9c5.5 2.3 6.6 12.3 6.8 17.1-1.5 5-3 11.6-9.3 8-4.2-2.4-6-10.2-6.2-14.5-.2-5.4 1.9-13.5 8.7-10.6z" fill="#123456"/><g fill="#000"><path d="M597 159.8c-2.2 1 2 8.6 2.7 10 1.8 3.6 3.9 11 8 9l-10.7-19M69 598.1c-3-1.3-7 10.2-7.6 12.5-1.5 6.5-.2 10.9 5 15-2.2-9.2.4-18.4 2.6-27.5m694.3-491.3c-3.7-4.9-9.1-14-16.7-9.1-3 1.8-5.2 7.9-7 10.8-3 4.7-5.8 9.1-8 14.1 3.8-1.5 6-4.8 9.3-6.7 2.3-1.2 4.4-1.3 6.6-2.2 4.8-2 11.5-4 15.8-7M153.4 585.3c2 8 4 15.8 5.5 23.9 1 5.4 4.6 13 2.7 18.4l14.5-2a90 90 0 01-6.5-25.5c-.7-5.4.2-7-3.9-10-3.1-2.2-8.6-3.3-12.3-4.8M126.8 282c9.3 9.2 17.4 19.8 27.2 28.4 5 4.5 10.3 8.9 15.6 13.2 4.4 3.7 11.5 11.7 17.3 12.9.7-3 2.4-7.8 2-10.9 1.6-1.7 1-3-1.6-3.8l-5-4c-6.4-5.3-12.5-11.1-18.6-16.8-6-5.8-11.7-11.7-17-18.2-2.7-3.4-4.3-6.8-8.9-7.8-5.4-1.2-7.2 3-11 7m184.9 343.8c-.3 5 12.1 8 15.9 8.4 10.1.8 16.7-3.6 20.2-12.4 7.3-18.3 19-34.4 23.8-53.7 1.5-5.7 2.7-8.3-2.4-11.2-2.1-1.2-7.7-3.8-10-2.3-2.1 1.4-4 8-5.3 10.3-2.3 3.7-4.8 7.3-7.2 11-11.4 17-22.8 33.5-35 49.9m-146.9-252l47.5 27.2c2-6.8 3-14 4.8-20.8 1.3-5 4.7-11.8 4.5-16.1-.3-6.5-5.3-15-7.5-21.1l-8-22.9c-3.7 3.5-8 6-8 10.5 0 2.6 1.7 4.2.7 7.2-.7 2-3.7 4.8-5.1 6.4-4.3 4.5-4.1 4.7-8.6.5l-20.3 29.2m52.3 127.3c.7-6.5 1.6-12.8 3-19.2 1-4 4.8-12 3.5-15.8-1-2.7-6.4-5-8.6-6.6l-18.3-13.2c-5.4-3.8-10.8-7.6-16.1-11.6-4.9-3.6-8.6-8.2-14.5-9.8-5.1-1.4-11.7-.5-17-.7-7.2-.2-14.5-.3-21.7 0-24.1 1.2-51.1-.4-74.3 6.3-11 3.1-18 5-24.1 15.4-7 12-13.1 24.5-18.3 37.4-.7 2-2.4 4.6-2.4 6.7.1 4 1.6 3 5.3 5.3 4.1 2.4 8.2 5.3 12 8 6.8 4.8 15 9.7 22 13.3 8.4 4.4 16.8 8.4 25.3 12.8 5.4 2.8 11 5.1 16.3 8.2 5.8 3.4 12.2 4.3 18.4 7 19.1 8 37.7 15.6 56.5 24.8 18.4 9 37 16.7 55.7 24.7a614 614 0 0073.7 27c1.8.5 5.7 2.3 7.6 2.2 3.9-.2 4.8-3 7.1-6.2 4.6-6.4 9-12.8 13.5-19.3 9.6-14 19-28.3 29.3-41.8-29.3-8.1-56.4-23.2-82.1-38.7-1 3.1-2 10-5.5 11-4.3 1.2-7.5-4.8-9.4-7.5-1.9 4.5-5 20-10.9 19.7-8.1-.5-6.7-13.3-7.7-18.4-4.5 6-9.7 12.8-15.8 3.6-4.2-6.3-3.8-17.5-2.5-24.6m339-73c-3.8-1.2-7.6-2.3-11.2-3.6-1-2-2.6-2.7-4.9-1.9a203.7 203.7 0 01-29-6 268 268 0 00-19.4-5.1c-4-.9-21.6-5.9-24.2-3-.8 1 .6 12 .4 13.9-.3 3.4-.5 9.1-2.7 12-.8 1.1-4 2.4-5.2 3.2-3.8 2.8-7.3 6.3-11 9.2-8.2 6.4-16.2 13-24.5 19-6 4.4-12.7 6.6-19.2 9.7 4.6.9 13.8-3.6 18.5-5 6-1.8 12-3.8 18.3-5.5 12.8-3.4 25.9-7.2 38.9-10.8 8-2.2 16.4-4.5 24.1-7.5 3.5-1.3 6.2-4.3 8.4-1.2 1.8 2.5-.3 5.7-1.7 7.5-8.1 10.6-30.2 13.2-42 17.6-13.3 5-26.4 10.2-40.1 13.7-16 4.1-33.4 7.2-48.3 14.4-12.4 6-26.4 8.2-39.6 11.7-12.3 3.3-27 4-38.7 9.5 5 4 12.5 6 18.4 8.7 7.2 3.3 14.5 6.3 21.6 9.8 3 1.5 6.2 3.7 9.3 4.9 3.9 1.6 3.4.7 7.4.4 6.2-.5 14.7-1.6 19.8 3 6 5.5 2.2 11.5 3.1 18.2.6 4.6 1 3.9 6 4.6 4.8.6 9.5 1.4 14.1 2.4 5.8 1.2 11.6 3.3 17.2 5.1 8.7 2.8 9.6 6 18.7 2.5 25.7-10.3 52.3-18.7 78.2-28.4 11.9-4.5 23.9-13 35.1-19.6a109.9 109.9 0 0037.2-31c4.4-6.4 9-17 8.1-24.9-.8-7-6-14.8-9.3-20.8-4.3-7.7-8-10.6-14.6-15.7-4.5-3.6-11.5-11-17.2-11m-286.5 59.4c.4 4-1.9 19.8.4 22.3 3.8 4.2 13.2-.7 16.8-2 11.8-4 25.5-3.1 37.5-6.3 11.7-3.2 23-7.2 34.8-10.4 6.3-1.7 12.2-4.3 18.4-6.4 6.9-2.2 14.6-3.5 21-6.8-.8-2-28.5 2.7-31.6 3a120 120 0 01-31.9-2.8c-23.7-4.4-46-14.7-69.4-21.4 1 10.8 31.4 13 27.8 25.4-1 3.5-14.6 9.2-19 7-9.2-4.4 2-10.7 6.5-12.2-6.9-4-13.5-8.3-19.8-13.2-6.8-5.2-9.7-12.6-13.3-20.1-7.6-15.9-25.5-25.1-39.5-35-15-10.6-31-19.7-46.1-30.4-2.7-1.9-4-1-5-4.5-1-3.7 2.8-8.4 4.6-11.2 4.7-7.5 10.2-14.5 16.5-20.8-8-5.5-16.8-10-24.4-16.2-7.6-6.3-14-14-20.7-21.2-10.8 23.5-26 45.3-37.9 68.4-4.7 9-7.2 22.9 0 31.7 7.5 9.3 21.5 5.6 32.1 6.1 11.2.6 21.4 1.8 32.5 5 5 1.4 9.5 1 14.3 3.3 5.7 2.7 11.2 6.2 16.6 9.4 10.5 6.3 20.4 14.2 30.3 21.4 4.1 3 26.2 20.5 8.7 17.8 0 16.3-2.8 33.1-4.4 49.4 4.2-5 7.2-10 9.7-16 1.5-3.5 1.5-12.5 6.5-10.4 7.5 3.2 1.6 27 1.6 33.3 1.9-3.5 3.2-7.4 4.5-11.2 1-2.9 2.3-11 4.4-13 7-6.4 8 11.2 8 14.9a67.4 67.4 0 003-20.3c0-2.7-.6-7 .1-9.6 1.1-4.3 1-4 5.6-5.9l.8 9m218.4 138c.6 5.6 2.7 9.6-1 14.6 7.1-.5 14-1.1 21-1 5.8.2 14.2 1.5 19.5-1 2.2-1 2.9.8 4-1.1 1-1.8-1.4-7.8-1.7-9.2-1.4-7.1-2.1-14.4-3.4-21.5-1-5-3.5-14.6-.2-19.2 4.8-6.8 7 2.8 8.2 7 4.1 14 3.9 27.4 3.9 41.9 6.2 0 14.4-2.8 20.4-4.4 8.3-2.3 17.2-4.6 25.2-7.6a39.5 39.5 0 0019-13.4c3.6-4.9 11.6-17 9.6-22.4-2.4-6.7-14-11.2-20.1-12-8-1-16.2.7-24.4 1.4-8.8.7-17.3 2.6-26 3.6-8.4.9-19.7 3.7-27.8 1.6-.2 3.4 2.6 7.9 3.5 11.3 1.3 4.5 2.5 9 3.5 13.6 1.1 4.9 8 22.4 1.8 25.9-7.4 4.1-11-13.5-11.9-17.8a71.4 71.4 0 01-1.7-30.8c-9.5-1.6-20.8.9-30.5 1.5 3.6 12.8 6 26.1 9.1 39m-405.8 5.6c3.3 1.4 7.8.7 11.4 1 5.5.4 11.1 1.4 16.8 1.2 8.5-.3 17.5-1.3 26-2.3A61.5 61.5 0 01128 604c-.3-3.7-2.2-26.1 4.5-25.2 3.2.5 2.6 19.7 3.2 23.2.9 5.1 2 10.4 3.5 15.4 1 3.7 4.6 9.1 3.7 13l12.9-2a68.3 68.3 0 01-7-20.2c-.7-3.6-.3-8-1.5-11.5-.7-2.1-2.4-4.2-2.6-6-.3-2 2-7.2 1.2-9-.9-1.9-6.7-3.5-8.7-4.6-5.6-2.7-8.8-3.4-15-1.8-12.2 3-31.2 5.2-40.2 13.5-8.9 8.2-12.1 35.8.2 42.5m527-399.4c3.3-.4 6.6-.6 10-.8a217.5 217.5 0 01-19.2-32.6c-2-4.3-2-7-6.5-8-6.2-1.1-14.5 1.2-21 1-4.9-.2-16-4.9-20-3.2 3.7 7.4.8 19 1 27 0 8-1 15.7-2.3 23.6 8.4 0 19-3 27.6-4.3 10-1.5 20.2-1.6 30.3-2.7M474.4 641.2c3.3-.4 6.4-.6 9.7-.6-7.4-12-13-25.5-13.1-39.9 0-1.8 2.2-12.6 1.5-13.5-1.5-1.8-7.5-.4-9.2-.2-6.7.6-14.3.6-20.6 3-4.4 1.7-4.5.7-6.2 5.9-1 3-1.8 6.5-1.8 9.8 0 6.5 2 14 4.7 20a31 31 0 0012.1 14.5c6.4 3.4 15.4 1.4 23 1M542 193.4c-1.3-4.8-.7-3.7-5-4.3-.9-.1-10.7 0-11.2.6-.7.7-.4 10.5-.5 11.6-.3 3.8-.7 7.7-1.2 11.5-1.7 15.5-4.9 30.5-7.3 46 6-3.8 14.6 1.3 19.7-2.7 4-3.2 3.4-13.3 3.7-17.8 1-15 1.3-30 1.8-44.9m215.2-18.1l-1.6 2.6c2 1.3 14.3-12.3 17-14.7 3.6-3.2 9.3-7.5 11-12.3 1.8-5.5 0-14.1-.5-19.8-.3-4 .4-9.7-3-12.5-3-2.7-10.5-2.6-14.1-2-10.9 1.6-17.4 10.6-22.9 19 5.6-.6 25.2-9.6 27.5-4.7 3.3 7-17.3 13.3-19.3 19.4 4.2 1.5 13.5-4.2 10.8 5.4a7 7 0 01-2.3 3.3c-2 .7-2.4 2-1.4 3.8-.8 3.8-.6 8.6-1.2 12.5M882 515.5c0 2.3.2 4.5 2.1 6 4.1-13 5.4-26 7.1-39.7 1.7-13.6 3.6-27.5 3.8-41.1.3-15.3-1-31.8-3.6-46.9-1.9-11.7-3.4-26.2-10.4-36.2 4 26 2.8 50.5 0 76.6-1.4 13.8-3.4 27.5-4.3 41.4-.2 3.7-.3 7.4-.6 11-.2 2.2-2.4 6.3-2.4 7.3 0 6 6.2 16.2 8.3 21.6m-212-20.2c3.3 7.6 7.1 15.1 9 23.2 2.2 8.6 1.3 16.6 1.6 25.2.6 14.4-.6 28.7-.4 43.2.2 12.2-.3 24.2-.2 36.4.1 7.7-.3 15.3-.3 23 0 0 .3 6.9-.2 7.2-2.4 1.6-5-.6-5.7-2.8l-7 8c3.7-1 8.2-2.9 12-3 1.4-.6 2.9-.6 4.3 0 1.5.8 2.5 2 3.2 3.5 10 2.1 15.9-6.7 17.7-14.6 3.8-17.2 2.5-34 2.2-51.4-.6-37.6 5.3-75 4.8-112.6-.1-7.3-.4-14.5.7-21.7 2-13.5 5-1.2 5.5 5.2 1.4 19.1 4 38.9 2.6 58.1-1.3 17.4-1.2 34.9-2 52.3-1 18.5-2.4 36.6-1.6 55.1 5-.6 21-1.6 22.6 5.4 1.5 6.1-4.4 3.8-7.4 3.6-5-.4-9.7.7-15-.2.3 8.1 1.4 19.1-5.9 24.7a62 62 0 01-13.7 6.7c-4.2 1.6-11.1 5-15.4 4.9-3-.1-4.2-1.8-7.6-1.5-5 .4-9.2 3.7-14.4 1-10-5.2-5-20.3 1.2-26.3 1.6-1.6 3.4-3.3 5.6-4 1-.4 5.4 0 5.8-.5 1.9-2-.4-13.7-.7-16-1.2-11.5-2.6-23.4-3.2-35l-1.4-33c0-2.4 1-7.3 0-9.4-1.7-3.5-9-5.7-12.2-7.3 2.9 27.7 7 57.4-3.2 83.7-2 5.3-4.3 12.7-9.5 15.7-4.8 2.7-16.2 2.3-22 2.6-6.3.4-12.4-1-15.9-7a8 8 0 014.5-12.1c3.3-1.2 4-.4 7 1 .5 1 1 2.1 1.2 3.3h2.3c3 1.4 15.2 2.9 18.5.7 3.9-2.5 4.7-9.3 6.4-13.3 3-7.5 3.9-13.5 5-21.5 1.7-12.5 0-27 0-40v-11.1c0-5.5.5-5.5-2.7-9.5-4.7-6-10.2-12.2-15.3-18 2.8 17 1.7 34.7.6 51.4-.6 9.5-2 19-2.5 28.4-.2 2.8 1.8 10.5-1.4 11.7-3.3 1.3-7.4-4.6-8.8-6.7-7.2 14.5-15.9 28.5-30.9 36a86.7 86.7 0 01-24.1 7.1c-7.8 1.4-15 4-22.7 5.2a238.5 238.5 0 01-46.5 2.3c-15.1-.5-29.6 2.2-44.6-1.3A30 30 0 01434 643c-2.2-2.5-3.2-6.4-5.4-8.6-.5-3-2.2-3.9-5.2-2.7-1.8 0-3.7 0-5.5-.2-15-.8-31.9 0-46.5-4.2-5.5-1.7-11.7-4.4-9-11.3 2.5-6 9.1-4.2 14.6-3.7 16 1.5 31.6 4.3 47.7 5.8-.5-8.5 0-17 3.3-25a174.8 174.8 0 01-43.3-10.5c-5.4-2-4.3-2.4-7.4 1-4 4.2-6.3 13.1-9.1 18.3-3.2 5.8-6.3 11.5-9 17.6-2.5 5.7-4.4 13.4-8.3 18.3-8.5 10.8-28.2 11.8-39.8 7.5-5.7-2-7.8-2.4-11.2-7.5-3.8-5.6-4.7-5.9-11.7-6.6a150.2 150.2 0 01-36-9c-12.5-4.5-25.3-8-37.6-13-11.6-4.7-22.8-9.4-34.8-13-1.4 9 4.5 19.3 4.5 28.6 7-.7 13.4-1.3 20.4-2.4 2.4-.4 18-4 19.5-1.9 6.3 8.6-22.5 12.7-27 13.8-14.4 3.6-29 7-43.5 9.8-14.8 2.9-29.2 5.7-44.3 6.2-25.4 1-60.4-.6-59.2-34 .5-13 5.9-27.2 16.2-35.7a63.3 63.3 0 0122.2-10.7c3-.9 18.2-3 18.7-4-4.3-3.2-11.7-4-16.8-6.3-4.9-2.3-10-3.2-15-5.4a275 275 0 01-50.2-30.6 112 112 0 01-14.8-13.2c-2.2-2.5-6.2-4.7-8-7-6.3-7.6.4-22.8 3-31.8 4-13 9.2-26.9 17-38.2 7-10.4 15-17.4 27.6-19.8 11.8-2.3 23.6-3 35.6-3.6-2-7.7-4.9-13.1-4.1-21.5.6-8 4.7-15.9 7.8-23.1 5.9-13.4 11.4-26.6 19.4-39 4.4-6.8 9.3-13.2 14.1-19.8.8-1 5.6-5.8 5.4-7.2-.2-1.3-5-5.4-5.7-6.4-5-6.3-8.4-13-2.6-19.8 3-3.5 12-10.6 16.3-6.2 4.6-9.4 12.8-15.8 19.1-23.8 8-10 15.5-20.1 22.9-30.5 7.3-10.5 13.4-21.6 23.1-30 10.9-9.4 21.1-8.6 34.5-4.6.8-5.1 1.8-4.4 6.8-6.1l11.2-4.4c4-1.5 7.9-2.4 12-3.7 5.3-1.6 6.1-1 7-8 1-8.5-2.6-17.4-4.9-25.3-1.1-4-2-8.8-4.5-11.4-2.4-2.4-6.5-3.5-9-6.1-22-22.7-22.4-71.2 1-92.3 4.6-4.1 8.4-9.6 14-12.4 6.3-3 14.5-5.5 21.3-7 14.2-2.9 30-2 41.2 8a40.9 40.9 0 0111 19.7c1.8 6.6 1.4 17.9-5.4 7.6-4.3-6.5-8-13.1-15.3-16.3a45.8 45.8 0 00-21.5-3.8A60 60 0 00259 35.2C246.2 49 245.6 70.7 248.3 88c2.4-5.1 4-13.2 10.9-14.2 5.6-.8 14.6 6.4 11.5 12.6C257 83 253 103.8 264.8 105c3.6.4 8.2-6 11.5-4.5 6.3 2.8-2 12.4-3.7 15.6l-2.6 1.6 2.6 6 3 7.7c2.3 6.3 4.6 12.8 6 19.3 1.4 6.7 2 14.5-1.2 20.8-3.6 6.9-7 6-9.8-.5-7.3 4.5-14.6 9.4-23.1 11.2 9 15 20.5 28 38 32.7 14.8 4 33.4 4 47.5-2.7a38.3 38.3 0 0021-39c-.6-5.2-3.6-23.2 3.6-10.2 4 7.2 4.2 18.8 3.3 26.6-4.3 37.5-42.3 51.5-75 42.5-16.8-4.7-29-17-38-31.6L242 190c-.7-1.4-1.4-3.4-2.4-4.6-4-4.8 0-2.1-4.2-2.7-6.5-1-16.6 4-21.4 7.9-13 10.6-20.2 27.6-30.2 41a235.6 235.6 0 01-37.6 38.3l45.9 47a47 47 0 0010-16.2c.5-2.7-1.7-11.7 5-7.7 4.7 2.7 6.4 14.3 7.8 19 2.3 7.4 6 14.3 8.4 21.6 4.5 13.4 10 26.8 14.6 40.4 1.8 5.5 7.1 12.3 2 17-7.7 7.1-10-6.9-12-12.2-3 4-2.6 10.4-4 15-1 2.9-3.7 7.3-3.6 10 .2 4.8 4.5 6.3 8.4 9 7.3 4.9 14.7 9.7 21.4 15.5 2.7 2.4 5.3 4.9 7.3 8 1.8 2.7 2.3 8.8 4.3 10.6 2.5 2.5 12 .8 17 1.3 8.3 1 16.7 3.9 24.8 6 14.3 3.8 29 9.2 44 11.2 14.8 2 28.6 1 43.2-1.6 8-1.5 16.7-3.2 24-7 8.4-4.5 15.9-11.6 23.7-17l10.8-6.9c4.8-3 3.5-2.4 3.8-7.2.4-5.6 2.7-16.3-1-21.2-1.6-2.1-6.4-3.6-8.6-5.1-3.3-2.2-6.2-4.8-9.7-6.6-3.9-1.9-4-.4-5.8-5.1-1.6-4.3-2.6-8.8-4.1-13.2-6.8-19.8-8.6-40-11.4-60.8-1.3-9.6-4.5-22.8-.9-32.1 5.1-13.1 9.3 5.2 10.4 9.8 4.8-8.2 7.6-17.4 12.6-25.5 3-4.8 4.3-7.2 6-12.4.7-2.1 1-3.9 2.3-5.6 3-3.7 3.5-1.6 6.6-1.7 9.7-.3 19.3 0 29 .4 5.5.2 10.9.4 16.3.4 2.6 0 5.3-.2 8 0 1.4 0 2.8 0 4.2.3 3 1.4 4 .2 3.4-3.5 2.5-5.3 2.3-13.8 3.2-19.6 1-5.8 1.8-11.7 2.5-17.5.4-3.1 3.8-15 2-17.5-1.8-2.5-11-2-13.8-2.4-18.3-3-35.3-10.6-52.4-16.8-8.4-3-16.4-7.1-24.4-10.8-4.2-2-8.2-6-12.6-7.2-5.6-1.6-13 1-18.6 1.9a276.6 276.6 0 01-31.6 4c-3.9.1-11 1.2-14.5-1.4-7-5.3 1-8.3 5.4-9 20-3 39.9-4.6 60-5.8.9 0 4.3-.8 5.5-.4 2.6.8 1.5 1.8 3.1 2.6 3 1.6 6.2 2.7 10 3.7 10.4 2.8 21 7.5 31.6 11.2 19 6.6 41.7 17.2 60.7 15.3 4.7-.4 8.5-1 13.4-.5 5.7.5 9.1 3.5 13.5 4.3 6 1.2 14.4.3 20.6.5 6 .2 11.9.5 17.8.5a156 156 0 01-11.3-31.6c-1.6-6-4-11.7-3-18.1.5-3 1.7-6 3-8.7 2-4.2 2.6-3.3 3.3-7.9 1-6.3-.4-13 .4-19.4.8-6.5 5.7-12.3 6.3-18.6.3-3.3-1.6-6-1-9.6.4-3.2 2.3-6.5 4-9.2 4-6.3 8.8-9.9 15.5-12.4 5.4-2 12.3-4 17.8-.6s5.1 10.2 7.8 15.2c5.7 10.7 18.9 20.3 29.4 25.8 9.7 5 20.1 8.2 30.5 11.5 6.3 2 12.8 3.4 19 5.7 4.4 1.6 11.7 5.6 16.2 3.2 4-2.1 8.6-8.5 12.5-11.5 4.6-3.5 10.7-7 16.5-3.9 5.8 3 5.3 14.3 9.8 16.4 1.6.7 6.2-1.4 8.4-1 3.4.5 5.8 2.6 7.8 5.2 7.8 9.8 10.2 25.4 10.5 37.5.2 6 0 13.5-3.7 18.7-4.3 6-12.4 6.1-18 10.3-4.4 3.4-7.5 8.9-12 12.5-2.7 2.2-3.8.5-5 4-.7 2.2.8 6.6 1.2 8.7 2.8 13.4 8 25.8 12.8 38.5a94 94 0 015.3 18.4c.7 4.2 0 7.8.2 11.8.3 2.9 1.5 5.4 1.2 8.3-.5 6.2-4 11.7-6 17.2-2.5 6.2.9 17 3.3 23.4 6 15.5 14.2 31 21.6 45.9 7.3 14.6 12.6 30 21 44a573.4 573.4 0 0027.3 39.8c5.1 7.2 10.7 14 15.4 21.5 1 1.6 8 15.2 9.8 14.7-2.2-23.7 0-48.4 1-72.1 1.3-29.7-2.5-56.6-10.8-85-2-6.5-3.7-13.3-5.1-20.1-1-4.7-3.7-8.6 3-6.6 11 3.5 20.7 24.3 26.3 33.4a164 164 0 0124.5 71.2 367 367 0 01-2.7 68.8 165 165 0 01-13.8 51.7c-1 2.3-3.3 4.8-3.7 7.3-.6 4 2.3 9.3 3 13.2 2.4 12.7 2.9 25.9 2.1 38.8-.4 7-1.4 13.2-3.7 19.7-2.8 8.3-1.5 14.6-.3 23.2 1.3 9.2 2.5 30-7 35.2l-2-.2c-1.7-2-3.3-1.8-4.6.4-2.4.8-4.8 2.8-7.4 3.7-6 2.1-12.6 2.2-18.8 3.1-12.3 1.8-24.6 5-36.7 5.3-14.3.5-29.2 0-43.2-2.6-3-.5-6.3-1.9-9.2-2.1-3.9-.4-6.7 2.2-10.7 1.6-6.3-1-10.3-7.6-10.7-13-1.3-17.4 8.4-25.4 24-28.4-10-14.6-21.8-26.5-24.5-45.2a79.4 79.4 0 0113.6-54.4c10-14.2 27.3-23.6 45-20 8.2 1.6 47 13 39.5 26-1.7-5.9-11.9-4.7-16.8-5.6-8.2-1.4-16.4-3.6-24.8-3.1a49.3 49.3 0 00-40 25.2c-9.2 16.9-5 33.7 6 48.1 10 13.2 20.4 27 34 36.6-2.7 4.1-1.7 5.4-7 4.7-3.5-.5-6.8-3.3-10.4-4-7.5-1.4-19.3 4.7-23.9 10.8-2.7 3.6-2.6 5.4 2.4 7.6 3.7 1.7 9.6.8 13.6 1.2 9.9.9 20 1.2 30 1.1 17.1 0 33.1-2.8 50.2-4.6 7.5-.8 15.4.2 22.8-2.6 10-3.8 7.6-14.8 6.3-23.8-1.3-8.9 0-15.7 1.4-24.5.6-3.8 1.7-8.2 1-12-1-4.6-2.7-6.7-2.5-11.8a181 181 0 00-6.3-54.6c-10.4-38-35.9-68-57.1-100.2-6-9-12.3-17.7-17-27.6-4.6-9.3-7.7-19.2-12.2-28.6-9.9-20.7-19.3-42-25-64.2-6.6 2.6-13.7 6.4-20.7 7.3-8 1-16.5-5.4-21.5-11-11.4-13-14-30.5-13.2-47.1.3-5 .6-9.9 1.4-14.7.6-3.2 4.3-10.8 3.5-13.8-1-3.1-6.2-5.8-7.8-9-2-4-2.3-9-2.2-13.4.1-4 2.3-23.5 8.6-15.6 3.7 4.6-1.6 21.9 2 24.2 3.3 2.1 8-.4 11.3 4.4 3.7 5.2 1.8 11.6.5 17.2-2.7 11.5-5.2 24-5.2 35.7 0 10.8 2 24.4 13.8 28.7 5.9 2.2 10.4.7 14.8-3.4l3.1-3.4c1-1.7 2.5-1.9 4.5-.6 1.5-1.2 3.7-9.4 4.4-11.2 9.1-22.3-5.2-47.9-10.5-69.8-3.2-13.4-6-26.8.5-39.7 1-2 4-3.9 2.2-6.9-.5-.8-4.8-1.2-5.9-2-3.4-3-2.6-8.6-2.6-12.6-7.9 2.4-10.1-3.7-9.1-11.1-5.8.9-9.9 2.7-12-4-2-6 1-12.2 2.8-17.7-27-3-56.1-6.6-77.6-25.3A70 70 0 01633 74.5c-.7-1.1-3.8-8.7-4.8-9.1-3.1-1.2-5.7 4.8-8.4 6.3-2.5 1.3-6 2-8.6 2.9-2.6.7-11.6.9-13.1 2.2-4 3.3-3.7 22.4-3.7 26.8A106 106 0 00604 148c5.9 13.1 15 31.1 26.9 39.7a14 14 0 009.5 3c2.7 0 5.4-2 8.2-1 7.2 2.6 4.6 7.5-1 9.9-15.6 6.7-28.9-8-38-18.4-2.6 12.2 9.7 26.7 16.2 36.7 4.2 6.4 8.3 12.8 12.3 19.3 2.9 4.7 8.5 13.4-1.5 9.8-4.9 25.4-18.2 47.7-25 72.4-7 25.3-13 54.3-13 80.7 5.3-3.7 8-20.5 15.1-7.7.8 1.4.5 3.7 1.6 5 1.4 1.6 3 1.2 5.2 2.4 3.4 1.9 5.6 5.7 2.6 9 4-1 8-.5 8.9 4.2.5 2.6-3.4 14.7-6.2 15.7-8.7 3-18.4-14.4-20.7-20-5.5 5.6-11.7 9.7-16.7 1-3.8-6.7-1.6-16.6-1-23.8 1-14.4 2.4-28.5 4.4-42.8a242 242 0 0126-74.7c3.4-6.7 7-13.5 10-20.3 4.6-10.2-2.5-7.8-9.4-6.3-13.5 3-27.7 5.2-41.3 6.2-7.2.6-16.3.9-23.2 3-4.8 1.4-4 .4-5.9 5.5-.8 2.4-1.8 4.8-3.3 6.8-7.8 10-28 8.4-39.1 7.6l2-12.7a121 121 0 01-27.6 3.3c-4.8 0-9.8-.8-14.6-1.2-3.5-.3-10-2.8-13.4-1.8-3.8 1.1-9.6 15-11.7 19.4-4.1 8.3-11.5 17.6-14 26.4-2.3 7.8 2.3 21.3 3.8 29 2.1 11.3 4 22.5 7.6 33.4 2.6 7.9 5.6 18.7 13.5 22.7 7.9 3.9 13.6 6.1 22.1 5.3 15-1.4 31 1 45.9 3.8 15.3 3 29.3 4.4 43.8 9.8 33 12.1 54 49.6 41.5 84a94.5 94.5 0 01-36.2 46.7c-8.8 6.2-19.1 11.2-28.8 16-4.4 2.2-8.8 5-13.3 6.9-3.3 1.4-9 4.7-12.5 5 4 2 7.5.2 11.6-.4 5.9-.8 11.8-1 17.7-1.7 9.2-1.2 18.2-2 27.3-3.2 7.8-1 16.6-1.3 24.4-.2 3.7.6 9.4 1.6 12.7 3.4 2.6 1.5 5 4.7 7.9 6.4 3-12.8 1.6-28.5 1.8-41.6 0-10.7.6-21.2 1.6-31.8 1-12-6.2-25.5-8.9-37.1-2.5-11-9.2-24.8-6.7-36.2 3-14.3 11.2 11.5 12.3 15.2 3.5 11.5 7.6 22.8 11.5 34.2 4.6 13.5 9.3 26.7 16 39.4 5.6 10.6 12 23 23.6 28.1-1-15.5-2-30-8.5-44.3-6.1-13.6-15.5-25.7-19.6-40.2-2-7.3-2.3-14.7-2.4-22.2 0-5 .2-11.8 5.6-6.3 4.2 4.3 5 18 7 23.8.8 2.8 2.1 5.3 3.1 8 .4 1.3 3.5 7.2 3.5 8 3 9.4 10 18.4 14.8 27.1"/><path d="M339.5 152.4c.3 3.7 2.4 13.1-.3 16-3.6 3.8-5.3-1.1-6.9-5-3.2-8-4.8-23.8 1.6-30.5 6.7-7 19.9-7.3 27-14.3 2.9-2.8 2.6-2.2 2.4-6.7-.2-2.4-1.8-5.8-2.6-8-2-5.8-4.2-11.6-6.3-17.3-3.7 1.6-9 6.8-12.7 2.5-3.4-4 2.2-10.7 6.1-11.8-2-4.5-11.6-3.7-13.4-10.2-1.6-5.7 3-3.4 4-5.7 1.1-2.6-1.3-6.2 0-8.6 4.2-8.5 9 7 11.1 9.8 4 5.2 11 6.3 11.6 14.1.4 4.8 0 7 2 11.7 1.8 4.4 4 8.5 5.5 13 2.3 6.7 5.8 19 1.3 25.5-3.8 5.4-13 9.6-19 12-3 1.2-7 1.9-9.5 4.2-3.2 3-2.2 4.8-2 9.3M650 355.7l-2-3.2c-4.7 5-10 7.1-14.7.7-5-6.6-3.1-16.5-1.2-23.7 1-3.7 6-18.4 9.2-7.2.7 2.4-1.7 8-2.1 10.3-.9 4.8-1.5 9.3-1 14.1 5.6-5 8.3-17.5 14-4.5 2 4.8 2.2 12.6 7.7 5.4 2.9-3.9 3-11 4.4-15.5 9.3 2.2 7.6 16 4.5 22.6-5 10.6-11.6 7.2-18.7 1m32.4-238.4c3.3 5.5-3 15.6-4 21.2 5.4-.6 19.1-14 23-11.7 8 4.5-9 20.5-12.2 22.8-26 18.7-21.3-35.3-6.8-32.3M650 178.5c9.6-2.7 22.7 14.7 16.4 23.4-4.5 6.1-10 2.6-11.5-2.8-.7-2.8 0-6.2-1-9.3-1.2-3.8-2.7-7.5-4-11.3"/><path d="M351.6 103.5c7.4 6.2-7.6 21.3-15.2 9.5-2-3.3-2.5-6.2.6-7.5 1.6-.6 5.2 1.4 7.4 1 2.4-.3 5-2 7.2-3m-25.3-24.8c-2.9-3.6-10.9-25.5-1-20.6 5 2.4 9.2 21.2 1 20.6M655.4 551l-.9-8.3c3.7 1.9 11.1 3.7 12.4 8 2.4 7.8-8.8 1.5-11.5.3m106.8-334.2c-2.2-3-9-27.7-3-27.1 1 9 1.2 18.2 3 27M670 495.3c-4.8-8.7-11.7-17.7-14.8-27 7.3 5.8 13 18 14.8 27m198.6-20.1l1 9.4c-4.5 1.2-1.2-8.3-1-9.4m-213.4-7c-2.1-2.2-3-5-3.5-8l3.5 8m25.1 142l.2-8.3-.2 8.3M352.2 157.4l5.6.7c-1.5.7-5 1.6-5.6-.7m370.6 482.1c2-.3 3.9-1 5.8.1h-5.8m-15.3-95.3l-.4 6.6.4-6.6m-26.3 8.7l-.3-5.8.3 5.7m57.4 17c0 1.7-.2 3.4-.3 5l.3-5M391.5 613c-2 1-3.8 1-5.7 0h5.7M397.2 142.9l-5.8.4 5.8-.4m397.9 6.5v-5a5 5 0 010 5m-455.6 3l-.3-5.3c0 1.8.2 3.6.3 5.3m473.3 523.2h3.9-3.9m-343.3-22h3.3-3.3m246.9-2.9l.3-4.2-.3 4.2M535.3 173.1h-5c1.7-1 3.4-.7 5 0M315.5.8c-1.6 0-3.4.8-4.9-.5l5 .5m-44.9 162.7l-4.8.4 4.8-.4M371 611.6l-5 .5 5-.5m41.7-469.7h-5c1.7-.6 3.3-1.2 5 0M680.2 589v-4.3 4.3m189-120.2l-.5 5.2.5-5.2m-212 110.4l-.4-4.4.4 4.4m-549.8-13.4c-.3 1.5-1.4 1.8-3.2.9l3.2-.9zm610.8.7l-.3-3.8.3 3.8M375.7 145l-4.1.5 4.1-.6M82 384.8l-.3 3.7.4-3.8M906 470l-.2-3.5.2 3.5M195.6 624.2l-4.2-.1c1.4-1 2.8-.8 4.2 0M361.1 78.4V75c.7 1.2 1 2.4 0 3.5M247.7 63.6c0-1.2.2-2.3.3-3.5l-.3 3.5M717.3 468l-.1-3.9.1 3.8m-9.1 65.8l-.1 3.6v-3.6M544.6 649.5h2.7-2.7m104.2-104.8a46.4 46.4 0 01-18-27.4c3.8 4.2 6.9 8.9 10.6 13 1.5 1.8 3.3 3.2 4.7 4.9 3.3 3.9 2.7 4 2.7 9.5m-30.4-45.3a71.8 71.8 0 01-7-31.7c2.8 9.6 9.4 21.6 7 31.7m13.9 56.4l-.2 8.3.2-8.3M82.2 631.4l8.6.5c-2.9 0-5.8.7-8.6-.5M515.5 271.5l-4.8-.2 4.8.2m26-59v-5.7 5.7m-34.3 48.3c-.1-1.3-.8-2-2.2-2 2.7-1.5 3.5-.8 2.2 2M588.7 368l.3-5.2-.3 5.1M122.6 632.6l5.7-.4-5.7.4M525.4 400h5.7-5.7m54.5-208.7h-4 4m276.7 463.5h5c-1.7 1-3.4 1-5 0M158 424.5l-3.3.1h3.3m599.2-249.3c1 1-.3 3.4-1.6 2.6l1.6-2.6M235.7 528.8l.1-4.4-.1 4.4m381.3.8l.3-4.6-.2 4.6m266.1-158.4l.2 4.5-.2-4.5M603 426.8l.2-4.5-.3 4.5m-296 28.8l5 .4-5-.4m150.3 132.2h-3.3 3.3m96.4-369.6l-.2 4.3.2-4.3M577.8 561c1.7-1.2 3.3-.5 5 0h-5M381.3 156.7l-3.3-.2 3.3.2m268 430.3l-.3-4.3.3 4.2m-90.5-158.8H556h2.7m38.5 51.1v-3.5 3.5M480 394.6h4.4c-1.5.8-3 .7-4.5 0M556.5 251h-2.6 2.6M134 410.9h4.4a4 4 0 01-4.5 0m749.5 2.4l-.3 3.4c0-1.2.2-2.3.3-3.4M507.8 594.2l.4-3.7-.4 3.7M269.3 447.7l4.5.1c-1.5 1-3 .4-4.5 0M609.1 232l4.4-.5-4.4.5M488 625.8l.4 4-.4-4M617 541v-3.7 3.6M91.5 632l4.2.6-4.2-.5m26.3.5c1.4-1 2.8-.7 4.2 0h-4.2m253.1-165.9l4-.5-4 .5M523.3 639l4.2-.5-4.2.5m-48.9 2.2l4.3-.6-4.3.6M553 226.8c-.2 1.1-.2 2.3-.3 3.4l.2-3.4M217.1 501.2l.4-3.6-.4 3.6M541.9 197l.1-3.6-.1 3.6M269.6 487.6l.4 3.7-.4-3.7m4.7-39.8l4.4.4-4.4-.4m230.2 178.4c.8 2.4.5 8-1.8 9.7-4.9 3.6-5.4-2.9-6.3-6.4-2.7-9.7-7-20.5-8-30.4-.4-3-.6-8.8 3.4-9.8s5.9 5.2 7.2 8.3c3.8 8.8 6 19 5.5 28.6m0 0l.2-3.8-.2 3.8"/></g></g></svg>