<svg xmlns="http://www.w3.org/2000/svg" viewBox="0 0 1024 768"><g fill="#FFFFFF00" fill-rule="evenodd"><path d="M0 0h1024v768H0z"/><path d="M720.4 432.9a187.8 187.8 0 0072-33c-4.4 16.6-10.5 37.5-23.4 49.6-5 4.6-11.5 7.6-17.5 10.5-8.8 4.3-17.8 8.1-26.8 11.8-16 6.4-32.9 13.5-50 16.7-4.7.8-7 0-11-2.9-6.6-4.7-12.6-10.5-18.6-16-9.4-9-18.7-18.3-27.7-27.7 34.2-.1 69.5-1.7 103-9zm-246 57a69849.8 69849.8 0 00115 75l-48 32 17 18-16 9-29 16.6-10.4 5.9c-.8.5-2 1.4-2.8 1.3-1.3 0-3.6-2.3-4.6-3a2768.3 2768.3 0 01-40-26.4A1454 1454 0 01383 567c-10.9-8.3-21-16.9-29.4-27.7-9.3-11.9-17-25-23.8-38.5a362 362 0 01-15.2-35c-1.6-4-5.4-10.5-5.3-15 0-2.4 2.1-5.9 3-8.1l5.7-16c1-2.6 3-6 3.3-8.9.4-3.5-1.3-8.3-1.9-11.7-.2-1.7-.2-6.4-1.5-7.4-.8-.6-4-.3-5-.3l-24.8-2-66.4-5c-6.1-.5-13-.2-19-1.5-4.4-1-7.3-4.6-8.6-8.9-4-12.7-8-25.6-10.4-38.8A54 54 0 01189 308c4.6-10.3 10-20.5 16.1-30 1.8-2.6 1.8-2 5-1.5l39 7L381 307l46.5 8.3c2.3.4 6.7.3 8.7 1.5 1 .7 1.8 2.6 2.5 3.6l8.6 13.4c16.1 25 32.7 49.6 49.2 74.4l54.9 82.7-77-1z" fill="#123456"/><path d="M443 48c8.3 3.7 12.6 13.8 17 21.2 5.1 8.8 9.9 18 12.5 28a86.7 86.7 0 011.9 31.8c-.5 4.6-1.8 8.8-3 13.2-1.5 4.7.7 7.3 4 10.7 7 6.8 15.7 12.1 20.8 20.6 4.4 7.2 9.4 8.5 17.6 8.8 20.4.8 40.4.2 60.6 4a220 220 0 0115.2 3.6c1.7.5 3.4 1.2 5.1 1.4 2.5.2 3-.8 4.8-1.7 8-4.2 18.3-.2 26.4 2.1a264.4 264.4 0 0158.2 24c20 11.3 41.3 20 61 31.6 19.2 11.1 36.4 25.2 54.2 38.3a697.8 697.8 0 0152.2 42.5c16.2 14.5 33 28.7 47.5 44.9a162.7 162.7 0 0130.6 50.9c2.4 6.2 1 10-6.4 8-.6 6.3-5.3 9-11.2 7.6 1.8 5.3 6 12.4 3.6 18-3.2 7.6-12.3 2.1-16.7-.8.5 6 3 15.9-2 20.8-7.7 7.6-20.8-2.1-26.3-7.8-14-14.4-23-32.2-35.4-47.8a679.6 679.6 0 00-50.1-55c-1.4-1.3-17-18-19.1-15.7 6.7 11.2 12.1 23.5 21.6 32.8 4.5-6.3 7.7-3.2 8.6 3.1 1 7.7 2.1 15.7.7 23.3a89.1 89.1 0 01-22.2 40.5 127.3 127.3 0 01-37.2 28c-7.9 4-15.7 7.8-24.2 10.5-3.8 1.2-7.5 2.6-11.4 3.4-3.8.8-7.8.8-11.3 2.6 31 14.8 65.3 21 96.3 35.4 7.5 3.5 22.6 12.5 15 22.7-6 7.8-19.3 8.1-28 9.7 6.4 6 5.4 11.7-3 15-3.5 1.4-7 2-10.6 2.1-2.5 0-6.8-.8-8.8 1.1 7.7 3.6 18.2 3.3 24.5 9.5 6.5 6.4-1.2 11.4-7 13.9-7.6 3.2-18 6.6-25.7 2.7-6.1-3-11.7-2.4-18.5-3.2-7-.8-13.8-2.3-20.5-4.3-25.5-7.6-49-21.7-71.6-35.6a404.4 404.4 0 01-63-47.6c-4.8-4.4-8.8-9.7-13.7-14-5.1-4.5-10.5-4.9-17.1-4.8-15 .2-30-2.5-45-.8 21.6 16.3 44.3 30.6 67 45.2 8.6 5.5 17.7 13 27.8 15.3 4.5 1 14 1.8 15.5 7.3 1 4-2.3 4.6-4.4 6.8-3 3.2 1.2 4.2 4.3 5.5 3.8 1.7 7.4 2.2 11.6 1.8 6.4-.7 11.5-.5 17.5 2.3 9.4 4.3 19.5 6.6 29 10.9 3.9 1.7 4.9 7 6.8 10.5 3 5.6 6.4 10.9 9.8 16.2 6.3 10.1 11.8 20.5 20.8 28.5 7.9 7 16.7 13.3 25.3 19.5 13.3 9.7 30.4 21.6 26 40.6-4.2 18.8-23.6 16.8-38.4 13.4-6.3-1.4-14.8-5.3-21-3.5a25.9 25.9 0 01-14.9.6c-6.5-1.5-13-2.5-19.7-3.5a233.5 233.5 0 01-41-10.3 46.8 46.8 0 01-16.7-9.7c-1.5-1.4-2.6-3.3-4.6-3.3-1.6 0-4.2 3-5.5 4-4.1 3.3-8.7 6-13.4 2.2-3-2.5-5.6-8-1.3-10.5 3.3-2 9.4.3 11.8-3.4 2.4-3.9-3.1-9.5-4.9-12.7-5.2 3.6-13 10.8-19 4.8-5-4.7.5-7.6 5-9.2 5.6-1.9 12-1.6 9.2-9-1.6-4.3-4.2-8-4.6-12.7-.3-3.5.7-6.9.7-10.4 0-6.2-6.7-11.6-12.5-13-3.5-1-4.6 2.1-6.8 4.4-3.2 3.5-7.3 6-11.4 8.3-6.7 3.6-13.7 6.5-20.8 9.5-4.6 2-12.9 4.5-9.6 10.5 5 8.7-6.5 4.5-10.6 2.5-9.6-4.6-19.3-9-28.7-13.8a339.1 339.1 0 01-54.4-35.6 588 588 0 01-48.5-42.1 218.2 218.2 0 01-20.7-23c-6.8-9-12.5-18.5-19.4-27.2-7.2-9.1-14.2-18-18.8-28.6-4.3-10-9.2-21-9.2-32-.1-12 0-22.8 4-34.3 1.6-4.8 3.6-9.9 6.5-14 .8-1.3 5.2-5.4 4.3-7l-11 1.6c-6.6.7-13.3-.5-19.9-1-19.5-1.9-39.2-1.2-58.6-3.9-7.3-1-15.3 0-22.4-1.8-3.4-.9-4.2-2.8-6.7-4.4-1.1-.7-2.4-.5-3.4-1.5-1.2-1.2-1.5-2.9-2-4.4-3-8.2-7.9-15.5-10.8-23.7a78.3 78.3 0 01-2.8-28.4c-4.9.3-10 .4-14.5-1.6-3.6 11.5-19.3 11.3-29 10.4-12-1-26.2-2.2-32.4-14.3-7.2-14.3-6.7-31.6-7.5-47.1-1-18.3-1.4-36.8-.5-55a74.5 74.5 0 0114.4-44c8.8-11 24.2-17.3 36.2-7.1 9.1 7.6 13 21.3 13.7 32.8.3 5.8 0 11 7.2 9.4 2.7-.6 5.2-1.6 7.3 1.2 1.7 2.5 1 6.1-1.3 8-2.1 1.7-6.1 1.4-7.5 3.9-1.4 2.5.8 6.5 3.4 7 3 .6 5.4-3.3 8.4-1.5 2.8 1.6 1.3 4.7-.5 6.5-2.2 2.2-4.4 2.6-2.8 6 1.2 2.6 3.7 4.3 4.7 7 2.7 6.8 3.6 16.6.6 23.4 5.2.5 17.7 6.7 21.7 1.7 1.5-1.8 1.7-4.4 3.3-6.2a11 11 0 017.3-3.5c5.9-.7 12 1.1 17.7 2.3 9.6 1.9 19.2 3.6 28.8 5.3 19.3 3.4 38.8 5.8 58 9.5 19.3 3.7 38.3 8.3 57.3 13 10 2.4 19.9 5.1 30 7.2 9.3 2 19.1 3.4 27.8 7.6-1.7-10.7-6.5-20.5-9.5-30.8-3.1-10.7-4-21.3-2.2-32.2 1.6-10 4-19.8 9-28.6 2.1-3.6 4.4-7.2 7.4-10 2-2.1 5-3.8 6.7-6.3 1.7-2.4 1.3-3-1.6-4-1.7-.7-3.2-.9-4.8-1.7-1.4-.8-2.6-2.3-4.3-2.5-4-.7-9.7 3.1-13.2 4.5-5 1.8-10 3.4-15.2 4-17.1 1.8-37.4-8-49.1-20.1-4-4-13-13.3-9.3-19.4 2-3.2 5.4-2.4 8.3-4 4.5-2.2 1.6-6-.5-9-6-8.3-10-17.7-14.1-27-4.4-9.3-10.3-17.6-15.1-26.6-3.5-6.5-7.5-13.8-9.1-21-2-8.8 4-10 11.3-11.3 23-4 45.8-9.4 68.6-14.4 9.2-2 18.3-4 27.5-5.7 7.1-1.3 15.2-2.4 22 .7zm202.5 550c-11.9.5-23.9 3.2-24.2 17 1.4 26.4 18.5 46 36.6 63.5 4.6 4.5 9 9.1 14 13.1 3 2.3 6.1 3.4 9.3 5.3.8.4 2.1 2 2.8 2.2 1.7.5 1.9-.1 3.5-.3 3.7-.4 4.3 2.2 7 4.2 5.3 4 14.7 3.4 20.9 4.6 5.6 1.1 28.2 9.3 27.2-2.5-1-11.5-13.3-17-22-22.2-12-7.2-24.4-15-34.6-24.7-9.6-9.3-16-22-22.4-33.6-4-7.2-5.2-13.3-6.3-21.4-.5-3.4-.6-4.5-4-5-2.5-.5-5.2-.4-7.8-.3zm-41.4-2c-6.8 2.2-12 7.7-15.5 14a30.2 30.2 0 00-3.3 10c-.7 4.5-2.4 9.3-1.2 13.9 2.3 8.3 8.4 17.3 13.1 24.4a70 70 0 0020.7 22c8.1 4.6 17.9 5.9 25.4 11.7-.7-3.2-3.7-5.6-6-7.6a84.2 84.2 0 01-24.6-34.7 77.6 77.6 0 01-4.9-29.2c.2-4.6 1-9.6 3-13.8 1.4-2.8 3.8-5.2 4.8-8.2 2.3-6.9-8-3.6-11.5-2.5zM453.4 369.5c-9.6 1.1-19.1 3-28.8 3.9-19.5 1.8-39.8 2.8-57.5 12.2-25.7 13.6-55.4 43.7-46.5 75.4a217.8 217.8 0 0061.4 98c18 17 37.8 32.2 57.6 47 19.2 14.3 41.3 23.7 61 37 1.4-19.6 13.8-37.7 28.5-50.3a154 154 0 0138.3-25.8c3.5-1.6 7.3-4.2 11.3-4.4 0-2.9-7.4-4-9.4-4.6-7-2.4-13.6-6-20-9.5-14-7.6-27-17-39.9-26.2-6.3-4.5-12.8-8.9-19-13.5-5.7-4.1-10.7-9.5-16.7-13-6.2-3.7-13.6-4.5-20.6-5.8-8.3-1.6-16.5-3.5-25-5-14-2.3-27.2-10.6-40.1-16.2-4.4-1.9-11-3.5-14.3-7.1a6.7 6.7 0 011.6-10.5c6.7-3.8 17.7 1.2 24 3.6 11.6 4.6 23 8.7 35.4 11 16.8 3.2 32.8 9.2 49.7 12.4 18.2 3.3 36.4 7 54.9 8.3-4.5-9-12-16.4-18-24.6l-20-28c-11.7-16.5-24.8-33-33.7-51.3-3-6.2-6-13.9-14.2-13zM540.5 610c-2.7.4-4.7 3-6.5 4.8a129.4 129.4 0 00-15.7 17.3c7.1-3 12.9-8.2 19.7-11.6 2.5-1.3 11.1-4 9.4-7.5-1-1.9-5-3.4-6.9-3zm32.5-22c-7 4.7-14.1 9-21.5 13 5.2 2 10.3 4.7 14.5 8.2 2 1.6 5.9 6.3 8.7 5.1 2.5-1 4-7.5 5.2-9.8 3.2-5.9 7.7-11.5 12.5-16.1-7.2-4.9-12-5.4-19.4-.4zm-58.5-257.5l-16.6 4.8a126 126 0 01-34 5.7c-1.5 2.9 3 7.6 4.4 9.8 3.6 5.8 6.7 12 10 18 7 12.7 14.6 25 22.8 36.9 8.3 12 15.8 24.7 24.3 36.6a707.7 707.7 0 0026.2 33.8c34.8 43 83.2 72.6 130.8 99.2a190.4 190.4 0 0060.5 22.5c4.2.8 11.1 2.7 15 0-12-4.8-27.9-6.6-37.6-15.9-6-5.7.6-10 6.7-11 11.9-2 24.2 3 35.9-.3-3.1-5.7-12-5.4-17.5-6.9-7-1.8-7.2-5.3-.6-7.7 8-3 17.4-1.3 25.8-1.9 4.1-.2 21.3-1 16.1-8.8-4-6.2-14-8-20.6-10.3-9.1-3.2-18-8.2-27.3-10.7-9.2-2.4-18.5-4-27.6-6.5-9.5-2.7-18.9-5.7-28-9.7a213.5 213.5 0 01-48.3-30.4 280 280 0 01-40.7-42.1c-6.4-8-12.5-16.4-18.8-24.6-6-7.9-13-15.5-17.8-24.2-5.3-9.7-12.3-18.5-17.8-28.1-3-5.2-6.2-10.4-9-15.7-2-3.8-3.4-9.3-6-12.6-2.6-3.1-7-.8-10.3 0zM258.3 453c1.8 1.7 1.5 2.4 1.2 4.5-.8 4.5-1.6 8.8-2 13.3-1 15.3 1 31.3 3.5 46.4a98 98 0 0017 41.6 77.8 77.8 0 0032.5 27.7c2.3 1 11.6 4.8 11 8.3-.5 2.6-5.3 1-7 .7-24.5-5.2-45.3-27.4-57.6-48-5.2-8.5-8.4-17.2-11.3-26.6-.4-1.4-6.3-21-4.3-21.2-1.8-13.5-2.3-30 4.1-42.4 2.4-4.7 8-8.8 12.9-4.3zm-42.8 2.9c-2.2 10.2-1.4 20.6-1 30.9.1 1.9 1.2 7.7-1.9 7.6-2.2-.1-4-5.7-4.5-7.2a53.7 53.7 0 01-2.8-27.7c.5-3 1.3-6.5 4.5-7.5 2.8-.9 6 .7 5.7 3.9zm572.4-47c-1.4.6-2 1.9-2.4 3.3a195 195 0 01-36 24.5c-11.3 5.8-24.4 8.3-36.6 10.9-28.1 6-56.1 8.4-84.1.6 11.4 10.6 21.8 24.6 36.2 31.4 7.2 3.3 15.1 1.3 22.4-.8 8.9-2.6 17.8-5.3 26.4-8.7 16.2-6.5 33.5-13.7 47.2-24.9 6-5 11-11 15.3-17.5 2.5-3.7 4.6-7.7 7-11.4 1.5-2 4.7-4.7 4.6-7.4zm-119.7-188c-.4 5.3-3.5 9.7-6.2 14-1.9 3-5.5 6.4-3.8 9.7 2 4 8.5 6.5 11.9 9.2 5 4 9.5 8.3 14.1 12.7 8.2 8 16.7 15.6 24.7 23.7 7.6 7.7 15 15.5 24.5 20.8 21.1 11.5 39.6 27.5 58 42.8 18.8 15.6 37.4 32 53.6 50.2 8.8 9.8 16 20.5 22.2 32l9.8 17.5c1.4 2.7 3 5.2 4.3 7.9 1 2 1.6 5.2 3.4 6.7 3.5-7.8-2-18-5.1-25l-6.5-14.4c-1.5-3.4-4.6-7.5-4.8-11.2-.4-9.2 11.4-2.6 14.6.3 8 7.3 12.6 18.2 18.2 27.1 1.4-7.1-12.9-18.1-7-24.4 4.7-5 13.3 6.7 16 9.8 1.7-8.9-2.9-17.5-7.7-24.6a218.5 218.5 0 00-17.9-22.5 534.8 534.8 0 00-48.5-46c-16.7-14.5-33.9-28.4-51-42.4a415 415 0 00-52-38.2c-10.4-6-21.3-11.2-32-16.9-11-6-21.6-13-32.8-18.7zm-145-20c-.5 0-3.3.4-3.6.7-.9 1 .3 4.5 1.4 5.1a25.6 25.6 0 01-12.6 5.8c3 3 8.6 8 7.7 12.7-1.2 6.5-9 2-12.1 0-5-3.1-10.2-6.5-14-11.2-2.3-3-3.1-6.2-4.9-9.5-1-1.7-.4-2-2.5-2.2-2.4-.1-6.5 2.2-8.8 3a88.4 88.4 0 00-26.7 17.3 58 58 0 00-18 37.6c7.3-.9 14.4-4 20.5-7.9 4.3-2.8 8.8-6 9.5 1.8.3 3-.5 10.1-2.3 12.5-1.8 2.2-2.5.4-4.3 1.7-2 1.6-1 3.8-1 6l-2.9-2.6c-1.8 2.4.2 1.1 1 2.5.3.9-2.4 3.2-3 3.6-1 1-1.7.2-3 1.4-.7.9-1.6 2.7-2.5 3.7-4.6 5.1 1.5 13.3 3.9 18.8 1.7 4 3.7 8 5.5 12 1.4 3 2.1 6.5 4 9.3 3.5 5.4 11.7 2.4 17 1.8 7.2-1 14.3-1.9 21.6-2.5 4.2-.4 9-3 3.6-6.1-5.4-3.2-24.1-3.8-24.3-12 0-8.6 12-10 18-9.3 8.9 1 14.6 3.3 20.6 10-1.3-12.8-10.3-23.3-12.4-36-.5-3.5-2.2-25 6.1-15.7 4.5 5 8 12.5 11.3 18.2 5 8.6 9.4 17.6 14 26.5 4.4 8.5 10.8 16.6 13.8 25.7 1.8 5 4.2 15.7 9.6 18.3 3.6 1.6 9.5-.5 13-1 2.3-.4 4.5-.7 6.4-2 1-.7 2-2.4 3.3-2.6 3.6-.5 4.5 5 4.3 7.5-.4 4-2.2 5-5.9 5.4 6.2 3-3.3 12.5-5 16.3 0-.2-1.1-2.9-2-2.9-1.5 0 5 12.8 5.4 13.7 3.4 6.2 7.7 11.7 11.9 17.4 2.3 3.3 5.8 11 10.6 10.3 2.7-.4 8.2-6 10.3-2.2 2 3.4-4 7.1-4.8 9.8-1.5 4.6 4 9.3 7.4 11.7 8.7 6.4 20 7.8 30.3 9.8-2-2.7-6.3-4.1-6.4-8 0-2.5 1.8-4 .6-6.7-1-2.4-3.6-3.7-4.4-6.2-.8-2.7.5-5.8 2-8 6.4-9.7 20.6-5.7 29-1.3a4 4 0 00-1.6 1.1v.2c1-.7 5.7 1.4 6.3 1.8 1.8 1.3 4.3 4.4 5.5 6.3a24 24 0 012.6 20.5c25.4 0 49.4-6.8 72.2-17.6 5.2-2.5 10.3-4 15.2-7.2 5-3.1 9.9-6.7 14.9-10 4.6-3.1 4.2-5 1-9.4-3.7-5.4-7-11.2-11.3-16.3-.7 1.4-1 4.2-2.3 5.1-1.5 1-3-1-4-.2.1 0-3.2 5-3.7 3.7 1.4 3.3-4 1.2-5 .6.2 3-2.4 5.7-3.8 1.6-3.9 3.6-13 .3-8.1-5.2 2.4-2.7 5.1-4.1 6.6-7.6 1.8-4 2.4-8.5 2.6-12.8.5-10-5-14.8-11.8-21.3-3.8-3.6-7.8-7.1-11.7-10.6-3.5-3.1-6.5-7-10-9.9-2.7-2-4.8-2.6-7.3-.8-1 .7-1.4 1.7-2.7 2.4-1.7.9-4.3 1.4-6.2 1.7a63.6 63.6 0 01-29.5-5.7c-2.4-1-3.6-2.5-5.7-3.7-1.3-.8-2.4-.3-3.8-1.2-3.7-2.4-3.5-6.2-.8-9.2 6.2-7 15.1-.7 21.5-6.3 8-7-5.3-16.7-10.6-21-4.3-3.4-8-4.1-13.2-5-1.1-.2-8.4-2.3-5.8.7-5.7-.1-8.5-.1-13 3.4-1.2 1-2.8 1.8-3.1 3.4-.2.8 1.5 1 1.5 1-.2.5-2 1.5-2.2 1.7 3 .4 2.2 6 1.4 6.1 1.3 1.3-1.5 3.1-2.5 3.4-2.8 1-5.4-1-7.2-3a26 26 0 01-6.9-17.5c.4-8.3 5.9-13.1 10.4-19.4 3.4-4.7-1.7-7.2-5.2-10.1-4.2-3.6-10-8-11.5-13.7-1.3-5.3 2.3-7 6.9-5.5 6.1 2.1 11.1 7.6 16.6 11 4.8 3 11 9.2 16.8 9.6-1-3.9-6.4-3.5-8.5-6.4-2.7-3.7 1.5-5.4 4.8-5 2.5.3 9.6 5.6 9.4-.5 0-3.3-5.5-4.4-8-5.3a186.6 186.6 0 00-37.2-10.3c-4.2-.8-5.3-.3-7.3 3.5-.7 1.3-3.1 7.1-4.5 3.3-1.7 3.1-2.2 6.5-6 7.8-5 1.6-11.2-.8-15.6-2.6a22.6 22.6 0 01-10-7.3 18.2 18.2 0 01-2.7-5.6c-.5-1.8-.3-4.6-1.2-6.1-1.5-2.6-5-2-7.7-2.3-6.1-.6-12.2-1.1-18.3-1.2-5.1 0-10-.4-15 .9zM656 429.7c-2 .7 1.5 3 2.6 2.8-.4-.8-1.2-3.3-2.6-2.8zm1.7-25.5l-.1.2v-.2h.1zm39.1-61.5c1.8 1.5 1 5 2.3 7 3.2 5.7 9 11.3 14.6 14.7 6 3.7 8.7 8.5 10.2 15.2.3 1.3 1.2 3.3.7 4.7-.4 1.3-1.9 1.8-2.3 3-.3.5.6 4.7.5 4.7-.5 0-2-2-2-2-.6 1.4-.4 3.1-2 3.9h-.1c.4.4 2.2 1.9 1.8 2.2-.6.5-2.1.2-2.9.4-1.2.5-2 1.5-3.2 2-3 1.3-6.5 1-9.8.5-6.8-1-14.5-3.4-19.4-8.5-6-6.1-4.5-12.4-5-19.3-.7-7.7 4.9-19.3 9.3-25.3 1.6-2 4.6-5.4 7.3-3.2zM207 283c-.4 1 0 2.3-.3 3.3a17 17 0 01-2.7 5.5c-2.1 3.2-4.3 6.1-5.7 9.7-3.5 8.8-6.8 18.3-8.5 27.7-3.7 20 8.5 36.5 9.2 56 5.5-5.8 14-6.1 21.6-6.1 10 0 20 .4 30 1.3 19.2 1.7 38.8 2.3 57 9.3a32 32 0 005.5 1.6c2.2.4 1-.6 2.7.7.4.4.6 1.6 1 2 2.4 2.4 3.8.8 5.8-1.7 5.4-6.7 10.9-12.9 18-18.2a95.4 95.4 0 0150.2-18c10.6-1 21-1.6 31.6-1.5 10.2.1 20.9.3 30.5 4-2.4-6.9-6.5-13-9.8-19.5-1.6-3-3-6.4-5-9.2-1.9-2.6-4.6-4.6-5.8-7.5l-.7 1.7c-19.5-5.6-39.7-8.6-59.7-11.8-20.2-3.2-40-7.7-60.1-11-10.1-1.8-20.2-2.8-30.4-4-9.8-1.1-19.2-3.3-28.8-5.1-9.8-1.9-19.3-4.2-29-6.7-4-1.1-7.7-2.6-11.7-3.9-3-1-3.8-1.3-5 1.4zm432.2 35.6c.6 2.3-1.3 5.4-1.8 7.7-.7 2.6-2.2 3.6-3 6-.6 2 .6 12.8-4.6 9.6.1.8 1 1.8 1 2.5.2.9-.7 2.2-.4 3 .2.6 2.5 2.6 3 3.7a64 64 0 014.9 14.2c1 5 2.4 11.9-1.7 15.3-1 .9-1.8 1-2.9 2 0 1-.5 1.8-1.2 2.4-.4 0-.7 0-1-.3-1.2.6-.8-2.2-2.3.6-.3.6.3 3 0 2.7-.6-.4-2.3-2.2-2.9-2.3-1.3 1.7-1.2 0-2.6.2 0 .8-.4 1.1-1.1 1.2l-1.7-.4c-3.5 0-8.5-1.4-11.8-2.3a16 16 0 01-12-12.5c-2.9-13.6 8.6-30.6 16.7-40.5 2.8-3.4 22.4-25.3 25.4-12.8zm54.6 43.7c-.1 1.2.2 2.9-1 3 0-1.3-.5-3 1-3zm-89-2c.6 3.4.7 1.5-.6 3.8-.5-1.4-.3-2.6.6-3.7zm94.7-4.2c.5.7 2.4 2.4.8 2.8-1.5.4-.9-2-.8-2.8zM629 333.2c-.6 3.6 1.4 2.7 4.1 2l-4-2zM117.3 190.5c-13.3 11.3-13.7 31.2-13.2 47.1a924 924 0 004 65.1c.9 9.8 3.7 14.8 13.3 18 10.5 3.6 21.7 2.9 32.5 2.3-2-16.1-6-37.3 10-48 1.5-1 2.9-1.8 4.7-1.8 1.2-.1 2.9 1 4 .4 2.3-1 1-4.3.2-6-2.2-5.5-6.6-9.8-10-14.4-4.5-5.8-8.3-5.7-14.9-5-2.6.3-13 1.5-11-4 1.6-4.2 9.7-3.2 13-4.1 2.5-.7 3-1 2.9-3.6-.2-4-2.5-5-6-5-4.6.2-12.5 2.6-16.3-1-5.4-5 2.6-8.7 6.7-9.4 4.3-.7 10 0 11-5.3 1-5-1.7-11.1-3.8-15.6-2-4.3-4.8-9.7-9-12.3-5.9-3.7-13.2-1.7-18.1 2.6zm51.3 94.8c-5.4 1.2-8.5 8.2-9 13-.7 4.8-.3 11.6 3.2 15.2 4.5 4.8 12.5 4.4 17.4 9 2.2-10.9 6.2-21.2 11.4-30.9-4.1-1.1-8.2-2.6-12.3-4-3-.9-7.5-3-10.7-2.3zm344.8 23.2c1.2 1 1.6 1.3 2 3-3 .1-2-.8-2-3zm28.4-76.6c4.5 0 6.6 1.5 10.2 3.7 2.5 1.5 5.6-.2 5.6 3.7 7.3-5.7 21 9 26 13 5.4 4 10.7 8.9 11.3 16.2.2 2.1-.2 4.4 0 6.5.3 1.6 1.4 3.3 1.2 5-.2 1.9-1.9 3-2.3 4.9-.1.7.4 2.1 0 2.7-3.2 6-7.4 11-14.5 11.5-6.3.6-13.2-1.7-17.8-6-4-3.9-6.4-9.7-7.5-15.1-.1-1 .2-3.1-.1-3.9-.5-1.2-1.1-1.2-1.7-2.1-1.5-2.5-3.6-7.2-1.7-9.9-4.7 1-8.3-9-10-12-1.4-2.2-4.6-4-5.4-6.1-1.3-3 3.1-4.2 1.6-6.3-.8-1-5.2-.3-4.7-3 .4-2.6 8.1-2.9 9.8-2.8zm91.6 51.2v.1zm-12.5-22c.4-.4 2.6-2.6 2.8-1 .3 1.4-2.2 1-2.8 1zm-205-173.2c-4.7.2-9 5.4-12.5 8-5.3 4.1-11.6 7-17.8 9.3-7.3 2.6-14.8 5-22.2 7-7.6 2-15.5 2.3-23 4.4l11.2 20.5c1.6-2.2 1-4.8 3.7-6.4 1.9-1.1 4.6-1.3 6.7-1.7a48 48 0 0118.4-1c3.8.8 8.1 3.8 4.4 8-2.3 2.5-7.2 1.9-7.6 6-.4 4 3.7 7.4 2.7 11.6-1.3 5.9-7.2 4.1-9.8.3-2.3-3.4-1.5-9.4-5-11.9-2.2-1.4-8-2-10.2-.7 4.2 7.9 12.5 17.5 7.6 26.9-1.5 2.9-4.7 4-2.5 6.8 2.5 3.3 9.7 6 13.6 5 3.6-1 7.7-5 11.8-3 3.9 1.9 1.1 5.1 1.5 8 1 9 19.5 4 24.5 2.8 5-1.2 10.2-4.1 15.4-4.3 5 0 9.5 2.3 13.4 5 2.9 2.1 7.7 8.2 11.4 8.4 3.7.2 9-5.3 12.2-7 5.8-3 12.2-3.8 18.4-5.8 1-.3 5.3-1.2 5.4-2.6 0-1.4-5-4.4-5.9-5-7.9-6-13.6-14.4-21.9-20A37.9 37.9 0 00448 151c-2.3-.6-8.8-1.4-9-4.8 11.4-2 11.7-16.1 7-24.2-3.1-5.1-7.9-7.6-13.9-6.5-8.6 1.6-10.2 8-12.2 15.5-7.1-3.8-14.8-13.3-15.3-21.6-.4-9.2 9.5-13.2 11.5-21.5zM627.6 150c12 2.2 23.7 5.2 35.2 9.1 7 2.4 17.4 4.5 23.5 9 1.8 1.4 4 4.3 2.4 6.6-1.4 2-4.8 1.5-6.9 1.2-9.2-1.4-18.3-5.3-27.4-7.4a490.4 490.4 0 00-74.2-10l-20.5-1.3c-5.7-.4-12-.2-17.6-1.5-4.4-1-5.5-4.3-2.2-8 3.2-3.5 8.6-3 13-3.6 25-1.6 50.1 1.4 74.7 6zM586 121c8.1 2.8-1.4 4.1-5 3.8-1.2 0-17-1.6-17-1.1-3.2 0-11.6 2.4-14-.8-2.4-3.5 8.1-4.7 10.2-4.8 8.2-.6 18 .2 25.8 2.9z" fill="#000"/></g></svg>