<svg xmlns="http://www.w3.org/2000/svg" viewBox="0 0 1024 768"><g fill="#FFFFFF00" fill-rule="evenodd"><path d="M1-20h1024v768H1z"/><path d="M796 92.7c.4 3 4.2.7 4.6 2.4.2 1-3.8 3.7-4.6 4.4 2.8 1.7 6.3-2.2 8.4-3.8 1 1.2 1.4 1.8.5 3.1-1.8 2.4-1.7-.7-3.8 1 .9 1.4 1.6.5 2.7.1-.4 2.8.6 1 1.5 2.8.6 1.5.6 2.5.8 4.1l-3 6.8c-1.2 2.7-.8 3.6-3.7 2.7.3-.6 2.5-3.3 2.3-4-.2-.8-3.2-1.8-4-2.5-1.3-1.1-1.3-2.1-2.2-3.3.4-1.2.1-1.7-.8-1.7l-1 2.7c.1 1.9 1.7 1.7 2.6 3.5 1.5 2.8.7 1.1-.5 3.3-1.2 2.2-1.3 5-3.2 6l3 1.4c-2.3 2.6 2.6 1.4 3.5 1.1l-2.6 5.3c-2.5-1.4-3.7-4-5.4-6.2l-3.8 7c1.3 0 2.6-.2 3.8-.3-.2.3-1.8 2.6-1.6 3.1.5 2.1 4.8 1 4.4 3.6-.1.4-4 4.3-4.6 4.7 2 .8 2.8.5 2 2.8l-2.6-1.7c-.8 1.4-1.7 2.7-2.1 4.2 0 1-.1 2-.6 2.8-.5.8-1.1 1.6-1.8 2.3a30 30 0 000 10.1c1.4-1.8 4.5 1.4-.8 1.4-2.3 0-2.2-.5-3 1.6-.8 1.6-1.1 3 .9 3.2-1.5 3-1.2 5.2-1.4 8.3 0 2.6-.8 5.1-1.3 7.6l1.4-2c1.3 2.7.3 5-.3 7.9-1.3-1.7-1.5 1.4-2.6 1-2.3-.6-.6-1-1.5-2.6-.9-1.3-.8-1.7-2.3-2.5-2-1-5.5-1.1-7.7-1.5-3.8-.6-7.6-.8-11.5-1-14.4-.6-28.7-.7-43.1 0-13.2.8-26.8 2.6-39.8 5.2-13.8 2.6-27.3 5.1-40.7 9.6-2.6.9-5.2 2.7-7.8 3.4-2.4.6-4.9.6-7.4 1.5-6.1 2-12.5 3.7-18.7 5.7-6.6 2.2-13.8 4-20.1 7-2.8 1.4-5.3 3.2-8 4.5-2.6 1.2-7 2.4-8.3 5.3-.6 1.1-.5 2-.1 3.1.6 2.4 1.2 2.1 3 2 2.5-.3 5.7-2.2 8.2-3 6.6-2.1 13.4-3.8 20.2-5.5 12.1-3 24.4-8.3 36.4-10.4 7.1-1.3 13.9-4.7 21-6 1.6-.2 6.2-2.5 7.5-1.7.3.2 1.2 2.7 1.5 3.3 1 2 2.2 4.1 3.6 6 4.3 5.7 10 10.3 15.2 15.3 5.9 5.6 11 11.8 16.4 17.8l1.4-1.6c-.5 3.8 2.3 6.6 4.7 9.2 2.8 3 5 6 7.2 9.4 1.8 3 4 5.4 6 8 2 2.6 3.4 5.7 5.2 8.5l12.6 19.2c2 3 3.6 6.3 5.2 9.7 1.2 2.6 5 8.1 5 10.7-.3 1.3 2.5 9-.4 5.3l-1.5 2.2 2.5-1c-2.5 2.2 2 2.5 2.2 3.7l-1.2 1.2c-.7 1.5-1.6 1.6-2.8.6-1.2 0-1.4-.6-2.8-.2 1.3 2 3 .8 3.7 3.6.5 2.5-1.3 3-3.3 4.5l-.1.2c-.4 1.3-1.6.7-3 .5-3.2-.7-6.7-2-9.9-3-6.7-2-13.5-3.8-20.5-5.3-16-3.3-31.8-3.1-47.9-4.1.5-1.8.5-1.6 0-2.7.6 1.4-3.3-.5-.4 2.6-7.4 1.3-15.5.3-23 .7.3-.7 1-1.7.3-2.2-3.6 5.2-15.6 3-21.5 3.7-3.5.4-6.9 1.3-10.4 1.8l-1.4.2c-1.2.2-2.5.4-3.7.8-1.5.4-4 2-5.5 1.7 2.1-4.3-.3-.6-.7-.5-1 .1-2.7.4-4.2.4 1.7-6.6 4.5-12.7 5.7-19.6.7-4.2 2.6-11-1.6-14.1-2.3-1.7-6-2-8.7-2.6-3-.6-8-.6-10.6-2.2-2-1.3-2.5-2.5-5-3.5-3-1.2-4.5-2.3-7.5-1.4 1.2-1.5 3-2.6.5-4.2-1-.7-3 .2-3.3-1.2-1.8 1.3-1.3 2.3-1.8 4 0 .8.2 1.5.6 2.1l-2.9 1.2c.6-1.6-1.2-.7-1.5-1.5-.5-1.2-.2-3-.2-4.3-2 .6-4 1.4-5 3.4-2.3-1.4-1.4-1.5-.1-3.6-2-.5-2.5.5-2.8 2.2l-3.2-1c2.4 0 3-1.9 3-4l-2.8 1-.5 3c-1.5 1.2-5.3-1-6.6-1.7-4.3-2.3-5.9-2.9-5.3-8 .5-4.3 1.7-8.6 1.9-12.9.3-4.8-.3-9.9-.7-14.6-.8-9.3-2.1-18.3-2.6-27.6l-.7-15c-.1-4-1.5-8.4 3.4-8.8-.6-1.9 1.3-4.1 3.1-5.2.7-1.5 1.4-1.6 2.2-.4a2 2 0 001.9-.3c2.7-.6 6-4.5 8.5-5.9 2.4-1.4 7.6-3.4 9.4-5.7 1.6-2.2-.9-2-.4-4 .7-2.8 3.2 1.2 3.6 1.8.9-.9 4-2.5 4-3.7l-2.3-.4c.8-.5 2.8-2 3.8-2.2 1.7-.4 1-.8 2.4 1.1.5-.7 1.6-3.2 2.4-3.7.3-.2 2.4-.3 2.8-.5 2.2-.8 2-2.5 3.7-3.4.8-.4 1.7.3 2.4 0 1-.5 1-2.1 2-2.7.9-.5 3 0 4-.4 1.7-.6 1.6-1.2 2.9-2.3 1.7-1.6 3.3-1.3 5.2-2.5 2-1.2 1.7-4 3.5-4.5 2.5-.7 3.1 1.6 4.4-.7.3-.5-1-1.3-.2-2 1-1 1.5.1 2 1l1.6-3.2c2.7 1.4 1.6-.4 3.6-1.4.9-.5 1.6.4 2.6-.1.7-.4.9-1.3 1.4-1.8 1-1 1.5-2.4 3-2.9-.5.2 4 0 3.7-.2l-1.4-2c2.4 0 4.5.3 6.9-.4.8-.3 2-.6 2.7-1.2 2-1.4 1.5-1 1.5-3.7 2.6 1.7 5.9 1 8.4-.8 1.4-1 2.2-2.2 3.7-3.1l1.9-1c.8-.8 1.6-.8 2.4 0 1.2-.3 1.2-.5 2-1l.9-1.5 2.8-.5c3.6-1 5.8-3.4 9.2-1.3l1.3-2.6c1.4 2.2 2.4 0 4.3-.8.8-.4 1.8-.5 2.5-.8l1.2.2 1-3.1c.8.2 3.5 1.7 4.3 1.6 1.2 0 2.6-2 3.7-2.5 1.8-.5 1.2.2 2.9.2 1.3 0 2 .2 3-.9-3.8-1 1-1.4 2.7-1.8 2.5-.5 3.8 0 5.6-2h-1.9c1.8-1.6 1.2-1 3.1-.8.6 0 3.2 1.4 3.2-.5 2.5 1.5 2.5 1.5 5 .8 1.1-.3 2-1.2 3.3-1.2 1.2 0 2 .5 3.1.4.7 0 2.9-1 3.7-1.2 1.2-.4 2-1.4 3-1.7 1.4-.4 3 0 4.3-.2 4-1 6.2-3.3 10.5-2 .5-3.8 5.2-3 7.8-2.6 1.8.3 2.7 1 4.5.2 1.5-.8 2.4-1.9 4-2.5l4.4-1c.9-.2 1.7-.3 2.6-.2.8 0 1.6.5 2.2 1.1v.1c.2-.3 2.2-1.8 2-1.6 1.5-1.2 2.2-.7 3.1-3.1L752 96c1.7 0 3-.3 4.4.4 1 .4 2.7 2.8 3.8 2.8 1.8 0 2.5-2.6 2.3-4 1.5 3.6 2.9 4.2 6.3 2.4l1.3-.7c.8-.8 1.6-.8 2.5 0l1.4.9 1.8-3c1.2 1.8 2.4 1.8 4.4 1.4 1.4-.2 4.3-2.8 5.4-2.8.5 0 1.3 1.5 2.3 1.8 1.7.5 4.2-.7 4.8-2.3l1 2 2.3-2.2zM736.7 338zm-2-3.5v3l1 .3 1 .2v-.2c0-1.5-.7-2.6-2-3.3zm-92-12.2l-1 3 3.2.2-2.3-3.2zm-128.5-78.8c2.4.7 2.4.6 2.8 2.8 2.8 12.6-5.7 27 .5 39a434 434 0 00-54.3 2.3c0-6.8.2-13.7-.3-20.5l-1-9.3c-.3-4-.2-3.7 3-4.4 1.7-.3 2.3-1.4 4-2 1.2-.6 1.7 0 2.9.2 2.1.3 2.2 0 4.1-.5 4.2-.9 7.8-.5 11.1-3.7 1.7-.1 1.2 1.5 2.4 1.3.9-.1 1.4-1.7 2.3-2.1 2.8-1.2 7.4-1 10.4-1.3 3.1-.4 5.9-1.8 8.8-2.2 1.2-.2 2.1 0 3.3.4zm35 36.3c-.6 2.2-3.2-.6-3.2 1v.2c.1-.3 2.7 3.1 2.6 3 1.4 1 2.2 1 3.8-.2-2.9-.1-2.6-1.9-3.2-4zm7.9 3c1 .7 1.3-.8 1.8-1.7-1.1-.6-1.3.8-1.8 1.8zm-3.2-9.4c.4 1.4.3 2.5.3 4 2.4-.4 3.2-.5 3.2-3l-1.3.7c-.6-1.3-.8-1.4-2.2-1.7zm-18.5 2.4l1.6-1c-.8-1.2-2.2.2-1.6 1zm6-21.1l2-1.1c-1.7-2.3-1.8-1.5-2 1zm-2.5-18.2h-2.7c.5 1.8 2.7 2.2 2.7 0zM805 135.1l1.9 1c-1.6 1.5-3.6 3-2 4.7 1.2 1.4 7 2 8.8 2.5-.6.7-1.9 2.6-2.7 3.1-.7.4-1.3-1.1-2.6.4 2.2 1.1 1.6.3 1 2.7-.3 1.4-1.5 2.9-2.1 4.2a404 404 0 01-16.3 27.7c-.6-3.5 1.2-7.3 2.2-10.6l3.7-12.4c2.4-8 4.6-15.8 8.1-23.3zm-95 10.4l-4.7 1.2c2.6.8 2.6.8 4.7-1.2zm78.4-15.4c-2.3 1-2.5 1.8-.7 3.1l.7-3.1zm-.3-25c-.3 1.3-2.2 0-2.6 1-1 2.3 2 2 3.2 1.8l-.6-2.8zm12.8-1.7c-.6 2.9-.6 2.9 2.2 3.3l-2.2-3.3zm-50.7-2z" fill="#123456"/><g fill="#000"><path d="M396.6 401.7c-.4 2.2-1.5 3.2-.4 5.2 1 1.7 3.7 2.8 5.5 2.4l-5.1-7.6zm-49.2-77.6l-9 3c2.5 2.4 4.9 5 7.6 7.1l1.4-10.1zm147.7 7.8c-4.3-2.1-9-2.4-13.7-2.6l2.1 11.5 11.6-8.9zM392.6 629.4c-.9-1.5-6.7-13.1-7.9-12.5-.6.3-.7 6.8-.8 7.7l-1 9.8c3.5-1.2 7.1-2.2 9.7-5zM352 535.2l2.6 7.7c.4 1.2.7 3 1.4 4.1 1 1.4.2 2.2 1.5.7 1.4-1.6 1.8-6 2.4-8l2.7-9.3c-4.2 0-6.8 3.5-10.6 4.8zm-90-151.8c-5.3 3.6-10.6 7.2-15.2 11.7 4-.3 9.7 2.5 13.5 1.2 1.7.4 2.3-.3 1.7-2v-10.9zm78 25.5v21c5-4.2 10.1-8 14.9-12.5L340 409zm175.8 54.4c-1.6 9.4-1.7 19-2.1 28.5 0 1.6-.7 4.2.4 5.6 1.1 1.5 4.3 2.3 6 3.1l13.6 6.8-18-44zm116.1-57.5l33.9-16.6-33.2-14.1-.7 30.7zm-116.2 26.1c2.1.2 2.4-7.7 2.8-9.8a1436.4 1436.4 0 016.3-35.4c3-15.7 6.3-31.3 10-46.8-4-.8-7.6-1.3-11.5-2.4-3.1-1-6.8-.5-9.6-2.4-.4 7.3 1.4 15 2.1 22.3.8 8.4 1.2 16.8 1.1 25.3-.1 16.4-.7 32.8-1.2 49.2zM256 654.2c2-.5-.8-27.3-.9-31.2-.3-11.2-.4-22.4-.2-33.6a364.4 364.4 0 01-32.4 18.2c2.8 3.7 5.5 7.7 8.7 11.2 3.2 3.6 7 6.5 10 10.3 6 7.7 10.3 16.5 14.8 25.1zm253.5-158.6c.5-8 1-16 1.8-24.1.3-3.5 3.6-21.6-1.6-21.2-3 .2-8.3 4.6-11.1 6.2l-11 6c-7.2 4-14.5 8-21.7 11.8l43.6 21.3zM478.1 328c-6-.4-11.9-.9-17.8-2-3.2-.6-6.4-.5-9.7-1-2.3-.2-6.8-2.1-9-1.5-2.6.8-3.6 14.3-4 17.7-.6 5.5-1 12.2 1.5 17.3 4.7 10 17.4 2.2 23.6-2 5.3-3.5 11.3-7.2 16-11.5 4.1-3.8.4-12-.6-17zm31.3 107.9c4.5-1.8 4.4-4.1 4.6-8.9l.6-17.3c.3-10.3.6-20.6.5-31-.1-10-.6-20-1.8-30-.4-3.6 0-9.6-1.8-12.7-1.7-2.7-7-2.7-9.9-2.6-3.2.2-5.9 3.3-8.3 5.3-2.6 2.1-8 5.2-8.5 8.4-.5 3.6 1.5 8.7 2.2 12.2 2.8 12.7 6.3 25.4 9.8 37.9 3.8 13 7.5 26.1 12.6 38.7zm-115.5-30.5c.3-2.9 1.4-5.2 0-8-1.3-2.3-3.3-4.7-4.8-6.9-4.3-6.3-9.2-12.4-14-18.5-4.2-5.6-8.7-11-13.2-16.5l-7.7-8.8c-1.9-2.2-3.7-5.2-6.4-6.4a668.6 668.6 0 00-6.4 55.5c-.2 1.7-1.5 7.5-.6 9 .9 1.7 6.3 4 8 5 4.6 2.9 8.3 7.2 12.7 2.5 3-3.3 5.5-7.8 8.9-10.7 1.8-1.4 3.5-1.4 5.4-2.3 2.4-1 2.4-2 5.2-.6 4.7 2.4 7.5 5.8 13 6.7zm-233.5 63.8c0 8.6-.6 15.6 5.2 22.6 5 6 10.4 7.5 17.5 9.9 4.2 1.4 4.5 0 8-2.3 3.2-2.3 6.7-4 10-6.4 6.8-5 13.7-10.2 20.4-15.5 2.2-1.8 2-1.2 1.6-3.3-.3-2-1.7-4.5-2.5-6.3-1.4-3.4-3-6.6-4.6-9.8-1.9-3.7-3.5-7.7-5.8-11.1-1-1.4-2-2.7-3.2-4-2.3-2.7-2.2-2.6-5-.4-6 4.7-11.4 9.8-18 13.5-8 4.3-15.8 8.7-23.6 13.1zm178-66.5a728 728 0 013.3-36.8l2.5-18.9c.4-2.6 1.7-6.8 1-9.3-.8-2.5-4-4.8-5.8-6.6-.5-.5-2-2.5-2.6-2.5a164.8 164.8 0 00-25.6 16.8c-9.5 7.1-18.5 14.9-27.8 22.4 8.5 7.4 19 13.2 28.5 19.2 5.6 3.6 11.2 7.1 17 10.5 2.8 1.7 6.2 4.4 9.5 5.2zM222.4 623c-7 4.5-13.5 9.3-21.3 12.2-7.7 2.9-15.3 4-23.3 5.7-4 .9-7.8 1.8-11.9 2.4-2.3.4-5.9.3-8 1.2-1.8-.4-2.5.3-2 2l.1 1.5c.5 7.2 5.2 16 9.2 21.8 2.4 3.5 5.4 6.6 8.4 9.5 3.4 3.3 5.3 5.6 10 4.2 8-2.3 15-7 23-9 6.5-1.6 11.8-5 18-6.7 7.6-2.2 15.2-4.6 23-6.4-3.5-6.7-6.6-13.7-11-19.9-4.6-6.3-9.6-12.3-14.3-18.5zm42-225.6c14.3 2.9 29.9 5.5 42.7 13 5 2.8 11.4 7.3 12.8 13.3 1.8 7.1-5.1 11.5-10.9 13.8-6.9 2.6-14.4 3.7-21.7 4.5-4 .5-7.8.7-11.7 1-3.2.1-8.5-.6-11.4.7-1.8-.4-2.4.3-1.9 2.2v2l-.4 5.8-.6 11.8L260 491c7.5-4.6 13.6-11.3 21-16.3l10.4-7c1.4-1 2.3-2.4 3.8-3.3 1.9-1.3 3.5-2 5.3-3.6 7.3-6.5 15.4-12.1 23.2-18.1 3.5-2.7 7.3-5.2 10.7-8.2 3.5-3 3-5.5 2.9-10-.1-4.6 1.6-10.4.8-14.8.7-1.6.2-2.5-1.5-2.9l-3.4-2.1-6.7-4.3-26.8-17.2-13.4-8.5c-1.2-.8-5.3-4.4-6.7-4.3-1.4 0-4 2.9-5 3.7-1.6 1.4-3.2 2.8-5 4L267 380c-1.6.1-2.1 1-1.6 2.5-1.4 4.3-.7 10.5-1 15zm198.9 203.9c-3.3-15.2-7.4-33.2-20.1-43.5-12.9-10.5-31.6-6.4-41.7 5.9-5 6.1-8.2 13.4-10.5 21-2.4 7.7-5.9 17.8-5.2 26 .3 3.6 3.3 7.4 5.1 10.6 1.8 3.2 3 7.9 7.3 6.7 6.6-1.7 13.4-5.7 19.6-8.6 6.3-2.8 12.9-5.2 19.4-8 4.3-1.9 8.8-3.3 13.1-5.2 4-1.7 9.5-2.2 13-5zm192-90.5c9 3.3 13.7-2 20-7.8 6.1-5.5 12.7-10.8 18.2-16.8 5.7-6.2 10.3-13.6 14.7-20.7 4.4-7.3 10.5-15.1 13.2-23.2 1.4-4 2-8.6 2.9-12.9.2-1 1.6-4.8 1.2-5.6-.6-1.2-4.6-1.3-5.7-1.5a90.7 90.7 0 00-26.5-.2c-16.7 2.3-30.8 11.7-36 28.2-6.3 19.3-3.3 40.7-2 60.5zm-58.8-167.2c-.2 3.3 7.8 4.2 10 5 4.7 1.8 9.5 3.7 14.1 5.8 9.6 4.4 19.8 7.3 29 12.6 19.8 11.4 41.3 19.4 61.3 30.4 3.1 1.7 9.2 5.8 12.8 5.4 1.8-.2.4 1.4 1.7-1.7.4-1 .5-2.4.8-3.6.7-3.5 1.3-7 2.1-10.4 1.4-5.7 2.8-11 3.4-16.8.2-2.5.5-5 .5-7.5s.6-8.8-.5-11c-.8-1.5-1-1-2.8-1.4l-3.3-1c-2.4-.8-4.9-1.5-7.4-1.7-2.6-.3-4.2-1-6.6-1.5-2.5-.4-5 .1-7.6-.5-2.7-.7-4-1.4-6.9-1.1-2.8.2-3.6-.4-6.3-1.1-2.3-.7-5-.2-7.3-.4l-8.6-.8c-13-1-26 .5-39 .3-7 0-13.8 1-20.8.7-6.2-.3-12.5-.2-18.6.3zm33.5 68c-6.2 2.3-12 6.2-17.9 9.6-6.7 3.8-13.1 8-19.3 12.5-10.4 7.8-22.6 17.1-25.4 30.7-2.8 14 9.3 25.3 20.6 31 13 6.5 28 9.9 42.2 12.4-1.6-32.1-1.2-64.2-.2-96.3zM442.3 487c-3.8 1-7 3.3-10.6 5-3.1 1.5-6.2 2.6-9.1 4.5-4.8 3.1-10.4 5.8-15.5 8.2-12.4 6-24.5 13.5-36.8 20.1-3.3 1.8-4.4 2.9-5.5 6.5l-3.5 11.9c-1 3.7-2.8 7.6-2.3 11.5.4 3.4 2.1 6.6 3.4 9.6 3.4 7.8 7 15.5 10.7 23 3.3 6.8 6.4 14 10.6 20.3 3.4-17.4 6.4-36.8 19.3-50a31.2 31.2 0 0145.9.2c6 6.5 9.5 14.6 12.3 22.8 1.5 4.4 2.5 8.7 3.5 13.2 1 4.8.7 7.3 6 5.8 4.2-1.1 8.6-2 12.7-3.3 2-.7 4.1-1.5 4.2-3.1.2-2.1-2.7-6.5-3.5-8.5a405094.2 405094.2 0 00-34.3-81c-2.1-5-4-12.5-7.5-16.7zm188-86.7l.3-15.3c0-3 1.4-8.8-1.2-11-1.7-1.3-6.5-2.3-8.6-3.3-4-1.8-8.5-2.6-12.5-4.4a640 640 0 00-49.3-18.5l-10.8-3.4c-2-.7-9.1-4.5-10.9-3.5-1.6.9-2.8 11.3-3.3 13.4a1312.5 1312.5 0 00-14.5 75.5c8.8-3.3 17.2-9.1 25.5-13.6 8.7-4.6 17.3-9.3 26-13.8 2.4-1.3 11-7.2 13-4.8 3.3 3.7-4.4 8-6.5 9.6a308.5 308.5 0 01-24.5 16.9c-8.6 5.5-17.7 10.4-26.4 15.9-3.1 2-8.2 4.3-9.4 7.7-1.6 4.2-.4 9.4 1 13.5a563.3 563.3 0 0017.3 43.1c2.4 5.3 5.4 6.4 10.5 8.8 21.7 10.4 44.2 20.2 65 32.2-3.5 4-12-2.6-15.4-4.3-6.4-3-12.8-6.2-19.1-9.3-11.9-5.7-23.6-11.6-35.6-17.2 7.7 17.3 16.7 34 26.7 50.2-2.5.8-2 .9-3.5-.7-1.4-1.2-2.2-3.7-3.1-5.3l-5.6-10c-4-6.8-8-13.6-11.5-20.7-2.7-5.2-4.8-14.5-10.3-17.2l-20.7-10c0 26.5 2 52.3 4.7 78.5.1 1.3 1.4 5.2-1.2 4.9-1.1-.2-1.5-7.5-1.7-9a511.3 511.3 0 01-4.4-62.6l-5 40.7-2.3 19.3-1.3 10.1c-.1 1.5 0 3.6-.6 5-.8 2.4-.5 2.2-3.2 3.3a2015.2 2015.2 0 0010.6-86c.1-1.2 1.1-5 .6-6-.6-1-4.3-2-5.4-2.5l-7-3.3c-7.7-3.6-15.3-7.2-22.9-11-3.3-1.6-6.7-4.1-10.3-5-3.6-.8-6.2 1.6-9.3 3.2-2.3 1.3-8 2.9-9.5 5-1.5 2 3 9.7 4.3 12.6l10.2 24.3 20.7 49.3 5 12c1.1 2.6 3 10 5.6 10.2 1.1.1 3-1.1 4.2-1.5 1.6-.5 3.2-.5 4.9-.8 3-.5 6.2-2.1 9.3-3.2 7.7-2.9 15.8-4.8 23.6-7.4 7.9-2.7 15.6-5.7 23.5-8.4 7-2.5 14.3-5.2 21-8.4 7.3-3.4 14.7-6.3 21.8-10 12.8-6.8 25.5-13.2 36.8-21.5 2.6-2 5.5-3.9 8.1-6 2.3-1.8 6.7-4.1 8.3-6.5.6-1 1.1-2.7.4-3.8-.7-1.2-4-1.1-5.6-1.3l-14.7-2 1 9.7c.2 2.3 1.5 8.3-.3 10.1-2.5-2.4-1.7-9.5-1.9-12.7-.1-1.6.3-5-.4-6.5-.9-1.6-3.2-1.6-5.3-2-8.8-2-17.5-3.6-26-6.6-14.5-5-31.7-13.7-35-30.4-3.3-17.3 11.5-32.3 23.9-42 7.4-5.8 15.3-10.8 23.5-15.5l11.5-6.4c1.4-.8 6-2.4 6.8-3.8.7-1.4.3-5 .5-6.6zM321.9 666.7l-2.1 1a1231 1231 0 0022-66.9l9.6-32.7c1.4-4.7 4.8-11.1 3.8-16-1-5.2-3.5-10.8-5.4-15.8-12.3 7.7-24.9 15-37.4 22.4-11.2 6.6-22.6 12.5-33.9 19-5.8 3.4-11.7 5.7-17.8 8.4-4.9 2.3-3 9-2.9 13.6.2 16.1.2 32.2 1.2 48.3.4 5.8 0 12.5 3.6 17.4 4.8 6.2 9.2 12.6 13.5 19.1 1.7 2.5 8.5 15.7 11 15.4 1.7-.1 3.2-5.5 4-6.8 1.9-2.7 4.5-5.1 6.9-7.3a185.5 185.5 0 0133.6-23.3c12-7.1 24.4-13.7 36.7-20.4 2.8-1.6 5.8-2.7 8.6-4.2 1-.6 3.2-1.6 3.9-2.7 1-1.6.7-6.2.9-8.2.4-4 1.2-8.1 1.3-12.2 0-4-2.4-7.4-4.1-10.9-7.7-15.2-15-30.6-21.7-46.3-5.3 18.3-10.8 36.5-16 54.8-2.6 9.5-5.8 19-9 28.3l-4.8 14.5c-1.2 3.7-1.9 9.2-5.5 11.5zm109.6-344.5c-4 0-7.7-.5-11.7-1.4l-4.2-.6c-1.6-.1-3.1-1-4.6-1.2-1.1-.1-3 .3-4.1.7-2.4.8-2.4.4-2.5 3.2l-.5 13.2c-1 17.3-2.8 34.4-5.3 51.5-.5 3.4-2 8-1.1 11.4.7 3.1 3.3 6.4 5.1 9 3.6 5.3 12.2 8 18.2 9.5 6.4 1.6 13 2.2 19 3.6 1.7.4 3.6-.3 5.4.1 1.6.4 2.9 1.3 4.4 2 3.7 1.5 7.9 1.8 11.7 3 7.7 2.5 15.9 2.4 23.5 4.7 2 .6 3.6 2.1 5.5 2.6 1.7.5 3.5 0 5.3.2 3.8.6 7.4 1.9 8.3 6 2.3-1.9 2.6-1.4 2.2-4.2-.2-1.9-1.3-4-1.8-5.8l-4.3-13.5a1138 1138 0 01-8.2-26.8c-2.3-8-4.4-16.1-6.3-24.3l-2.5-12.4c-.2-1.2 0-3.2-1.2-4-1.1-.7-3.7 2-4.8 2.8-8.2 5.9-26.8 23.3-37 13-5.4-5.5-5.1-15.3-4.5-22.4.4-4.4 1.1-8.7 2-13 .2-1.1 1.5-4.6 1-5.3-.5-.9-5.9-1.4-7-1.6zm285.4 96l6.5.8c-.2-1.8 0-4.4-.7-6-.9-2.3-3.1-2.5-5.6-3.4-3.9-1.5-7.8-2.8-11.7-4.4l-25-10.4c-3.7-1.5-8-4-12-2.7-4.3 1.3-8.5 4-12.6 6l-13.6 6.8-6.4 3.1c-3.3 1.7-3.8 1.9-4 5.6a599.1 599.1 0 00-.7 59c.3 9.8 0 19.8.7 29.7 0 .7 0 5 .5 5.6.6.8 5.3 1.1 6.5 1.3 4.4.8 8.8 1 13.2 1.5-1-22.6-4.9-49.2 6.7-69.8 11.6-20.7 36.5-25.2 58.2-22.6zm-202-221.6c1.3-3 3.5-5.5 5.4-8 1-1.5 2.9-3.2 3.5-4.8 1-2.4 1-1.9-.4-4-1.4-1.9-1.3-2-3.4-2.4-1.7-.2-3.6.2-5.4 0-1.8-.4-6.7-2-5.6-4.8 0 .2 2.8-1.2 3-1.5.8-.8 1-2.4 1.4-3.4 1.1-3 1.5-5 .2-8.2-1.9-4.8-9.4-6.2-14-4.6-2.4.8-3.7 2.5-4.8 4.7-.6 1.3-.8 3.3-1.6 4.5-1.3 1.8-1.4 1.6-4.1 1.3-3.4-.4-6.3-1.7-9.5-2.7-3.6-1-5.9 1-9 2.7-5.5 3-11 4-17.2 4.5-7 .5-13.4-1.2-20.3-1.6 1.8 8.3 6.4 15 10.1 22.4.7 1.3 1.7 2.7 1.7 4.2 0 1.4-2 3.4-1.8 4.5.5 2.6 6 4.6 8.2 5.3 6 2 12.7 6 19.3 4.4 3.6-.9 5.5-6.6 8.9-7 4.5-.6 1.1 5.3.3 7.3 6.4 1 14.6.2 20.8-2 3-1.1 5.7-2.8 8.5-4.4 3.5-2 4.2-2.5 5.8-6.4zM402 319.3c-11.5.2-23.2-1.5-34.7 0a85 85 0 00-7.9 1.6c-1.9.4-7.9.8-9.1 2.2-1.2 1.2-1.2 7.1-1.4 8.8-.5 3.7-.4 5 2 7.8 7.7 9.4 15.8 18.5 23.4 28 7.3 9.1 13.3 19.3 20.7 28.3 4-11.5 4.2-25.3 5.3-37.4l1.6-19.3c.5-6.2 2.1-14.2 0-20zM253.4 440.7c1.4 0 3.5.4 4.8 0 1.7.5 2.3-.1 1.8-2v-2l.6-12.9.5-11.7c.1-2.7 1.5-9.3.4-11.7-.7-1.6-2.4-1.2-4.5-1.5l-6-.7c-2.5-.4-5.3-1.3-7.8-.8-2.6.6-4.4 3-6.5 4.5-3.1 2.4-6.4 4.7-9.6 7l-17.4 13c-2.4 1.7-2.9 1.1-1.7 3.7.7 1.6 2.4 3.3 3.4 4.8 2 2.8 4 7.2 6.5 9.5 3.7 3.3 14 1.2 19 1.2 5.5 0 11 0 16.5-.4zm14.6-.3c4.8-.5 9.8-.3 14.6-1 5.3-.7 10.5-1.7 15.8-2.5 5.2-.8 21.1-4 19.6-11.8-1.7-8.3-13.9-13.2-20.7-16-10.5-4.3-21.5-6.7-32.6-9.1-1.4 7.4-1.2 15.4-1.4 22.9-.2 4-.3 8.1-.3 12.2 0 1-.3 3 0 4 1 2 2.1 1.3 5 1.3zm-16 3.5h-31.1c4.6 9.6 9 19.3 13.9 28.6 5 9.3 11.3 18 16.9 27 1.4-1.5 3.7-3.2 4.6-5 1.1-2 1-5 1.2-7.4.5-6.1.7-12.3.9-18.4 0-5.4.3-10.7.7-16 .1-1.2 1.4-7.3.7-8.3-.7-1-6.5-.5-7.8-.5zm128-187h15.8c4.7 0 11-.7 15.3 1.7 8.9 5-8.9 17.8-12.5 21 5.8 2.2 15-2 20.6-4 7-2.3 14.3-4 21.4-5.8 1.8-.4 9.5-1.3 10.5-2.7 1-1.4-1.2-9.6-1.4-11.4-.2-1.6 0-4.1-.7-5.7.4-1.8-.2-2.5-2-2h-1.7l-13.1.5a360.8 360.8 0 00-65.4 7.2c-5.8 1.2-4.8 2.1.6 2.1 4.2 0 8.4-.6 12.6-1zm431-110.5l2.7-3-6.5-2c-2.4-.6-3.6-.4-2.6-3 1.3-3.3 7.2-3.6 10-3.8 9.8-.4 20 2.7 29.2 5.4 4.6 1.4 8 3.4 12 6.2 1.6 1.2 3.5 2.3 5 3.7 1.5 1.5 2.1 3.4 3.6 5 2.4 2.4 5.5 3.6 6.7 7.2 1.4 4-.2 8.7-2.3 12.2-2 3.6-5 6.4-7.6 9.6-2 2.6-6 9.7.4 9 3.4-.5 7.8-6.3 10.2-8.6 3.5-3.3 7-6.7 10.7-9.8 3.3-2.7 7-5.5 11.5-6 4.6-.5 7 2.5 9.2 6 2.1 3.5 2.4 6.8 4 10.3.7 1.7 1.6 2.6 2 4.4.7 2.8.7 5.9 1 8.8.6 4.5 1 8 .2 12.4-.8 4.2-1 8.6-1.7 12.8l-2.2 14.3c-.7 4-3.2 9.8-.7 13.5 5.8 9 12.8-4.2 14.7-9.2 3.2-8.7 4.9-18.2 7.7-27.1 1.5-4.8 2.9-9.6 3.8-14.5.7-4.1.3-9 2.6-12.7 1.7-2.8 4.8-5 8.2-4 4.2 1 5.8 7.1 7 10.8 3.4 9.9 2.2 18.7.8 28.7-.6 4.7-1.2 9.3-2.3 13.9-.7 3-3.6 9.3.8 11 6.3 2.3 12.9-15.7 14.7-19.7a133 133 0 008.4-32.7c.4-2.6.8-5.3 1.4-7.8.6-2.3 2.3-4.6 2.5-6.8.2-2.2-1.3-3.8.2-6 1.3-1.8 3.5-2 5.6-2 4.9 0 9.5 2.1 14 3.7 4.3 1.4 10.5 4.6 15 3.6a290.7 290.7 0 00-45.4-40 231.4 231.4 0 00-24.3-14.6 160 160 0 00-27.8-9.8c-5-1.4-10-3-15-4.7-4.4-1.4-8.8-1.7-13.2-3.4-9.4-3.5-19.9-5-29.6-7.5l-13-3c-4.5-1.2-10.9-3-15.5-2.9-4 .2-5.3 4.7-7.2 7.8-2.7 4.6-5 9.3-7.2 14.2-4.5 10-9.1 20.3-12.3 30.7l-5.2 17.2c-1.5 5-5.2 12-4.2 17.2 7.3-11.3 14.1-23 20-35zM471.5 248l-11.6.5c3.8 12.7 3.3 26.2 3.3 39.3a434 434 0 0154.3-2.3c-3.3-6.4-2-14.8-1-21.6.5-4 .8-8 .7-12 0-3.8 1-7-3-8.2-3.2-1-5.2.6-8.3 1.3-3.6.9-7.6 1-11.4 1.4-7.7 1-15.2 1.6-23 1.6zm-104 24.7c11.7-3.2 24-2 35.7-4.5-2.6-2.4-7.6-1-11.2-.8l-12 .6c-4 .2-14.8-.1-16.2 4.9l3.8-.2zM792.8 92.9c-15.2 1.3-31.1 1.1-46.2 3.8-17.3 3-35.3 5-52 10.3-16.5 5.2-33.3 9-49.5 15a377 377 0 00-45.8 20.5c-7.2 3.9-14.3 8-21.2 12.6-6.8 4.4-14.2 8-20.7 12.6-5.9 4.2-10.9 8-16 13l-16.1 16.6c-4.6 4.5-1.7 15.6-1.4 21.6.4 8.4 1 16.6 2.1 24.9 1 8 2 16.4.7 24.3-.5 3.3-2.4 9-1.5 12.4.7 2.6 5.4 4.6 7.8 5.4 3 1.1 6 .7 9 2 3.4 1.5 6.3 3.4 9.9 4.2 4.4 1 9.4 1.8 14 1.8 4.2 0 8.4 1.4 12.6 2.2 6.8 1.4 13.5 1.8 13 10-.4 9.6-4.2 17.7-6.5 26.7 3 0 5.2.2 8-.8 3.2-1.3 6.7-1.6 10.1-2.2 7.5-1.2 14.9-1.6 22.5-2.3 13.9-1.4 28-1.3 42-1.1 7 0 14.6.6 21.5 1.7 7.2 1.1 14.5 1.8 21.4 4 5.9 1.8 11.9 3 17.8 4.7 2.7.7 5.9 1.3 8.4 2 3.7 1.3 5.7 3.8 9.9 3.7-1.2-7.8-4-15.1-5.7-22.9a95.7 95.7 0 00-9.1-23c-1.8-3.4-3-7-4.7-10.4-1.9-3.9-4.5-7-6.7-10.6-4.6-7.4-9.5-14.4-14-21.8-4-6.4-8.4-12.6-12.7-18.8-4.8-6.9-11.4-12-16.7-18.3a101 101 0 00-7-7.6c-2.3-2.2-5.6-7.2-9.2-7.4-2-.1-5.7 1-7.6 1.7-3.7 1.1-7.5 1.9-11.3 2.9-4 1-8.1 2.5-12.2 3.6-1.7.4-3.6.2-5.2.7-1.6.5-3 1.6-4.7 2-8.8 2.6-17.6 5.4-26.4 7.7-9.2 2.3-18.4 4.3-27.3 7.6-1.7.7-3.6 2.2-4.8 1.2-1-.8-1.6-2.8-1.4-4 .9-4 7.3-5.5 10.4-7.1 8.3-4.4 16.6-7.4 25.5-10.4 4.4-1.4 8.8-3 13.3-4.2 3.7-1 7.6-2.8 11.4-3.4 3.4-.4 5.8-1.8 9.2-3 5-1.7 10-3.1 15-4.6 8.7-2.6 17.8-3.6 26.6-5.3 20.4-4 41.6-6 62.5-5.7 10.5 0 21.5-.2 31.9 1.5 2.5.4 7.7.3 9.5 2.6.9 1.2.4 3 .6 4.3.4 2.2 1.6 3.2 2.7 5.2 2.2-10.8 4.7-21.5 7.6-32.2 2.6-9.7 5-19.6 8.4-29.1 3.7-10.1 8.1-20.9 13.6-30.1 1.1-2 4-5 4.2-7.1.2-2.2-2.9-3.9-5-4.1-4.7-.6-9.8.3-14.5.5zM895 248.3c1.5-15 6-30.9 3.5-46-1-6.4-2-12.5-5.1-18.3-1.6-3-2.3-5.1-5.4-3.4-3.1 1.8-6 6-8.6 8.6a89 89 0 01-15.5 12.7c-4.5 2.7-13.4 5.3-16.8-.5-3.3-5.6 1-13.3 4.1-17.9 3.6-5.2 10.3-10 6.5-16.5-1.6-2.8-4-3.5-6.4-5.4-2.1-1.5-3.9-3.6-6-5.2-6.1-4.6-12.9-6.6-20-9.3-3.2-1.2-3.6-2.4-5.5.4-2 3-3.2 7.4-4.7 10.7a164 164 0 01-10 19.5c-3.8 6.4-7.3 13-11 19.5-1.3 2.4-2.6 5-4.2 7.2-1 1.3-2 2.4-2.7 3.8-1.1 2-.6 3.8-1.3 5.8-2.9 8.7-7-3.4-7.8-6.2-1-3.3-3.1-5.8-4.5-8.8-1.2-2.5-2-6.2-4.9-7.3-2.3-1-5.3.3-7.6.4-4.4.3-8.8 0-13.1.2l-12.3.9c-4 .2-8.1-.4-12.2 0-7.2.8-14.6.6-21.8 1.7-8.5 1.3-17 2.6-25.4 3.6 2 3.8 6 5.4 9.3 8 2.9 2.4 5.2 5.2 8 7.5 3 2.3 4.8 5.7 7.3 8.4 2.4 2.7 4.6 5 6.7 8 10.1 14.7 20.6 28.7 29 44.5 4.2 8 8.2 16.6 11.1 25.2 3.1 9.2 4.6 19 6.5 28.6a32 32 0 01-.5 17c-.8 1.3-.5 2.1 1 2.6 1 1.3 2.1 1.8 2.2 3.5 0 1.4-.7 3-1.8 3.7-2.3 1.5-2.3-.5-4.6 0-1 .4-1.8 1-2.7 1.4a67 67 0 00-1.4-2.1c-1.5-1.4-2.7-1.3-4.6-1.6 1 11.3-.6 21.5-3 32.6-1.3 5.3-3.4 10.5-4.4 15.9-1.2 6 1.4 8.7 5.3 12.6-1 .6-2.7 1.1-3.6 1.9-1.3 1.2-1 1.4-1 3.3 0 3.6-.6 7-1.2 10.6-1 6.4-2 13.1-4.2 19.3-4 11.3-10.5 23-17.2 32.8-3.7 5.6-7.5 11.9-12.1 16.7l-14 14.4a162 162 0 01-30.3 23.1 91 91 0 00-12.7 9.4c-3.9 3.6-9 6-13.5 8.6-2 1.2-3.5 2.8-5.7 3.8-2 .9-3.5 1.2-5.2 2.3-4.3 3-9 5.4-13.7 7.6-5.7 2.6-11.4 5.7-17.3 8-2.7 1-5.3 2.1-7.9 3.3-2.8 1.3-5.9 2.2-8.8 3.6-2.4 1.2-5 1.9-7.4 2.8-2 .8-3.6 2-5.7 2.9-4.3 1.7-8.3 2.6-12.5 4.6-5.5 2.7-12.1 4-18 5.9-6.6 2.1-13.4 4.3-20 5.8-3 .6-5.4 1.5-8.2 2.5-1.8.6-3.8 1-5.8 1.5-5.5 1.7-11 3.4-16.6 4.8a364.6 364.6 0 00-32.4 10c-5.5 1.9-11 4.3-16.3 6.8-6 2.9-12.5 4.5-18.4 7.4a1620 1620 0 00-34.6 16.8c-6 3-12 6.1-17.8 9.4-2.1 1.2-4.5 1.7-6.6 2.9-2.7 1.5-5 3.7-7.8 5.2-11 5.9-22.1 11.4-32.1 18.7-5.3 4-11 7.9-15.5 12.6-1.5 1.5-4 4-4.3 6.2-.4 3.3 0 .2 1.1 2.3 1.6.2 2 .8 1 1.8a2 2 0 01-1.5.8c-2 .4-5.7-1.8-7.4-2.7a17.4 17.4 0 01-6-6l-11.8-17c-3.7-5-7.2-10.4-11.4-15-2.8-3.1-3-1.8-6 0-2.4 1.3-5 1.8-7.5 3-9.1 4.7-19.2 8.2-28.6 11.5-2.1.7-3.3 1.9-5.1 3-2.4 1.2-5.5 1.9-8 2.8-7 2.6-14 5.2-21 8-5.5 2-10.7 3.6-14.9 7.5-1.7 1.5-3.7 2.6-5.4 4.2-2 1.8-4.8 4.7-7.4 5.7l-1.5 1.2-3.2-2.2-3.1-2.1-7.8-5.5c-6-4.2-11.8-8.4-17.3-13a715.7 715.7 0 00-30-24.2c-10.8-8.3-21.2-17-32.3-24.7-10-7-21-12.9-30.7-20.3-4.9-3.7-9.7-7.5-14.7-11.1-.3-.2-4.4-2.7-4.4-3 0-.5 1.2-1.8 1.6-2.2 2-2 4-3.9 5.8-6 8.7-9.5 20-9.2 32-9.6 5.5-.2 11.4 2.3 16.5 4 6.3 2 12.4 5.1 18.5 7.8 12.6 5.4 25.6 10 38.3 15.1 5 2 10 3 15 4.3 5.1 1.4 10.4.1 16 .2 2.8 0 5.5.2 8.4 0 1.7 0 3.7-.4 5.3-.3 1.4 0 2.8.6 4 .4 5.6-.6 11.4-1.5 17-2.2 5.7-.7 11.5-1 17.1-2.2 2.8-.5 5.6-1.3 8.3-2.3 2.3-.8 6.6-1.7 8.5-3.4 1.7-1.5 1-1.5 0-4-.4-1-.8-2.4-1.3-3.3-1.6-2.5-3-3.3-2.1-6.5 1.5-5.5 6.8-9 11.4-11.8 10.2-6.1 19.6-14 30.3-19.2 22.2-10.7 42.5-24.7 64.1-36.4 23.8-13 46.3-28.2 70.5-40.6 22.4-11.6 44.8-23.2 67.5-34.4 11-5.4 23.5-10.4 33.6-17.6-5.6-.7-11.2-1.6-16.8-2-2.5-.3-5.2 0-7.7-.5-3-.4-5.6-1.6-8.5-2-5-1-9.4-2.6-14.3-3.2-5.3-.7-10.5-2.3-15.8-2.7-11.2-1-21.2-5-31-10.2-2.4-1.3-4.4-.6-6.7-1.4-1.3-.5-2.7-2.4-4-3.4-4-2.9-7.4-6.2-11.2-9.3-7.9 17.7-23.3 29.7-38.1 41.6-7.5 6-15.6 11-23.2 17a153 153 0 01-17.4 12.3c-6 3.5-11.7 8.2-17.4 12.4-3.9 2.8-8.5 5-12.6 7.4-3.4 2-10 5-10.9 8.7-.7 3 .8 6.6-3.8 5.2-4-1.2-7-5.8-9.4-9a594.3 594.3 0 01-17.6-25.3c-3 6-8.4 10.3-13.3 14.7-3 2.7-6 5.2-9.2 7.6L199 506c-.6.5-2 1.2-2.4 1.8-1 1.5-.4.8-.2 2.7.2 2.8 1.1 5.1-.5 7.9-1.5 2.5-4.8 3.6-7.2 5.4-5.5 4.2-11.4 8.7-17.5 12-1.4.7-2.7 1.3-4 2.2-2.2 1.6-1.8 2.1-4 .7-3.4-2.3-6.4-6.1-9.5-8.9-6.4-5.7-13-11.4-19.6-17-12.6-10.6-25.6-20.7-38.1-31.5-12-10.3-24.6-19.3-36.8-29l-10-8c-3-2.5-7.7-5.2-10-8.3-3-4.5 9.3-10.7 13-11.7 6.5-1.5 14.8-.6 21.3.7 6.8 1.3 13.7 5.9 20 8.7 7.1 3.2 14.4 6 21.6 9 3.2 1.4 6.6 2.5 9.6 4.3 3.1 2 6 4.1 9.3 5.7a107 107 0 0012 5 31 31 0 005.7 1.5c2.8.4 2.4-.9 4.7-1.6 2-.6 2.4 1 4.1 1.4 1.7.4 2.9 0 4.3-.9 3.2-2 6-4.6 9.2-6.7 3-1.9 6.2-3.7 8.9-5.8 1.2-1 2.1-2.3 3.4-3.2 1.9-1.6 2.7-1 5-2 1.8-1 3.5-2.6 5.2-3.7 1.1-.6 3.8-1.5 4.5-2.6 1.8-2.8-1.3-4.8-4.2-4-.4-2.4-2.6-8.3-1.6-10.6.8-2 3-1.7 4.8-2.8 7-4 12-11.4 18.5-16.2 6-4.6 11.4-10 17.5-14.5 5.1-4 10.8-7.8 15.5-12 5.5-5.1 12.7-9 18.7-13.5 6.3-4.6 12-9.8 18.3-14.5 5.9-4.5 11.7-9.2 17.9-13.5 5.4-3.8 11.2-7.3 16.6-11.2 3-2.2 6.1-4 9.5-5.5 3.4-1.4 6.3-3 9.5-4.5 6.5-3 15-5 22-6 7.8-.9 15.6-1.7 23.4-1.7 4.2 0 8.2.8 12.4 1 3.8.3 8 1.2 11.7 1.1 1.7 0 3.2-.8 4.9-.5 1.3.1 2.6 1 4 1.1 3.3.4 6.7 0 10 .5 7.7 1 15.4 2.3 23.1 3.1 8.2.9 16.4 1 24.5 2.4 8 1.4 16 2.8 24 4.4 16.8 3.3 33.8 6.6 50.4 11.6 4 1.2 7.8 2.3 11.5 3.9 1.8.8 3.6 1.7 5.5 2.3 2.7.8 3.2 1.1 4.6-1.2 2.4-3.9 3.7-9 5.5-13.3 1.7-4.2 3.8-8.4 4.8-12.8-3-.4-6.6.5-9.6.6h-11c-7.3 0-13-2.2-20-4.5-5.9-2-13.7-3-18.2-7.5-2.4-2.3-3.2-2.7-6.8-2.3-3.6.4-7.2 1.1-10.9 1.3-13.9.4-27.7 2.8-41.6 3.3-3.7.2-13.2 2-12.5-4.4 0-1.4 1.1-2.5 1.3-3.9.2-1.5-.2-3-.4-4.4l-1.6-10.1c-12.7 4-25.6 7.4-38.5 10.6-5.4 1.3-14 4.4-19.5 2.7-5.4-1.6-2.3-9.2-.6-12.8-10.7 2.5-22 6.4-32.9 7.3-3.3.3-6.5 1-7.3-3-.6-3.1 1.7-7 2.9-9.8-8.4-.8-17-.7-15.4-11.4 1.4-9.8 9.6-11.7 18.2-13.5 10.7-2.2 21.7-3 32.4-4.7 9.4-1.6 19.6-3.3 29.2-2.6 5 .5 10.1.6 15.2 1 2.4.2 4.7.6 7 1.3 2.1.6 5.1 2.4 7.3 2.5 3.3 0 7.3-4.4 10.8-5.5 4.4-1.3 9.2-1.5 13.7-1.8 5.1-.4 10.3-.5 15.4-1 1.2 0 5.7.2 6.6-.5 1.3-1 .4-6 .3-8.2 0-2 .3-5.6-1-6.4-1.3-.7-5 .3-6.2.5a75 75 0 01-15.3.5c-2.4 0-4.7.6-7 .2-2.6-.3-5.1-1.1-7.7-1.6a40 40 0 01-15.1-5.4c-4.1-2.7-9-4.5-11.3-9.2-1.7-3.4-2.4-10 2.5-11a59.5 59.5 0 01-7.5-16.1c-.3-1-.5-2.6-1-3.5-1.7-3.1-.1-.3-2.6-1.6a18 18 0 01-6-4.4c-3-3.4-4.3-7.7-4.7-12.2-.5-6.1-1.5-13-.6-19.1 1.5-10.6 9.2-18.5 17-24.9 4.3-3.4 10-4.7 15-6.8 4.7-2 10.1-4.2 15.2-4.7 4.6-.4 9-1.9 13.6-2.5 6.3-.8 12.6-.5 19-.8 2.9 0 5.8-.5 8.7-.8 1.6-.2 4.4 0 5.9-.6 2.4-1.1 1.1 1.1 2-2.1 1.7-6.2 3-12 5.5-18 2.4-5.6 5.3-11 9-15.8 3.6-4.5 8.2-7.8 12.3-11.6 3.1-2.8 6.7-5.4 10.2-7.7 2-1.3 4.2-2 6.2-3.2 2.5-1.4 4.6-2.5 7.4-3.4 5.9-2 11.8-4 18-3.8 6.8 0 13.6-1.5 20.2.5 12.2 3.7 18.2 17 18 29.2 4.2-1 7.8-3.1 12.3-3.3 4-.1 8.9.2 13 1A32.9 32.9 0 01663 69.6c4.5 6.3 5.1 14.6 2.4 21.7a37.7 37.7 0 01-5.6 9.3c-1.6 2-5.2 4.4-5.3 7.2A578.4 578.4 0 01746 88.1c15.8-2 31.6-1 47.4-2.2 6.8-.5 14.1.2 21 .2 3 0 5.3-.4 7.5-2.3 2.1-2 3.9-4.3 6.4-1.5.6.7.8 2.4 1.6 3 1 .6 4.1.2 5.4.3 4.4.2 8.7 1 13 1.8 7.9 1.6 15.7 3.2 23.6 5.2 14.8 3.8 29.5 7.5 44.2 12a243 243 0 0143.9 17.8c6.7 3.6 13.3 8 19.5 12.6 2.8 2 5.4 4.3 7.9 6.8 2.6 2.7 5.9 4.5 8.5 7.2a285 285 0 0116.6 18.5c2.7 3.3 5.2 6.8 7.6 10.3 1.7 2.5 6.2 7 5.2 10.3-.6 1.7-2.5 2.9-4.2 2.5-.6-.2-1.1-1-1.6-1-1.7-.2-.2-.8-2.1 0-4 1.6-5.2 4.8-10.2 4-8.5-1.2-16.5-5.2-24.2-8.7-2.2 8.4-2.5 17.1-4.4 25.7-1.9 8.3-5 16.2-8.8 23.8a55.7 55.7 0 01-13.5 18.6c-4.5 3.7-15.5 8.2-18.8.4-1.4-3.3.7-8.4 1.3-11.8.7-4.5 1.6-9.1 2-13.7.5-3.7.7-7.5 1-11.2.3-3.3 1.2-10.2-.6-13-1.1-1.7-1.2 0-1.8 1.7-.8 2-1.4 4-2 6.2l-3.4 13.7c-2 8.1-4.3 16.1-8.5 23.4-3.7 6.5-9 13.7-17 14.7a16 16 0 01-11.5-3.7c-3.2-2.9-2.3-7.5-2.2-11.4zM712 580.8c4.3-.9 8-4.4 11.6-7 4.6-3.4 9-7 13.4-10.6 8.4-6.7 16-14 23.2-22 14.3-15.6 25-35.8 30-56.4 2.4-10.5 5.5-22.7 4.1-33.5-.5-3.7-1.2-4.4-4.9-4.8-1.7-.2-5.9-.7-7.4 0-3.8 1.6-6 8.8-7 12.4-3.5 10.7-5.5 21.8-8.5 32.6-3 10.5-7.9 21.2-12.7 31.1a242 242 0 01-41.9 58.2m87.3-121.3c-2.6 30-10.9 58.4-29.5 82.5a182.1 182.1 0 01-30.5 30.5 232.6 232.6 0 01-47.4 30.6c-2 1-7 4.6-9.2 4-1.9-.5-2.3-1.9-2.6-3.7-.7-4.1 2-6.2 4.7-8.9a709.5 709.5 0 0032-32.6 201 201 0 0043.5-78c2.6-8.8 5-17.8 7.7-26.6 1.7-5.4 4.1-15 9.7-17.6 3-1.5 6.6 0 9.8-1 3-.7 5-2.4 7.5.4 4.5 4.8 4.7 14.3 4.3 20.4M3.7 632.1c-2.2.8-2.3 1.6-3.3-.7a8.3 8.3 0 01-.3-4c.3-2.8 1.8-5.5 3-8a485.7 485.7 0 0036.5 26.9 648.7 648.7 0 0139 29.3c11.3 9 22.8 17.9 34 27 5.5 4.5 11.7 7.9 16.8 12.4 4.2 3.7 11.1 5.4 14.7 9.7-5.7 3.4-13.2 6-19.4 3.2-7-3.2-12.2-7.4-18.3-11.8l-9.7-6.4c-2.8-2-4.8-4.7-7.6-6.5-6-3.8-12.2-8-17.9-12.2-5.8-4.4-12.3-8-18-12.6-5.7-4.9-12.2-8-18.2-12.4a97 97 0 01-31.3-34m345.2-492.5l-.5 2.5c.1 0 7.8-14.7 9-16.5 4.3-6 10-11.1 15.3-16.2 11.5-10.7 24.8-19.3 36-30.2 3.7-3.6 10.3-9 8.9-15.1-1.5-6-13.7-4.8-17.9-3-6.6 2.7-11.9 8.4-16.8 13.4-5.3 5.4-10.7 10.8-15.2 17a95.6 95.6 0 00-12.5 21.5c-3.4 8.6-4.7 17.5-6.3 26.6m2.5 26.4c-5.2 1.6 1.3 2.7-.7 5.5-2.2 3-6-6.3-6.6-8.1a75.4 75.4 0 010-33.8c1-5.4 1.5-10.8 2.8-16.1 1.2-5.2 3.8-10 6.2-14.8 4.8-9.4 11.2-18.2 18.5-25.8a92 92 0 0125-20.2c8-3.9 20.5-1.2 24.2 7.4 3.8 8.7-1.3 18.2-7.4 24.4-7.9 8-16.5 16-25.4 22.8-4.6 3.6-8.4 7.9-12.9 11.6-4.7 4-8.8 7.9-12.3 13-3.4 5-6.9 9.9-9 15.5-2.5 6.1-2.4 12.1-2.4 18.6"/><path d="M143.6 542.6c-12-7.7-24-14.5-34.3-24.3-10.3-9.6-19.2-20.6-30.7-29-5.7-4.1-11.5-8-17.1-12.4-5.4-4.1-11.5-7.6-16.3-12.3-6.4-6.3-18.4-17.9-10.2-27.2 10.2 12.1 24.1 21.6 36.8 30.8 13.4 9.6 25.7 21 38.4 31.5 12.2 10.1 24.4 20.3 36.4 30.7 3 2.8 6.1 5.7 9.3 8.3.4.4 3.7 2.5 3.7 3 0 1.3-2.6 2.2-3.5 2.5-1.4.6-5.3 2-7 1.6-.8-.3-.8-1-1.4-1.4l-1.2-1.9h-2.9m702.8-133.9c-8.5-.3-21.5-.3-21 11.3.2 5.8 3.4 10 6 15a49.7 49.7 0 015.4 16.2c3.2 23.5-5.4 46.4-13.1 68.1a108.7 108.7 0 0035-52.6c3-10 4.2-22.7 3.2-33a41 41 0 00-4.7-14.5c-1.1-2.3-2.3-5-4.1-6.8-1.9-2-4.4-2.6-6.7-3.7m-29.7 124c-5.5-9 3.2-22.3 6-31.1a188 188 0 008-32.5 47.7 47.7 0 00-5.8-30.6c-4.8-9.1-7.6-21.2-2.3-30.9 2.1-3.8 5.3-4.3 9-5.9 4.6-1.9 5.9-5 11.5-4.6 10.1 1 14.8 10.5 18.5 18.7 8.8 19 6.4 43.5-1 62.5-4.4 11-9.2 22.4-16.5 31.7a91.9 91.9 0 01-12.2 12.4c-4.7 4.1-9 9.1-15.2 10.4M241 203c-13.3 2.6-25.4 8.6-27.5 23.6-2 13.5 7.3 26.1 18.6 32.5 12.3 6.8 27.7 8 40 .4 12.8-8 15.8-24.1 8-36.7-8.8-14.1-23.5-18.3-39-19.8m8.5-6.5a45.5 45.5 0 0135.8 28.7 34 34 0 01-14 41.4c-29.5 17.3-68.8-11.5-61.7-44.7 1.8-8.4 7-15 13.9-19.9 7.7-5.4 17-5.6 26-5.5M812.3 37.7L755 11.8l-2.3 26c-.2 2.3-1 5.5-.7 7.8.4 2.4-.5 2.2 2.8 1.8 4-.4 8.2-1.5 12.2-2.2 7.3-1.3 15.1-1.7 22.3-3.6 3.6-1 7.1-1 10.8-1.7 4-.6 8-1.8 12.2-2.2m-64.6 16.7c0-9.8 1.1-19.4 2-29 .8-8.8 1.1-17 4-25.4 2.6 4.8 10 6.8 14.6 9.2 6.2 3.5 13 6 19.3 9.1 6.4 3 12.4 6.6 18.8 9.6l9.6 4.6c2 1 6.8 2.6 8 4.4 3.8 5.5-9.2 6-11.7 6.5-7.4 1.5-15 2.3-22.5 3.8l-21 4c-6.9 1.2-14 3.2-21 3.2m-588 241c7.5-.8 15-1.9 22.5-2.6 7-.7 13.3-1.5 19.8-4.7a955 955 0 00-26.7-7.6c-4.4-1.2-8.8-2.5-13.3-3.6-3.4-.9-6.4-1.4-7.7-5.1-1.6-4.4 2.7-3.8 5.4-2.6 3.7 1.5 7.7 2.4 11.5 3.7a895 895 0 0025.7 8c2.7.9 18.2 3.8 12.6 9-2.4 2.2-7.7 3.4-10.7 5-3.7 2-7.8 2.9-12 3.7-8.6 1.7-17.7 2.3-26.5 3.8l-13.4 2.2c-2.7.5-3.7.4-4.4-2.5-.5-2.1.2-4.3.7-6.3 1.2-5.3 2.6-10.5 3.9-15.7.5-2 1.4-10.8 3.2-11.7 4-2.2.9 10 .6 11.4-1.1 5.6-2.5 11.2-3 16.8l11.8-1.2M266.2 340c1.5 3.7-1 4.5-4 5.8-3.9 1.7-7.7 3.5-11.7 5-8.3 3.2-16.7 6.1-24.8 9.8-15.6 7-31.3 13.8-46.6 21.3l-11.4 5.5c-4 2-8.5 5-12.8 6.1-3.7 1-4-1.7-1.9-4.1 2.9-3.2 7.2-5.5 10.8-7.7 14.6-9 30.5-16.2 46.5-22.4 18.4-7 36.9-14 56-19.3m40.5-212.3c-.6-11.3 1-22.7 0-34-15.5 13.7-7.9 35.1 1.1 50.1l-1.1-16zm6.7-.6c.1 5.5.4 11-.1 16.6-.6 5.8 2.1 8.8 5.7 13-3 3.1-10-4-11.8-6-4-4.4-6.9-10.2-9.5-15.4-5.5-11-9.4-22.9-5-35 1.7-4.5 3.7-10.7 8-13.3 4.9-2.9 8.5 1.2 10.5 5.4 4.9 10.2 1.2 23.7 2.2 34.7zm165.2 565.4l21.5 1.5-3.7-29.5-12.5 2.9c-2 .4-5 .5-6.7 1.5l-2 .5v3.8l-.3 11.4c-.1 1.5-.7 3.9-.3 5.4-.6 1.6-.2 2.3 1.3 2l2.7.5m-5 7c-5.5-2.7-4-11.3-4-16.8l.3-10.3c.1-2.4-.4-5.4.4-7.7 1.4-4 8.6-4 12.3-3.7 2.7.2 5 .1 7.7 0 1.4-.2 3 0 4.3-.3l3-2c4.9.2 5 12 5.2 15l2.2 22.2c.2 2 .9 4.2-1 5.3-1.7 1-6.1 0-8 0-7.5-.3-14.9-1.4-22.3-1.6m351.9-439.3c3.2 3 1.7 6 .6 9.6-.6 2.2-4.2 9.4-3.2 11.5 1.1 2.4 6.4 3 8.7 3.7 3.9 1.3 7.9 2.6 11.6 4.5 1.6.8 7.6 2.7 8.7 4.2.6.9.9 1.5.4 2.7-.8 2-2 1-4.1.5-9.4-2-18.7-4.4-27.5-8.5-2.4 5.6-4.5 11.4-6.5 17.2-.6 1.7-1.2 5.5-3.5 5.8-2.8.3-2.8-3.4-2.6-5.4.2-3 1.8-6.1 2.7-9 .7-2.2 3.4-7 3-9.4-.1-1.6-1.1-1.5-3-2.2l-5-1.8-8-3.1c-1.4-.7-4.4-1.4-5.4-2.7-.6-.8-1.3-3.6-.5-4.3 1.8-1.8 13.6 3 16 3.7 1.6.4 3.3.7 4.8 1.3.6.2 1.3 1.1 2 1.2 2.7 0 2.9-2 3.7-4.2a87 87 0 017-15.3M147.3 364c-1.5-3.5 14-7.8 16.8-9 7-2.9 14.5-4.7 21.7-6.9a456 456 0 0021.1-7.1c2.2-.8 17.8-8.4 18.6-7.3 2.7 3.7-30 15.2-33.2 16.4-14.7 5.3-30 9.4-45 14M809.7 85.9c-4 0-9.8 1.2-13.4-.4l13.4.4"/><path d="M249.6 196.5h-9c3-.8 6-1.2 9 0m462.2-2.5h6.3-6.3m183.1 54.3l-.1 6.7v-6.7M482.7 661l-6.7.5 6.7-.5m12.5-426.7l-6.8.5 6.8-.5m-87.9 4.4l-6 .5 6-.5M495 97h-6c2-1 4-.8 6 0M132.6 440.4c-1.7-.1-3 .7-4-.9 1.6-1.2 2.4.2 4 .9M439 307.8l-5.2-.6 5.2.6zm34.8 391.8h3.4-3.4M738.4 89.1l-5.4.5 5.4-.5M175.9 627.6h-5.1 5m-137-30.2h-5.1 5.1m434.9-361.7l-5.3.5 5.3-.5m-48.7 2.8l-5.2-.6c1.7.4 3.6-1 5.1.6m155.7 69c1 0 2.6-.5 3.7-.3-.2.6-3.3.3-3.7.3m-109 134.9h3.4-3.4M367.4 305l-5 .5 5-.4m-188.5-5.8h2.7-2.7m-19.1-3.9l-4.4.6 4.4-.6M428 434.3l2.8-.2-2.7.2M498 315.9l-4.5-.6 4.4.6M143.6 542.6h2.9-2.9M65.4 424.2l-4.6-.5 4.6.5M33 597.6l-4.5.5 4.5-.5m151.8 28.7l-4.5.5 4.5-.5m-14.8 1.5c-1.5 1-3 1.1-4.5 0h4.6m-28.8 1.2h-4.5 4.5m172.2-502l-.4-3.8.4 3.9m160.9-29.2l-4.5.5 4.5-.5M246 271.4h2.8-2.8m134-14.5c5-.8 9.8-1 14.8 0H380zm131-55.3c1-2.6 1.3-3.6 3.8-5-1 2.6-1.2 4-3.8 5m119.8 264.3c0 2.8.2 5.5.3 8.3l-.3-8.3M808.9 92.3l-6.7.2 6.7-.2M513 515.2l.1 7-.2-7M240.6 441l6.8.1h-6.8m190.8-118.9h-4 4m-4.4-73.6h-3.3 3.3M268 440.4l5.2-.5-5.2.5m-20 .7l5.4-.4-5.3.4m6.5 2.9h-2.7 2.7M630 404.2l.4-4-.4 4M364.2 272.3l3.4.3-3.8.2c0-.3.2-.4.4-.5M651 491.7c0-1.2 0-2.4-.2-3.5l.3 3.5M384.3 267.8h-2.7 2.7m328.1 149.9l4.4.6-4.4-.6M402 319.3h-2.7 2.8m-53.2-179.8c1 .5.5 2.8-.5 2.5l.5-2.5m-42.1-11.8l-.3-6 .3 6m167.8 564.2l4.1.6-4-.6m-9.1-513.6c-4.8 1-9.7 1.5-14.4 3-1.2.3-5 2.5-6.5 2-2.1-1-1-3.2-.1-4.5 2.4-3.3 6.7-5 10.6-5 4 0 9.4-.2 10.4 4.5m-13.4 8.7c5.3 3.8 9.4 5.6 9.8-2.7 5.8.8 3.2 10-1.1 10.7-4.8.8-8-4-8.7-8"/></g></g></svg>